%
M48
M72
T01C0.0315
T02C0.0320
T03C0.0354
T04C0.0400
%
T01
X8660Y7660
X10160Y8410
X15160Y13910
X16660Y8660
X16160Y4160
X17410Y3660
X7160Y17160
X13660Y22660
T02
X13160Y12910
X12160Y12910
X11160Y12910
X14160Y12910
X15160Y12910
X16160Y12910
X17160Y12910
X17160Y9910
X16160Y9910
X15160Y9910
X14160Y9910
X13160Y9910
X12160Y9910
X11160Y9910
T03
X16410Y6660
X16410Y5660
X17410Y5660
X18410Y5660
X18410Y6660
X17410Y6660
T04
X14660Y21660
X13660Y21660
X12660Y21660
M30
