G75*
%MOIN*%
%OFA0B0*%
%FSLAX24Y24*%
%IPPOS*%
%LPD*%
%AMOC8*
5,1,8,0,0,1.08239X$1,22.5*
%
%ADD10C,0.0620*%
%ADD11C,0.0654*%
%ADD12C,0.0740*%
%ADD13C,0.0051*%
%ADD14C,0.0240*%
%ADD15C,0.0320*%
%ADD16C,0.0615*%
%ADD17C,0.0120*%
D10*
X011160Y009755D02*
X011160Y010065D01*
X012160Y010065D02*
X012160Y009755D01*
X013160Y009755D02*
X013160Y010065D01*
X014160Y010065D02*
X014160Y009755D01*
X015160Y009755D02*
X015160Y010065D01*
X016160Y010065D02*
X016160Y009755D01*
X017160Y009755D02*
X017160Y010065D01*
X017160Y012755D02*
X017160Y013065D01*
X016160Y013065D02*
X016160Y012755D01*
X015160Y012755D02*
X015160Y013065D01*
X014160Y013065D02*
X014160Y012755D01*
X013160Y012755D02*
X013160Y013065D01*
X012160Y013065D02*
X012160Y012755D01*
X011160Y012755D02*
X011160Y013065D01*
D11*
X016410Y006660D03*
X016410Y005660D03*
X017410Y005660D03*
X018410Y005660D03*
X018410Y006660D03*
X017410Y006660D03*
D12*
X014660Y021660D03*
X013660Y021660D03*
X012660Y021660D03*
D13*
X018805Y004430D02*
X019267Y004430D01*
X019267Y003890D01*
X018805Y003890D01*
X018805Y004430D01*
X018805Y003938D02*
X019267Y003938D01*
X019267Y003986D02*
X018805Y003986D01*
X018805Y004034D02*
X019267Y004034D01*
X019267Y004082D02*
X018805Y004082D01*
X018805Y004130D02*
X019267Y004130D01*
X019267Y004178D02*
X018805Y004178D01*
X018805Y004226D02*
X019267Y004226D01*
X019267Y004274D02*
X018805Y004274D01*
X018805Y004322D02*
X019267Y004322D01*
X019267Y004370D02*
X018805Y004370D01*
X018805Y004418D02*
X019267Y004418D01*
X019553Y004430D02*
X020015Y004430D01*
X020015Y003890D01*
X019553Y003890D01*
X019553Y004430D01*
X019553Y003938D02*
X020015Y003938D01*
X020015Y003986D02*
X019553Y003986D01*
X019553Y004034D02*
X020015Y004034D01*
X020015Y004082D02*
X019553Y004082D01*
X019553Y004130D02*
X020015Y004130D01*
X020015Y004178D02*
X019553Y004178D01*
X019553Y004226D02*
X020015Y004226D01*
X020015Y004274D02*
X019553Y004274D01*
X019553Y004322D02*
X020015Y004322D01*
X020015Y004370D02*
X019553Y004370D01*
X019553Y004418D02*
X020015Y004418D01*
D14*
X019784Y004160D02*
X019784Y005286D01*
X019410Y005660D01*
X018410Y005660D01*
X017410Y005660D02*
X017410Y004910D01*
X016660Y004160D01*
X016160Y004160D01*
X015910Y006660D02*
X014160Y008410D01*
X014160Y009910D01*
X016660Y008660D02*
X017160Y009160D01*
X017160Y009910D01*
X018160Y008910D02*
X018160Y011160D01*
X017660Y011660D01*
X016660Y011660D01*
X016160Y012160D01*
X017160Y012910D02*
X018160Y012910D01*
X018910Y012160D01*
X018910Y008410D01*
X018410Y007910D01*
X018410Y006660D01*
X017410Y006660D02*
X017410Y008160D01*
X018160Y008910D01*
X016410Y006660D02*
X015910Y006660D01*
X010160Y008410D02*
X010160Y011160D01*
X011160Y012160D01*
X011160Y012910D01*
X009910Y014410D02*
X008910Y015410D01*
X008910Y020660D01*
X009910Y021660D02*
X012660Y021660D01*
X013660Y021660D02*
X013660Y022660D01*
X013660Y014410D02*
X009910Y014410D01*
X013660Y014410D02*
X014160Y013910D01*
X014160Y012910D01*
D15*
X015160Y012910D02*
X015160Y013910D01*
X016160Y012910D02*
X016160Y012160D01*
X008910Y020660D02*
X009910Y021660D01*
D16*
X013660Y022660D03*
X007160Y017160D03*
X015160Y013910D03*
X016660Y008660D03*
X016160Y004160D03*
X017410Y003660D03*
X010160Y008410D03*
X008660Y007660D03*
D17*
X000160Y000160D02*
X000160Y023410D01*
X025410Y023410D01*
X025410Y000160D01*
X000160Y000160D01*
X000160Y000191D02*
X025410Y000191D01*
X025410Y000310D02*
X000160Y000310D01*
X000160Y000428D02*
X025410Y000428D01*
X025410Y000547D02*
X000160Y000547D01*
X000160Y000665D02*
X025410Y000665D01*
X025410Y000784D02*
X000160Y000784D01*
X000160Y000902D02*
X025410Y000902D01*
X025410Y001021D02*
X000160Y001021D01*
X000160Y001139D02*
X025410Y001139D01*
X025410Y001258D02*
X000160Y001258D01*
X000160Y001376D02*
X025410Y001376D01*
X025410Y001495D02*
X000160Y001495D01*
X000160Y001613D02*
X025410Y001613D01*
X025410Y001732D02*
X000160Y001732D01*
X000160Y001850D02*
X025410Y001850D01*
X025410Y001969D02*
X000160Y001969D01*
X000160Y002087D02*
X025410Y002087D01*
X025410Y002206D02*
X000160Y002206D01*
X000160Y002324D02*
X025410Y002324D01*
X025410Y002443D02*
X000160Y002443D01*
X000160Y002561D02*
X025410Y002561D01*
X025410Y002680D02*
X000160Y002680D01*
X000160Y002798D02*
X025410Y002798D01*
X025410Y002917D02*
X000160Y002917D01*
X000160Y003035D02*
X025410Y003035D01*
X025410Y003154D02*
X000160Y003154D01*
X000160Y003272D02*
X025410Y003272D01*
X025410Y003391D02*
X000160Y003391D01*
X000160Y003509D02*
X015953Y003509D01*
X016025Y003480D02*
X016295Y003480D01*
X016545Y003583D01*
X016629Y003667D01*
X016758Y003667D01*
X016939Y003742D01*
X017078Y003881D01*
X017828Y004631D01*
X017903Y004812D01*
X017903Y005163D01*
X017910Y005170D01*
X018014Y005067D01*
X018271Y004960D01*
X018549Y004960D01*
X018806Y005067D01*
X018907Y005167D01*
X019206Y005167D01*
X019291Y005082D01*
X019291Y004731D01*
X019216Y004655D01*
X019200Y004615D01*
X019096Y004615D01*
X019096Y004220D01*
X018976Y004220D01*
X018976Y004615D01*
X018781Y004615D01*
X018734Y004603D01*
X018692Y004578D01*
X018657Y004544D01*
X018633Y004501D01*
X018620Y004454D01*
X018620Y004220D01*
X018976Y004220D01*
X018976Y004100D01*
X019096Y004100D01*
X019096Y003705D01*
X019200Y003705D01*
X019216Y003665D01*
X019328Y003553D01*
X019474Y003492D01*
X020094Y003492D01*
X020240Y003553D01*
X020352Y003665D01*
X020413Y003811D01*
X020413Y004509D01*
X020352Y004655D01*
X020277Y004731D01*
X020277Y005384D01*
X020202Y005565D01*
X020063Y005704D01*
X019689Y006078D01*
X019508Y006153D01*
X018907Y006153D01*
X018900Y006160D01*
X019003Y006264D01*
X019110Y006521D01*
X019110Y006799D01*
X019003Y007056D01*
X018903Y007157D01*
X018903Y007706D01*
X019189Y007992D01*
X019328Y008131D01*
X025410Y008131D01*
X025410Y008249D02*
X019377Y008249D01*
X019403Y008312D02*
X019328Y008131D01*
X019209Y008012D02*
X025410Y008012D01*
X025410Y007894D02*
X019091Y007894D01*
X018972Y007775D02*
X025410Y007775D01*
X025410Y007657D02*
X018903Y007657D01*
X018903Y007538D02*
X025410Y007538D01*
X025410Y007420D02*
X018903Y007420D01*
X018903Y007301D02*
X025410Y007301D01*
X025410Y007183D02*
X018903Y007183D01*
X018995Y007064D02*
X025410Y007064D01*
X025410Y006946D02*
X019049Y006946D01*
X019098Y006827D02*
X025410Y006827D01*
X025410Y006709D02*
X019110Y006709D01*
X019110Y006590D02*
X025410Y006590D01*
X025410Y006472D02*
X019090Y006472D01*
X019040Y006353D02*
X025410Y006353D01*
X025410Y006235D02*
X018975Y006235D01*
X019595Y006116D02*
X025410Y006116D01*
X025410Y005998D02*
X019769Y005998D01*
X019887Y005879D02*
X025410Y005879D01*
X025410Y005761D02*
X020006Y005761D01*
X020124Y005642D02*
X025410Y005642D01*
X025410Y005524D02*
X020219Y005524D01*
X020268Y005405D02*
X025410Y005405D01*
X025410Y005287D02*
X020277Y005287D01*
X020277Y005168D02*
X025410Y005168D01*
X025410Y005050D02*
X020277Y005050D01*
X020277Y004931D02*
X025410Y004931D01*
X025410Y004813D02*
X020277Y004813D01*
X020313Y004694D02*
X025410Y004694D01*
X025410Y004576D02*
X020385Y004576D01*
X020413Y004457D02*
X025410Y004457D01*
X025410Y004339D02*
X020413Y004339D01*
X020413Y004220D02*
X025410Y004220D01*
X025410Y004102D02*
X020413Y004102D01*
X020413Y003983D02*
X025410Y003983D01*
X025410Y003865D02*
X020413Y003865D01*
X020386Y003746D02*
X025410Y003746D01*
X025410Y003628D02*
X020315Y003628D01*
X020135Y003509D02*
X025410Y003509D01*
X025410Y008368D02*
X019403Y008368D01*
X019403Y008312D02*
X019403Y012258D01*
X019328Y012439D01*
X018578Y013189D01*
X018439Y013328D01*
X018258Y013403D01*
X017759Y013403D01*
X017739Y013452D01*
X017547Y013644D01*
X017296Y013748D01*
X017024Y013748D01*
X016773Y013644D01*
X016660Y013530D01*
X016547Y013644D01*
X016296Y013748D01*
X016024Y013748D01*
X015788Y013650D01*
X015840Y013775D01*
X015840Y014045D01*
X015737Y014295D01*
X015545Y014487D01*
X015295Y014590D01*
X015025Y014590D01*
X014775Y014487D01*
X014583Y014295D01*
X014551Y014216D01*
X014078Y014689D01*
X013939Y014828D01*
X013758Y014903D01*
X010114Y014903D01*
X009403Y015614D01*
X009403Y020399D01*
X010171Y021167D01*
X012102Y021167D01*
X012239Y021030D01*
X012512Y020917D01*
X012808Y020917D01*
X013081Y021030D01*
X013160Y021110D01*
X013239Y021030D01*
X013512Y020917D01*
X013808Y020917D01*
X014081Y021030D01*
X014160Y021110D01*
X014239Y021030D01*
X014512Y020917D01*
X014808Y020917D01*
X015081Y021030D01*
X015290Y021239D01*
X015403Y021512D01*
X015403Y021808D01*
X015290Y022081D01*
X015081Y022290D01*
X014808Y022403D01*
X014512Y022403D01*
X014243Y022291D01*
X014340Y022525D01*
X014340Y022795D01*
X014237Y023045D01*
X014045Y023237D01*
X013795Y023340D01*
X013525Y023340D01*
X013275Y023237D01*
X013083Y023045D01*
X012980Y022795D01*
X012980Y022525D01*
X013077Y022291D01*
X012808Y022403D01*
X012512Y022403D01*
X012239Y022290D01*
X012102Y022153D01*
X010113Y022153D01*
X010016Y022193D01*
X009804Y022193D01*
X009608Y022112D01*
X008458Y020962D01*
X008377Y020766D01*
X008377Y020554D01*
X008417Y020457D01*
X008417Y015312D01*
X008492Y015131D01*
X009631Y013992D01*
X009812Y013917D01*
X013456Y013917D01*
X013667Y013706D01*
X013667Y013538D01*
X013660Y013530D01*
X013547Y013644D01*
X013296Y013748D01*
X013024Y013748D01*
X012773Y013644D01*
X012660Y013530D01*
X012547Y013644D01*
X012296Y013748D01*
X012024Y013748D01*
X011773Y013644D01*
X011660Y013530D01*
X011547Y013644D01*
X011296Y013748D01*
X011024Y013748D01*
X010773Y013644D01*
X010581Y013452D01*
X010477Y013201D01*
X010477Y012619D01*
X010581Y012368D01*
X010627Y012323D01*
X009742Y011439D01*
X009667Y011258D01*
X009667Y008879D01*
X009583Y008795D01*
X009480Y008545D01*
X009480Y008275D01*
X009583Y008025D01*
X009775Y007833D01*
X010025Y007730D01*
X010295Y007730D01*
X010545Y007833D01*
X010737Y008025D01*
X010840Y008275D01*
X010840Y008545D01*
X010737Y008795D01*
X010653Y008879D01*
X010653Y010956D01*
X011439Y011742D01*
X011578Y011881D01*
X011653Y012062D01*
X011653Y012282D01*
X011660Y012290D01*
X011773Y012176D01*
X012024Y012072D01*
X012296Y012072D01*
X012547Y012176D01*
X012660Y012290D01*
X012773Y012176D01*
X013024Y012072D01*
X013296Y012072D01*
X013547Y012176D01*
X013660Y012290D01*
X013773Y012176D01*
X014024Y012072D01*
X014296Y012072D01*
X014547Y012176D01*
X014660Y012290D01*
X014773Y012176D01*
X015024Y012072D01*
X015296Y012072D01*
X015547Y012176D01*
X015627Y012257D01*
X015627Y012054D01*
X015708Y011858D01*
X015858Y011708D01*
X015955Y011668D01*
X016381Y011242D01*
X016562Y011167D01*
X017456Y011167D01*
X017667Y010956D01*
X017667Y010523D01*
X017547Y010644D01*
X017296Y010748D01*
X017024Y010748D01*
X016773Y010644D01*
X016660Y010530D01*
X016547Y010644D01*
X016296Y010748D01*
X016024Y010748D01*
X015773Y010644D01*
X015660Y010530D01*
X015547Y010644D01*
X015296Y010748D01*
X015024Y010748D01*
X014773Y010644D01*
X014660Y010530D01*
X014547Y010644D01*
X014296Y010748D01*
X014024Y010748D01*
X013773Y010644D01*
X013660Y010530D01*
X013547Y010644D01*
X013296Y010748D01*
X013024Y010748D01*
X012773Y010644D01*
X012660Y010530D01*
X012547Y010644D01*
X012296Y010748D01*
X012024Y010748D01*
X011773Y010644D01*
X011581Y010452D01*
X011537Y010345D01*
X011518Y010371D01*
X011466Y010423D01*
X011406Y010467D01*
X011340Y010501D01*
X011270Y010523D01*
X011197Y010535D01*
X011180Y010535D01*
X011180Y009930D01*
X011140Y009930D01*
X011140Y010535D01*
X011123Y010535D01*
X011050Y010523D01*
X010980Y010501D01*
X010914Y010467D01*
X010854Y010423D01*
X010802Y010371D01*
X010758Y010311D01*
X010724Y010245D01*
X010702Y010175D01*
X010690Y010102D01*
X010690Y009930D01*
X011140Y009930D01*
X011140Y009890D01*
X011180Y009890D01*
X011180Y009285D01*
X011197Y009285D01*
X011270Y009297D01*
X011340Y009319D01*
X011406Y009353D01*
X011466Y009397D01*
X011518Y009449D01*
X011537Y009475D01*
X011581Y009368D01*
X011773Y009176D01*
X012024Y009072D01*
X012296Y009072D01*
X012547Y009176D01*
X012660Y009290D01*
X012773Y009176D01*
X013024Y009072D01*
X013296Y009072D01*
X013547Y009176D01*
X013660Y009290D01*
X013667Y009282D01*
X013667Y008312D01*
X013742Y008131D01*
X010781Y008131D01*
X010830Y008249D02*
X013693Y008249D01*
X013667Y008368D02*
X010840Y008368D01*
X010840Y008486D02*
X013667Y008486D01*
X013667Y008605D02*
X010815Y008605D01*
X010766Y008723D02*
X013667Y008723D01*
X013667Y008842D02*
X010690Y008842D01*
X010653Y008960D02*
X013667Y008960D01*
X013667Y009079D02*
X013312Y009079D01*
X013568Y009197D02*
X013667Y009197D01*
X013008Y009079D02*
X012312Y009079D01*
X012568Y009197D02*
X012752Y009197D01*
X012008Y009079D02*
X010653Y009079D01*
X010653Y009197D02*
X011752Y009197D01*
X011634Y009316D02*
X011330Y009316D01*
X011180Y009316D02*
X011140Y009316D01*
X011140Y009285D02*
X011140Y009890D01*
X010690Y009890D01*
X010690Y009718D01*
X010702Y009645D01*
X010724Y009575D01*
X010758Y009509D01*
X010802Y009449D01*
X010854Y009397D01*
X010914Y009353D01*
X010980Y009319D01*
X011050Y009297D01*
X011123Y009285D01*
X011140Y009285D01*
X011140Y009434D02*
X011180Y009434D01*
X011180Y009553D02*
X011140Y009553D01*
X011140Y009671D02*
X011180Y009671D01*
X011180Y009790D02*
X011140Y009790D01*
X011140Y009908D02*
X010653Y009908D01*
X010653Y009790D02*
X010690Y009790D01*
X010697Y009671D02*
X010653Y009671D01*
X010653Y009553D02*
X010735Y009553D01*
X010816Y009434D02*
X010653Y009434D01*
X010653Y009316D02*
X010990Y009316D01*
X011504Y009434D02*
X011554Y009434D01*
X011180Y010027D02*
X011140Y010027D01*
X011140Y010145D02*
X011180Y010145D01*
X011180Y010264D02*
X011140Y010264D01*
X011140Y010382D02*
X011180Y010382D01*
X011180Y010501D02*
X011140Y010501D01*
X010981Y010501D02*
X010653Y010501D01*
X010653Y010619D02*
X011749Y010619D01*
X011631Y010501D02*
X011339Y010501D01*
X011507Y010382D02*
X011553Y010382D01*
X012001Y010738D02*
X010653Y010738D01*
X010653Y010856D02*
X017667Y010856D01*
X017667Y010738D02*
X017319Y010738D01*
X017571Y010619D02*
X017667Y010619D01*
X017648Y010975D02*
X010672Y010975D01*
X010790Y011093D02*
X017530Y011093D01*
X017001Y010738D02*
X016319Y010738D01*
X016571Y010619D02*
X016749Y010619D01*
X016454Y011212D02*
X010909Y011212D01*
X011027Y011330D02*
X016293Y011330D01*
X016174Y011449D02*
X011146Y011449D01*
X011264Y011567D02*
X016056Y011567D01*
X015913Y011686D02*
X011383Y011686D01*
X011501Y011804D02*
X015762Y011804D01*
X015682Y011923D02*
X011595Y011923D01*
X011644Y012041D02*
X015633Y012041D01*
X015627Y012160D02*
X015507Y012160D01*
X014813Y012160D02*
X014507Y012160D01*
X014649Y012279D02*
X014671Y012279D01*
X013813Y012160D02*
X013507Y012160D01*
X013649Y012279D02*
X013671Y012279D01*
X012813Y012160D02*
X012507Y012160D01*
X012649Y012279D02*
X012671Y012279D01*
X011813Y012160D02*
X011653Y012160D01*
X011653Y012279D02*
X011671Y012279D01*
X010582Y012279D02*
X000160Y012279D01*
X000160Y012397D02*
X010569Y012397D01*
X010520Y012516D02*
X000160Y012516D01*
X000160Y012634D02*
X010477Y012634D01*
X010477Y012753D02*
X000160Y012753D01*
X000160Y012871D02*
X010477Y012871D01*
X010477Y012990D02*
X000160Y012990D01*
X000160Y013108D02*
X010477Y013108D01*
X010488Y013227D02*
X000160Y013227D01*
X000160Y013345D02*
X010537Y013345D01*
X010593Y013464D02*
X000160Y013464D01*
X000160Y013582D02*
X010712Y013582D01*
X010911Y013701D02*
X000160Y013701D01*
X000160Y013819D02*
X013554Y013819D01*
X013667Y013701D02*
X013409Y013701D01*
X013608Y013582D02*
X013667Y013582D01*
X012911Y013701D02*
X012409Y013701D01*
X012608Y013582D02*
X012712Y013582D01*
X011911Y013701D02*
X011409Y013701D01*
X011608Y013582D02*
X011712Y013582D01*
X010463Y012160D02*
X000160Y012160D01*
X000160Y012041D02*
X010345Y012041D01*
X010226Y011923D02*
X000160Y011923D01*
X000160Y011804D02*
X010108Y011804D01*
X009989Y011686D02*
X000160Y011686D01*
X000160Y011567D02*
X009871Y011567D01*
X009752Y011449D02*
X000160Y011449D01*
X000160Y011330D02*
X009697Y011330D01*
X009667Y011212D02*
X000160Y011212D01*
X000160Y011093D02*
X009667Y011093D01*
X009667Y010975D02*
X000160Y010975D01*
X000160Y010856D02*
X009667Y010856D01*
X009667Y010738D02*
X000160Y010738D01*
X000160Y010619D02*
X009667Y010619D01*
X009667Y010501D02*
X000160Y010501D01*
X000160Y010382D02*
X009667Y010382D01*
X009667Y010264D02*
X000160Y010264D01*
X000160Y010145D02*
X009667Y010145D01*
X009667Y010027D02*
X000160Y010027D01*
X000160Y009908D02*
X009667Y009908D01*
X009667Y009790D02*
X000160Y009790D01*
X000160Y009671D02*
X009667Y009671D01*
X009667Y009553D02*
X000160Y009553D01*
X000160Y009434D02*
X009667Y009434D01*
X009667Y009316D02*
X000160Y009316D01*
X000160Y009197D02*
X009667Y009197D01*
X009667Y009079D02*
X000160Y009079D01*
X000160Y008960D02*
X009667Y008960D01*
X009630Y008842D02*
X000160Y008842D01*
X000160Y008723D02*
X009554Y008723D01*
X009505Y008605D02*
X000160Y008605D01*
X000160Y008486D02*
X009480Y008486D01*
X009480Y008368D02*
X000160Y008368D01*
X000160Y008249D02*
X009490Y008249D01*
X009539Y008131D02*
X000160Y008131D01*
X000160Y008012D02*
X009596Y008012D01*
X009714Y007894D02*
X000160Y007894D01*
X000160Y007775D02*
X009915Y007775D01*
X010405Y007775D02*
X014098Y007775D01*
X014216Y007657D02*
X000160Y007657D01*
X000160Y007538D02*
X014335Y007538D01*
X014453Y007420D02*
X000160Y007420D01*
X000160Y007301D02*
X014572Y007301D01*
X014690Y007183D02*
X000160Y007183D01*
X000160Y007064D02*
X014809Y007064D01*
X014927Y006946D02*
X000160Y006946D01*
X000160Y006827D02*
X015046Y006827D01*
X015164Y006709D02*
X000160Y006709D01*
X000160Y006590D02*
X015283Y006590D01*
X015401Y006472D02*
X000160Y006472D01*
X000160Y006353D02*
X015520Y006353D01*
X015631Y006242D02*
X015812Y006167D01*
X015913Y006167D01*
X015920Y006160D01*
X015817Y006056D01*
X015710Y005799D01*
X015710Y005521D01*
X015817Y005264D01*
X016014Y005067D01*
X016271Y004960D01*
X016549Y004960D01*
X016806Y005067D01*
X016910Y005170D01*
X016917Y005163D01*
X016917Y005114D01*
X016541Y004738D01*
X016295Y004840D01*
X016025Y004840D01*
X015775Y004737D01*
X015583Y004545D01*
X015480Y004295D01*
X015480Y004025D01*
X015583Y003775D01*
X015775Y003583D01*
X016025Y003480D01*
X015730Y003628D02*
X000160Y003628D01*
X000160Y003746D02*
X015612Y003746D01*
X015546Y003865D02*
X000160Y003865D01*
X000160Y003983D02*
X015497Y003983D01*
X015480Y004102D02*
X000160Y004102D01*
X000160Y004220D02*
X015480Y004220D01*
X015498Y004339D02*
X000160Y004339D01*
X000160Y004457D02*
X015547Y004457D01*
X015614Y004576D02*
X000160Y004576D01*
X000160Y004694D02*
X015733Y004694D01*
X015959Y004813D02*
X000160Y004813D01*
X000160Y004931D02*
X016735Y004931D01*
X016766Y005050D02*
X016853Y005050D01*
X016908Y005168D02*
X016912Y005168D01*
X016616Y004813D02*
X016361Y004813D01*
X016054Y005050D02*
X000160Y005050D01*
X000160Y005168D02*
X015912Y005168D01*
X015807Y005287D02*
X000160Y005287D01*
X000160Y005405D02*
X015758Y005405D01*
X015710Y005524D02*
X000160Y005524D01*
X000160Y005642D02*
X015710Y005642D01*
X015710Y005761D02*
X000160Y005761D01*
X000160Y005879D02*
X015743Y005879D01*
X015793Y005998D02*
X000160Y005998D01*
X000160Y006116D02*
X015877Y006116D01*
X015649Y006235D02*
X000160Y006235D01*
X000160Y013938D02*
X009763Y013938D01*
X009567Y014056D02*
X000160Y014056D01*
X000160Y014175D02*
X009449Y014175D01*
X009330Y014293D02*
X000160Y014293D01*
X000160Y014412D02*
X009212Y014412D01*
X009093Y014530D02*
X000160Y014530D01*
X000160Y014649D02*
X008975Y014649D01*
X008856Y014767D02*
X000160Y014767D01*
X000160Y014886D02*
X008738Y014886D01*
X008619Y015004D02*
X000160Y015004D01*
X000160Y015123D02*
X008501Y015123D01*
X008447Y015241D02*
X000160Y015241D01*
X000160Y015360D02*
X008417Y015360D01*
X008417Y015478D02*
X000160Y015478D01*
X000160Y015597D02*
X008417Y015597D01*
X008417Y015715D02*
X000160Y015715D01*
X000160Y015834D02*
X008417Y015834D01*
X008417Y015952D02*
X000160Y015952D01*
X000160Y016071D02*
X008417Y016071D01*
X008417Y016189D02*
X000160Y016189D01*
X000160Y016308D02*
X008417Y016308D01*
X008417Y016426D02*
X000160Y016426D01*
X000160Y016545D02*
X008417Y016545D01*
X008417Y016663D02*
X000160Y016663D01*
X000160Y016782D02*
X008417Y016782D01*
X008417Y016900D02*
X000160Y016900D01*
X000160Y017019D02*
X008417Y017019D01*
X008417Y017137D02*
X000160Y017137D01*
X000160Y017256D02*
X008417Y017256D01*
X008417Y017374D02*
X000160Y017374D01*
X000160Y017493D02*
X008417Y017493D01*
X008417Y017611D02*
X000160Y017611D01*
X000160Y017730D02*
X008417Y017730D01*
X008417Y017848D02*
X000160Y017848D01*
X000160Y017967D02*
X008417Y017967D01*
X008417Y018085D02*
X000160Y018085D01*
X000160Y018204D02*
X008417Y018204D01*
X008417Y018322D02*
X000160Y018322D01*
X000160Y018441D02*
X008417Y018441D01*
X008417Y018559D02*
X000160Y018559D01*
X000160Y018678D02*
X008417Y018678D01*
X008417Y018796D02*
X000160Y018796D01*
X000160Y018915D02*
X008417Y018915D01*
X008417Y019033D02*
X000160Y019033D01*
X000160Y019152D02*
X008417Y019152D01*
X008417Y019270D02*
X000160Y019270D01*
X000160Y019389D02*
X008417Y019389D01*
X008417Y019507D02*
X000160Y019507D01*
X000160Y019626D02*
X008417Y019626D01*
X008417Y019744D02*
X000160Y019744D01*
X000160Y019863D02*
X008417Y019863D01*
X008417Y019981D02*
X000160Y019981D01*
X000160Y020100D02*
X008417Y020100D01*
X008417Y020218D02*
X000160Y020218D01*
X000160Y020337D02*
X008417Y020337D01*
X008417Y020455D02*
X000160Y020455D01*
X000160Y020574D02*
X008377Y020574D01*
X008377Y020692D02*
X000160Y020692D01*
X000160Y020811D02*
X008396Y020811D01*
X008445Y020929D02*
X000160Y020929D01*
X000160Y021048D02*
X008544Y021048D01*
X008663Y021166D02*
X000160Y021166D01*
X000160Y021285D02*
X008781Y021285D01*
X008900Y021403D02*
X000160Y021403D01*
X000160Y021522D02*
X009018Y021522D01*
X009137Y021640D02*
X000160Y021640D01*
X000160Y021759D02*
X009255Y021759D01*
X009374Y021877D02*
X000160Y021877D01*
X000160Y021996D02*
X009492Y021996D01*
X009614Y022114D02*
X000160Y022114D01*
X000160Y022233D02*
X012182Y022233D01*
X012388Y022351D02*
X000160Y022351D01*
X000160Y022470D02*
X013003Y022470D01*
X012980Y022588D02*
X000160Y022588D01*
X000160Y022707D02*
X012980Y022707D01*
X012992Y022825D02*
X000160Y022825D01*
X000160Y022944D02*
X013041Y022944D01*
X013100Y023062D02*
X000160Y023062D01*
X000160Y023181D02*
X013219Y023181D01*
X013426Y023299D02*
X000160Y023299D01*
X009403Y020337D02*
X025410Y020337D01*
X025410Y020455D02*
X009458Y020455D01*
X009577Y020574D02*
X025410Y020574D01*
X025410Y020692D02*
X009695Y020692D01*
X009814Y020811D02*
X025410Y020811D01*
X025410Y020929D02*
X014836Y020929D01*
X015098Y021048D02*
X025410Y021048D01*
X025410Y021166D02*
X015216Y021166D01*
X015308Y021285D02*
X025410Y021285D01*
X025410Y021403D02*
X015357Y021403D01*
X015403Y021522D02*
X025410Y021522D01*
X025410Y021640D02*
X015403Y021640D01*
X015403Y021759D02*
X025410Y021759D01*
X025410Y021877D02*
X015374Y021877D01*
X015325Y021996D02*
X025410Y021996D01*
X025410Y022114D02*
X015256Y022114D01*
X015138Y022233D02*
X025410Y022233D01*
X025410Y022351D02*
X014932Y022351D01*
X014388Y022351D02*
X014268Y022351D01*
X014317Y022470D02*
X025410Y022470D01*
X025410Y022588D02*
X014340Y022588D01*
X014340Y022707D02*
X025410Y022707D01*
X025410Y022825D02*
X014328Y022825D01*
X014279Y022944D02*
X025410Y022944D01*
X025410Y023062D02*
X014220Y023062D01*
X014101Y023181D02*
X025410Y023181D01*
X025410Y023299D02*
X013894Y023299D01*
X013052Y022351D02*
X012932Y022351D01*
X012104Y021166D02*
X010169Y021166D01*
X010051Y021048D02*
X012222Y021048D01*
X012484Y020929D02*
X009932Y020929D01*
X009403Y020218D02*
X025410Y020218D01*
X025410Y020100D02*
X009403Y020100D01*
X009403Y019981D02*
X025410Y019981D01*
X025410Y019863D02*
X009403Y019863D01*
X009403Y019744D02*
X025410Y019744D01*
X025410Y019626D02*
X009403Y019626D01*
X009403Y019507D02*
X025410Y019507D01*
X025410Y019389D02*
X009403Y019389D01*
X009403Y019270D02*
X025410Y019270D01*
X025410Y019152D02*
X009403Y019152D01*
X009403Y019033D02*
X025410Y019033D01*
X025410Y018915D02*
X009403Y018915D01*
X009403Y018796D02*
X025410Y018796D01*
X025410Y018678D02*
X009403Y018678D01*
X009403Y018559D02*
X025410Y018559D01*
X025410Y018441D02*
X009403Y018441D01*
X009403Y018322D02*
X025410Y018322D01*
X025410Y018204D02*
X009403Y018204D01*
X009403Y018085D02*
X025410Y018085D01*
X025410Y017967D02*
X009403Y017967D01*
X009403Y017848D02*
X025410Y017848D01*
X025410Y017730D02*
X009403Y017730D01*
X009403Y017611D02*
X025410Y017611D01*
X025410Y017493D02*
X009403Y017493D01*
X009403Y017374D02*
X025410Y017374D01*
X025410Y017256D02*
X009403Y017256D01*
X009403Y017137D02*
X025410Y017137D01*
X025410Y017019D02*
X009403Y017019D01*
X009403Y016900D02*
X025410Y016900D01*
X025410Y016782D02*
X009403Y016782D01*
X009403Y016663D02*
X025410Y016663D01*
X025410Y016545D02*
X009403Y016545D01*
X009403Y016426D02*
X025410Y016426D01*
X025410Y016308D02*
X009403Y016308D01*
X009403Y016189D02*
X025410Y016189D01*
X025410Y016071D02*
X009403Y016071D01*
X009403Y015952D02*
X025410Y015952D01*
X025410Y015834D02*
X009403Y015834D01*
X009403Y015715D02*
X025410Y015715D01*
X025410Y015597D02*
X009420Y015597D01*
X009539Y015478D02*
X025410Y015478D01*
X025410Y015360D02*
X009657Y015360D01*
X009776Y015241D02*
X025410Y015241D01*
X025410Y015123D02*
X009894Y015123D01*
X010013Y015004D02*
X025410Y015004D01*
X025410Y014886D02*
X013799Y014886D01*
X014000Y014767D02*
X025410Y014767D01*
X025410Y014649D02*
X014118Y014649D01*
X014237Y014530D02*
X014880Y014530D01*
X014700Y014412D02*
X014355Y014412D01*
X014474Y014293D02*
X014583Y014293D01*
X015440Y014530D02*
X025410Y014530D01*
X025410Y014412D02*
X015620Y014412D01*
X015737Y014293D02*
X025410Y014293D01*
X025410Y014175D02*
X015787Y014175D01*
X015836Y014056D02*
X025410Y014056D01*
X025410Y013938D02*
X015840Y013938D01*
X015840Y013819D02*
X025410Y013819D01*
X025410Y013701D02*
X017409Y013701D01*
X017608Y013582D02*
X025410Y013582D01*
X025410Y013464D02*
X017727Y013464D01*
X018397Y013345D02*
X025410Y013345D01*
X025410Y013227D02*
X018540Y013227D01*
X018659Y013108D02*
X025410Y013108D01*
X025410Y012990D02*
X018777Y012990D01*
X018896Y012871D02*
X025410Y012871D01*
X025410Y012753D02*
X019014Y012753D01*
X019133Y012634D02*
X025410Y012634D01*
X025410Y012516D02*
X019251Y012516D01*
X019345Y012397D02*
X025410Y012397D01*
X025410Y012279D02*
X019394Y012279D01*
X019403Y012160D02*
X025410Y012160D01*
X025410Y012041D02*
X019403Y012041D01*
X019403Y011923D02*
X025410Y011923D01*
X025410Y011804D02*
X019403Y011804D01*
X019403Y011686D02*
X025410Y011686D01*
X025410Y011567D02*
X019403Y011567D01*
X019403Y011449D02*
X025410Y011449D01*
X025410Y011330D02*
X019403Y011330D01*
X019403Y011212D02*
X025410Y011212D01*
X025410Y011093D02*
X019403Y011093D01*
X019403Y010975D02*
X025410Y010975D01*
X025410Y010856D02*
X019403Y010856D01*
X019403Y010738D02*
X025410Y010738D01*
X025410Y010619D02*
X019403Y010619D01*
X019403Y010501D02*
X025410Y010501D01*
X025410Y010382D02*
X019403Y010382D01*
X019403Y010264D02*
X025410Y010264D01*
X025410Y010145D02*
X019403Y010145D01*
X019403Y010027D02*
X025410Y010027D01*
X025410Y009908D02*
X019403Y009908D01*
X019403Y009790D02*
X025410Y009790D01*
X025410Y009671D02*
X019403Y009671D01*
X019403Y009553D02*
X025410Y009553D01*
X025410Y009434D02*
X019403Y009434D01*
X019403Y009316D02*
X025410Y009316D01*
X025410Y009197D02*
X019403Y009197D01*
X019403Y009079D02*
X025410Y009079D01*
X025410Y008960D02*
X019403Y008960D01*
X019403Y008842D02*
X025410Y008842D01*
X025410Y008723D02*
X019403Y008723D01*
X019403Y008605D02*
X025410Y008605D01*
X025410Y008486D02*
X019403Y008486D01*
X017912Y005168D02*
X017908Y005168D01*
X017903Y005050D02*
X018054Y005050D01*
X017903Y004931D02*
X019291Y004931D01*
X019291Y004813D02*
X017903Y004813D01*
X017854Y004694D02*
X019255Y004694D01*
X019096Y004576D02*
X018976Y004576D01*
X018976Y004457D02*
X019096Y004457D01*
X019096Y004339D02*
X018976Y004339D01*
X018976Y004220D02*
X019096Y004220D01*
X018976Y004102D02*
X017299Y004102D01*
X017417Y004220D02*
X018620Y004220D01*
X018620Y004339D02*
X017536Y004339D01*
X017654Y004457D02*
X018621Y004457D01*
X018690Y004576D02*
X017773Y004576D01*
X017180Y003983D02*
X018620Y003983D01*
X018620Y004100D02*
X018620Y003866D01*
X018633Y003819D01*
X018657Y003776D01*
X018692Y003742D01*
X018734Y003717D01*
X018781Y003705D01*
X018976Y003705D01*
X018976Y004100D01*
X018620Y004100D01*
X018620Y003865D02*
X017062Y003865D01*
X016943Y003746D02*
X018687Y003746D01*
X018976Y003746D02*
X019096Y003746D01*
X019096Y003865D02*
X018976Y003865D01*
X018976Y003983D02*
X019096Y003983D01*
X019253Y003628D02*
X016590Y003628D01*
X016367Y003509D02*
X019433Y003509D01*
X019291Y005050D02*
X018766Y005050D01*
X015631Y006242D02*
X013881Y007992D01*
X013742Y008131D01*
X013861Y008012D02*
X010724Y008012D01*
X010606Y007894D02*
X013979Y007894D01*
X013749Y010619D02*
X013571Y010619D01*
X013319Y010738D02*
X014001Y010738D01*
X014319Y010738D02*
X015001Y010738D01*
X014749Y010619D02*
X014571Y010619D01*
X015319Y010738D02*
X016001Y010738D01*
X015749Y010619D02*
X015571Y010619D01*
X013001Y010738D02*
X012319Y010738D01*
X012571Y010619D02*
X012749Y010619D01*
X010813Y010382D02*
X010653Y010382D01*
X010653Y010264D02*
X010734Y010264D01*
X010697Y010145D02*
X010653Y010145D01*
X010653Y010027D02*
X010690Y010027D01*
X015809Y013701D02*
X015911Y013701D01*
X016409Y013701D02*
X016911Y013701D01*
X016712Y013582D02*
X016608Y013582D01*
X014484Y020929D02*
X013836Y020929D01*
X014098Y021048D02*
X014222Y021048D01*
X013484Y020929D02*
X012836Y020929D01*
X013098Y021048D02*
X013222Y021048D01*
M02*
