G75*
%MOIN*%
%OFA0B0*%
%FSLAX24Y24*%
%IPPOS*%
%LPD*%
%AMOC8*
5,1,8,0,0,1.08239X$1,22.5*
%
%ADD10C,0.0030*%
D10*
X002379Y012160D02*
X002382Y012437D01*
X002393Y012714D01*
X002410Y012990D01*
X002433Y013266D01*
X002464Y013541D01*
X002501Y013815D01*
X002545Y014089D01*
X002596Y014361D01*
X002653Y014632D01*
X002717Y014901D01*
X002788Y015169D01*
X002865Y015435D01*
X002948Y015699D01*
X003038Y015960D01*
X003135Y016220D01*
X003238Y016477D01*
X003347Y016732D01*
X003462Y016983D01*
X003584Y017232D01*
X003711Y017478D01*
X003845Y017720D01*
X003984Y017960D01*
X004129Y018195D01*
X004280Y018427D01*
X004437Y018656D01*
X004599Y018880D01*
X004767Y019100D01*
X004940Y019317D01*
X005118Y019528D01*
X005301Y019736D01*
X005490Y019939D01*
X005683Y020137D01*
X005881Y020330D01*
X006084Y020519D01*
X006292Y020702D01*
X006503Y020880D01*
X006720Y021053D01*
X006940Y021221D01*
X007164Y021383D01*
X007393Y021540D01*
X007625Y021691D01*
X007860Y021836D01*
X008100Y021975D01*
X008342Y022109D01*
X008588Y022236D01*
X008837Y022358D01*
X009088Y022473D01*
X009343Y022582D01*
X009600Y022685D01*
X009860Y022782D01*
X010121Y022872D01*
X010385Y022955D01*
X010651Y023032D01*
X010919Y023103D01*
X011188Y023167D01*
X011459Y023224D01*
X011731Y023275D01*
X012005Y023319D01*
X012279Y023356D01*
X012554Y023387D01*
X012830Y023410D01*
X013106Y023427D01*
X013383Y023438D01*
X013660Y023441D01*
X013937Y023438D01*
X014214Y023427D01*
X014490Y023410D01*
X014766Y023387D01*
X015041Y023356D01*
X015315Y023319D01*
X015589Y023275D01*
X015861Y023224D01*
X016132Y023167D01*
X016401Y023103D01*
X016669Y023032D01*
X016935Y022955D01*
X017199Y022872D01*
X017460Y022782D01*
X017720Y022685D01*
X017977Y022582D01*
X018232Y022473D01*
X018483Y022358D01*
X018732Y022236D01*
X018978Y022109D01*
X019220Y021975D01*
X019460Y021836D01*
X019695Y021691D01*
X019927Y021540D01*
X020156Y021383D01*
X020380Y021221D01*
X020600Y021053D01*
X020817Y020880D01*
X021028Y020702D01*
X021236Y020519D01*
X021439Y020330D01*
X021637Y020137D01*
X021830Y019939D01*
X022019Y019736D01*
X022202Y019528D01*
X022380Y019317D01*
X022553Y019100D01*
X022721Y018880D01*
X022883Y018656D01*
X023040Y018427D01*
X023191Y018195D01*
X023336Y017960D01*
X023475Y017720D01*
X023609Y017478D01*
X023736Y017232D01*
X023858Y016983D01*
X023973Y016732D01*
X024082Y016477D01*
X024185Y016220D01*
X024282Y015960D01*
X024372Y015699D01*
X024455Y015435D01*
X024532Y015169D01*
X024603Y014901D01*
X024667Y014632D01*
X024724Y014361D01*
X024775Y014089D01*
X024819Y013815D01*
X024856Y013541D01*
X024887Y013266D01*
X024910Y012990D01*
X024927Y012714D01*
X024938Y012437D01*
X024941Y012160D01*
X024938Y011883D01*
X024927Y011606D01*
X024910Y011330D01*
X024887Y011054D01*
X024856Y010779D01*
X024819Y010505D01*
X024775Y010231D01*
X024724Y009959D01*
X024667Y009688D01*
X024603Y009419D01*
X024532Y009151D01*
X024455Y008885D01*
X024372Y008621D01*
X024282Y008360D01*
X024185Y008100D01*
X024082Y007843D01*
X023973Y007588D01*
X023858Y007337D01*
X023736Y007088D01*
X023609Y006842D01*
X023475Y006600D01*
X023336Y006360D01*
X023191Y006125D01*
X023040Y005893D01*
X022883Y005664D01*
X022721Y005440D01*
X022553Y005220D01*
X022380Y005003D01*
X022202Y004792D01*
X022019Y004584D01*
X021830Y004381D01*
X021637Y004183D01*
X021439Y003990D01*
X021236Y003801D01*
X021028Y003618D01*
X020817Y003440D01*
X020600Y003267D01*
X020380Y003099D01*
X020156Y002937D01*
X019927Y002780D01*
X019695Y002629D01*
X019460Y002484D01*
X019220Y002345D01*
X018978Y002211D01*
X018732Y002084D01*
X018483Y001962D01*
X018232Y001847D01*
X017977Y001738D01*
X017720Y001635D01*
X017460Y001538D01*
X017199Y001448D01*
X016935Y001365D01*
X016669Y001288D01*
X016401Y001217D01*
X016132Y001153D01*
X015861Y001096D01*
X015589Y001045D01*
X015315Y001001D01*
X015041Y000964D01*
X014766Y000933D01*
X014490Y000910D01*
X014214Y000893D01*
X013937Y000882D01*
X013660Y000879D01*
X013383Y000882D01*
X013106Y000893D01*
X012830Y000910D01*
X012554Y000933D01*
X012279Y000964D01*
X012005Y001001D01*
X011731Y001045D01*
X011459Y001096D01*
X011188Y001153D01*
X010919Y001217D01*
X010651Y001288D01*
X010385Y001365D01*
X010121Y001448D01*
X009860Y001538D01*
X009600Y001635D01*
X009343Y001738D01*
X009088Y001847D01*
X008837Y001962D01*
X008588Y002084D01*
X008342Y002211D01*
X008100Y002345D01*
X007860Y002484D01*
X007625Y002629D01*
X007393Y002780D01*
X007164Y002937D01*
X006940Y003099D01*
X006720Y003267D01*
X006503Y003440D01*
X006292Y003618D01*
X006084Y003801D01*
X005881Y003990D01*
X005683Y004183D01*
X005490Y004381D01*
X005301Y004584D01*
X005118Y004792D01*
X004940Y005003D01*
X004767Y005220D01*
X004599Y005440D01*
X004437Y005664D01*
X004280Y005893D01*
X004129Y006125D01*
X003984Y006360D01*
X003845Y006600D01*
X003711Y006842D01*
X003584Y007088D01*
X003462Y007337D01*
X003347Y007588D01*
X003238Y007843D01*
X003135Y008100D01*
X003038Y008360D01*
X002948Y008621D01*
X002865Y008885D01*
X002788Y009151D01*
X002717Y009419D01*
X002653Y009688D01*
X002596Y009959D01*
X002545Y010231D01*
X002501Y010505D01*
X002464Y010779D01*
X002433Y011054D01*
X002410Y011330D01*
X002393Y011606D01*
X002382Y011883D01*
X002379Y012160D01*
X012660Y015160D02*
X016910Y015160D01*
X016910Y017910D01*
X012660Y017910D01*
X012660Y015160D01*
M02*
