G75*
%MOIN*%
%OFA0B0*%
%FSLAX24Y24*%
%IPPOS*%
%LPD*%
%AMOC8*
5,1,8,0,0,1.08239X$1,22.5*
%
%ADD10C,0.0051*%
%ADD11C,0.0039*%
%ADD12C,0.0063*%
%ADD13C,0.0620*%
%ADD14C,0.0654*%
%ADD15C,0.0740*%
%ADD16C,0.0047*%
%ADD17C,0.0060*%
%ADD18C,0.0615*%
%ADD19C,0.0320*%
%ADD20C,0.0240*%
%ADD21C,0.0200*%
D10*
X008285Y008870D02*
X008747Y008870D01*
X008285Y008870D02*
X008285Y009450D01*
X008747Y009450D01*
X008747Y008870D01*
X008747Y008918D02*
X008285Y008918D01*
X008285Y008966D02*
X008747Y008966D01*
X008747Y009014D02*
X008285Y009014D01*
X008285Y009062D02*
X008747Y009062D01*
X008747Y009110D02*
X008285Y009110D01*
X008285Y009158D02*
X008747Y009158D01*
X008747Y009206D02*
X008285Y009206D01*
X008285Y009254D02*
X008747Y009254D01*
X008747Y009302D02*
X008285Y009302D01*
X008285Y009350D02*
X008747Y009350D01*
X008747Y009398D02*
X008285Y009398D01*
X008285Y009446D02*
X008747Y009446D01*
X009073Y008870D02*
X009535Y008870D01*
X009073Y008870D02*
X009073Y009450D01*
X009535Y009450D01*
X009535Y008870D01*
X009535Y008918D02*
X009073Y008918D01*
X009073Y008966D02*
X009535Y008966D01*
X009535Y009014D02*
X009073Y009014D01*
X009073Y009062D02*
X009535Y009062D01*
X009535Y009110D02*
X009073Y009110D01*
X009073Y009158D02*
X009535Y009158D01*
X009535Y009206D02*
X009073Y009206D01*
X009073Y009254D02*
X009535Y009254D01*
X009535Y009302D02*
X009073Y009302D01*
X009073Y009350D02*
X009535Y009350D01*
X009535Y009398D02*
X009073Y009398D01*
X009073Y009446D02*
X009535Y009446D01*
X009535Y010370D02*
X009073Y010370D01*
X009073Y010950D01*
X009535Y010950D01*
X009535Y010370D01*
X009535Y010418D02*
X009073Y010418D01*
X009073Y010466D02*
X009535Y010466D01*
X009535Y010514D02*
X009073Y010514D01*
X009073Y010562D02*
X009535Y010562D01*
X009535Y010610D02*
X009073Y010610D01*
X009073Y010658D02*
X009535Y010658D01*
X009535Y010706D02*
X009073Y010706D01*
X009073Y010754D02*
X009535Y010754D01*
X009535Y010802D02*
X009073Y010802D01*
X009073Y010850D02*
X009535Y010850D01*
X009535Y010898D02*
X009073Y010898D01*
X009073Y010946D02*
X009535Y010946D01*
X008747Y010370D02*
X008285Y010370D01*
X008285Y010950D01*
X008747Y010950D01*
X008747Y010370D01*
X008747Y010418D02*
X008285Y010418D01*
X008285Y010466D02*
X008747Y010466D01*
X008747Y010514D02*
X008285Y010514D01*
X008285Y010562D02*
X008747Y010562D01*
X008747Y010610D02*
X008285Y010610D01*
X008285Y010658D02*
X008747Y010658D01*
X008747Y010706D02*
X008285Y010706D01*
X008285Y010754D02*
X008747Y010754D01*
X008747Y010802D02*
X008285Y010802D01*
X008285Y010850D02*
X008747Y010850D01*
X008747Y010898D02*
X008285Y010898D01*
X008285Y010946D02*
X008747Y010946D01*
X008767Y012430D02*
X008305Y012430D01*
X008767Y012430D02*
X008767Y011890D01*
X008305Y011890D01*
X008305Y012430D01*
X008305Y011938D02*
X008767Y011938D01*
X008767Y011986D02*
X008305Y011986D01*
X008305Y012034D02*
X008767Y012034D01*
X008767Y012082D02*
X008305Y012082D01*
X008305Y012130D02*
X008767Y012130D01*
X008767Y012178D02*
X008305Y012178D01*
X008305Y012226D02*
X008767Y012226D01*
X008767Y012274D02*
X008305Y012274D01*
X008305Y012322D02*
X008767Y012322D01*
X008767Y012370D02*
X008305Y012370D01*
X008305Y012418D02*
X008767Y012418D01*
X009053Y012430D02*
X009515Y012430D01*
X009515Y011890D01*
X009053Y011890D01*
X009053Y012430D01*
X009053Y011938D02*
X009515Y011938D01*
X009515Y011986D02*
X009053Y011986D01*
X009053Y012034D02*
X009515Y012034D01*
X009515Y012082D02*
X009053Y012082D01*
X009053Y012130D02*
X009515Y012130D01*
X009515Y012178D02*
X009053Y012178D01*
X009053Y012226D02*
X009515Y012226D01*
X009515Y012274D02*
X009053Y012274D01*
X009053Y012322D02*
X009515Y012322D01*
X009515Y012370D02*
X009053Y012370D01*
X009053Y012418D02*
X009515Y012418D01*
D11*
X008567Y016088D02*
X008567Y016444D01*
X010339Y016444D01*
X010339Y016088D01*
X008567Y016088D01*
X008567Y016125D02*
X010339Y016125D01*
X010339Y016162D02*
X008567Y016162D01*
X008567Y016199D02*
X010339Y016199D01*
X010339Y016236D02*
X008567Y016236D01*
X008567Y016273D02*
X010339Y016273D01*
X010339Y016310D02*
X008567Y016310D01*
X008567Y016347D02*
X010339Y016347D01*
X010339Y016384D02*
X008567Y016384D01*
X008567Y016421D02*
X010339Y016421D01*
X008567Y016876D02*
X008567Y017232D01*
X010339Y017232D01*
X010339Y016876D01*
X008567Y016876D01*
X008567Y016913D02*
X010339Y016913D01*
X010339Y016950D02*
X008567Y016950D01*
X008567Y016987D02*
X010339Y016987D01*
X010339Y017024D02*
X008567Y017024D01*
X008567Y017061D02*
X010339Y017061D01*
X010339Y017098D02*
X008567Y017098D01*
X008567Y017135D02*
X010339Y017135D01*
X010339Y017172D02*
X008567Y017172D01*
X008567Y017209D02*
X010339Y017209D01*
D12*
X010863Y017715D02*
X012139Y017715D01*
X010863Y017715D02*
X010863Y018283D01*
X012139Y018283D01*
X012139Y017715D01*
X012139Y017775D02*
X010863Y017775D01*
X010863Y017835D02*
X012139Y017835D01*
X012139Y017895D02*
X010863Y017895D01*
X010863Y017955D02*
X012139Y017955D01*
X012139Y018015D02*
X010863Y018015D01*
X010863Y018075D02*
X012139Y018075D01*
X012139Y018135D02*
X010863Y018135D01*
X010863Y018195D02*
X012139Y018195D01*
X012139Y018255D02*
X010863Y018255D01*
X010863Y015037D02*
X012139Y015037D01*
X010863Y015037D02*
X010863Y015605D01*
X012139Y015605D01*
X012139Y015037D01*
X012139Y015097D02*
X010863Y015097D01*
X010863Y015157D02*
X012139Y015157D01*
X012139Y015217D02*
X010863Y015217D01*
X010863Y015277D02*
X012139Y015277D01*
X012139Y015337D02*
X010863Y015337D01*
X010863Y015397D02*
X012139Y015397D01*
X012139Y015457D02*
X010863Y015457D01*
X010863Y015517D02*
X012139Y015517D01*
X012139Y015577D02*
X010863Y015577D01*
D13*
X011160Y013065D02*
X011160Y012755D01*
X012160Y012755D02*
X012160Y013065D01*
X013160Y013065D02*
X013160Y012755D01*
X014160Y012755D02*
X014160Y013065D01*
X015160Y013065D02*
X015160Y012755D01*
X016160Y012755D02*
X016160Y013065D01*
X017160Y013065D02*
X017160Y012755D01*
X017160Y010065D02*
X017160Y009755D01*
X016160Y009755D02*
X016160Y010065D01*
X015160Y010065D02*
X015160Y009755D01*
X014160Y009755D02*
X014160Y010065D01*
X013160Y010065D02*
X013160Y009755D01*
X012160Y009755D02*
X012160Y010065D01*
X011160Y010065D02*
X011160Y009755D01*
D14*
X016410Y006660D03*
X016410Y005660D03*
X017410Y005660D03*
X018410Y005660D03*
X018410Y006660D03*
X017410Y006660D03*
D15*
X014660Y021660D03*
X013660Y021660D03*
X012660Y021660D03*
D16*
X011093Y021023D02*
X010353Y021023D01*
X011093Y021023D02*
X011093Y020597D01*
X010353Y020597D01*
X010353Y021023D01*
X010353Y020642D02*
X011093Y020642D01*
X011093Y020687D02*
X010353Y020687D01*
X010353Y020732D02*
X011093Y020732D01*
X011093Y020777D02*
X010353Y020777D01*
X010353Y020822D02*
X011093Y020822D01*
X011093Y020867D02*
X010353Y020867D01*
X010353Y020912D02*
X011093Y020912D01*
X011093Y020957D02*
X010353Y020957D01*
X010353Y021002D02*
X011093Y021002D01*
X011093Y019723D02*
X010353Y019723D01*
X011093Y019723D02*
X011093Y019297D01*
X010353Y019297D01*
X010353Y019723D01*
X010353Y019342D02*
X011093Y019342D01*
X011093Y019387D02*
X010353Y019387D01*
X010353Y019432D02*
X011093Y019432D01*
X011093Y019477D02*
X010353Y019477D01*
X010353Y019522D02*
X011093Y019522D01*
X011093Y019567D02*
X010353Y019567D01*
X010353Y019612D02*
X011093Y019612D01*
X011093Y019657D02*
X010353Y019657D01*
X010353Y019702D02*
X011093Y019702D01*
X008967Y019723D02*
X008227Y019723D01*
X008967Y019723D02*
X008967Y019297D01*
X008227Y019297D01*
X008227Y019723D01*
X008227Y019342D02*
X008967Y019342D01*
X008967Y019387D02*
X008227Y019387D01*
X008227Y019432D02*
X008967Y019432D01*
X008967Y019477D02*
X008227Y019477D01*
X008227Y019522D02*
X008967Y019522D01*
X008967Y019567D02*
X008227Y019567D01*
X008227Y019612D02*
X008967Y019612D01*
X008967Y019657D02*
X008227Y019657D01*
X008227Y019702D02*
X008967Y019702D01*
X008967Y021023D02*
X008227Y021023D01*
X008967Y021023D02*
X008967Y020597D01*
X008227Y020597D01*
X008227Y021023D01*
X008227Y020642D02*
X008967Y020642D01*
X008967Y020687D02*
X008227Y020687D01*
X008227Y020732D02*
X008967Y020732D01*
X008967Y020777D02*
X008227Y020777D01*
X008227Y020822D02*
X008967Y020822D01*
X008967Y020867D02*
X008227Y020867D01*
X008227Y020912D02*
X008967Y020912D01*
X008967Y020957D02*
X008227Y020957D01*
X008227Y021002D02*
X008967Y021002D01*
X006847Y015843D02*
X006847Y015103D01*
X006847Y015843D02*
X007273Y015843D01*
X007273Y015103D01*
X006847Y015103D01*
X006847Y015148D02*
X007273Y015148D01*
X007273Y015193D02*
X006847Y015193D01*
X006847Y015238D02*
X007273Y015238D01*
X007273Y015283D02*
X006847Y015283D01*
X006847Y015328D02*
X007273Y015328D01*
X007273Y015373D02*
X006847Y015373D01*
X006847Y015418D02*
X007273Y015418D01*
X007273Y015463D02*
X006847Y015463D01*
X006847Y015508D02*
X007273Y015508D01*
X007273Y015553D02*
X006847Y015553D01*
X006847Y015598D02*
X007273Y015598D01*
X007273Y015643D02*
X006847Y015643D01*
X006847Y015688D02*
X007273Y015688D01*
X007273Y015733D02*
X006847Y015733D01*
X006847Y015778D02*
X007273Y015778D01*
X007273Y015823D02*
X006847Y015823D01*
X005547Y015843D02*
X005547Y015103D01*
X005547Y015843D02*
X005973Y015843D01*
X005973Y015103D01*
X005547Y015103D01*
X005547Y015148D02*
X005973Y015148D01*
X005973Y015193D02*
X005547Y015193D01*
X005547Y015238D02*
X005973Y015238D01*
X005973Y015283D02*
X005547Y015283D01*
X005547Y015328D02*
X005973Y015328D01*
X005973Y015373D02*
X005547Y015373D01*
X005547Y015418D02*
X005973Y015418D01*
X005973Y015463D02*
X005547Y015463D01*
X005547Y015508D02*
X005973Y015508D01*
X005973Y015553D02*
X005547Y015553D01*
X005547Y015598D02*
X005973Y015598D01*
X005973Y015643D02*
X005547Y015643D01*
X005547Y015688D02*
X005973Y015688D01*
X005973Y015733D02*
X005547Y015733D01*
X005547Y015778D02*
X005973Y015778D01*
X005973Y015823D02*
X005547Y015823D01*
X005547Y013717D02*
X005547Y012977D01*
X005547Y013717D02*
X005973Y013717D01*
X005973Y012977D01*
X005547Y012977D01*
X005547Y013022D02*
X005973Y013022D01*
X005973Y013067D02*
X005547Y013067D01*
X005547Y013112D02*
X005973Y013112D01*
X005973Y013157D02*
X005547Y013157D01*
X005547Y013202D02*
X005973Y013202D01*
X005973Y013247D02*
X005547Y013247D01*
X005547Y013292D02*
X005973Y013292D01*
X005973Y013337D02*
X005547Y013337D01*
X005547Y013382D02*
X005973Y013382D01*
X005973Y013427D02*
X005547Y013427D01*
X005547Y013472D02*
X005973Y013472D01*
X005973Y013517D02*
X005547Y013517D01*
X005547Y013562D02*
X005973Y013562D01*
X005973Y013607D02*
X005547Y013607D01*
X005547Y013652D02*
X005973Y013652D01*
X005973Y013697D02*
X005547Y013697D01*
X006847Y013717D02*
X006847Y012977D01*
X006847Y013717D02*
X007273Y013717D01*
X007273Y012977D01*
X006847Y012977D01*
X006847Y013022D02*
X007273Y013022D01*
X007273Y013067D02*
X006847Y013067D01*
X006847Y013112D02*
X007273Y013112D01*
X007273Y013157D02*
X006847Y013157D01*
X006847Y013202D02*
X007273Y013202D01*
X007273Y013247D02*
X006847Y013247D01*
X006847Y013292D02*
X007273Y013292D01*
X007273Y013337D02*
X006847Y013337D01*
X006847Y013382D02*
X007273Y013382D01*
X007273Y013427D02*
X006847Y013427D01*
X006847Y013472D02*
X007273Y013472D01*
X007273Y013517D02*
X006847Y013517D01*
X006847Y013562D02*
X007273Y013562D01*
X007273Y013607D02*
X006847Y013607D01*
X006847Y013652D02*
X007273Y013652D01*
X007273Y013697D02*
X006847Y013697D01*
X007273Y009343D02*
X007273Y008603D01*
X006847Y008603D01*
X006847Y009343D01*
X007273Y009343D01*
X007273Y008648D02*
X006847Y008648D01*
X006847Y008693D02*
X007273Y008693D01*
X007273Y008738D02*
X006847Y008738D01*
X006847Y008783D02*
X007273Y008783D01*
X007273Y008828D02*
X006847Y008828D01*
X006847Y008873D02*
X007273Y008873D01*
X007273Y008918D02*
X006847Y008918D01*
X006847Y008963D02*
X007273Y008963D01*
X007273Y009008D02*
X006847Y009008D01*
X006847Y009053D02*
X007273Y009053D01*
X007273Y009098D02*
X006847Y009098D01*
X006847Y009143D02*
X007273Y009143D01*
X007273Y009188D02*
X006847Y009188D01*
X006847Y009233D02*
X007273Y009233D01*
X007273Y009278D02*
X006847Y009278D01*
X006847Y009323D02*
X007273Y009323D01*
X005973Y009343D02*
X005973Y008603D01*
X005547Y008603D01*
X005547Y009343D01*
X005973Y009343D01*
X005973Y008648D02*
X005547Y008648D01*
X005547Y008693D02*
X005973Y008693D01*
X005973Y008738D02*
X005547Y008738D01*
X005547Y008783D02*
X005973Y008783D01*
X005973Y008828D02*
X005547Y008828D01*
X005547Y008873D02*
X005973Y008873D01*
X005973Y008918D02*
X005547Y008918D01*
X005547Y008963D02*
X005973Y008963D01*
X005973Y009008D02*
X005547Y009008D01*
X005547Y009053D02*
X005973Y009053D01*
X005973Y009098D02*
X005547Y009098D01*
X005547Y009143D02*
X005973Y009143D01*
X005973Y009188D02*
X005547Y009188D01*
X005547Y009233D02*
X005973Y009233D01*
X005973Y009278D02*
X005547Y009278D01*
X005547Y009323D02*
X005973Y009323D01*
X005973Y007217D02*
X005973Y006477D01*
X005547Y006477D01*
X005547Y007217D01*
X005973Y007217D01*
X005973Y006522D02*
X005547Y006522D01*
X005547Y006567D02*
X005973Y006567D01*
X005973Y006612D02*
X005547Y006612D01*
X005547Y006657D02*
X005973Y006657D01*
X005973Y006702D02*
X005547Y006702D01*
X005547Y006747D02*
X005973Y006747D01*
X005973Y006792D02*
X005547Y006792D01*
X005547Y006837D02*
X005973Y006837D01*
X005973Y006882D02*
X005547Y006882D01*
X005547Y006927D02*
X005973Y006927D01*
X005973Y006972D02*
X005547Y006972D01*
X005547Y007017D02*
X005973Y007017D01*
X005973Y007062D02*
X005547Y007062D01*
X005547Y007107D02*
X005973Y007107D01*
X005973Y007152D02*
X005547Y007152D01*
X005547Y007197D02*
X005973Y007197D01*
X007273Y007217D02*
X007273Y006477D01*
X006847Y006477D01*
X006847Y007217D01*
X007273Y007217D01*
X007273Y006522D02*
X006847Y006522D01*
X006847Y006567D02*
X007273Y006567D01*
X007273Y006612D02*
X006847Y006612D01*
X006847Y006657D02*
X007273Y006657D01*
X007273Y006702D02*
X006847Y006702D01*
X006847Y006747D02*
X007273Y006747D01*
X007273Y006792D02*
X006847Y006792D01*
X006847Y006837D02*
X007273Y006837D01*
X007273Y006882D02*
X006847Y006882D01*
X006847Y006927D02*
X007273Y006927D01*
X007273Y006972D02*
X006847Y006972D01*
X006847Y007017D02*
X007273Y007017D01*
X007273Y007062D02*
X006847Y007062D01*
X006847Y007107D02*
X007273Y007107D01*
X007273Y007152D02*
X006847Y007152D01*
X006847Y007197D02*
X007273Y007197D01*
X012227Y003597D02*
X012967Y003597D01*
X012227Y003597D02*
X012227Y004023D01*
X012967Y004023D01*
X012967Y003597D01*
X012967Y003642D02*
X012227Y003642D01*
X012227Y003687D02*
X012967Y003687D01*
X012967Y003732D02*
X012227Y003732D01*
X012227Y003777D02*
X012967Y003777D01*
X012967Y003822D02*
X012227Y003822D01*
X012227Y003867D02*
X012967Y003867D01*
X012967Y003912D02*
X012227Y003912D01*
X012227Y003957D02*
X012967Y003957D01*
X012967Y004002D02*
X012227Y004002D01*
X012227Y002297D02*
X012967Y002297D01*
X012227Y002297D02*
X012227Y002723D01*
X012967Y002723D01*
X012967Y002297D01*
X012967Y002342D02*
X012227Y002342D01*
X012227Y002387D02*
X012967Y002387D01*
X012967Y002432D02*
X012227Y002432D01*
X012227Y002477D02*
X012967Y002477D01*
X012967Y002522D02*
X012227Y002522D01*
X012227Y002567D02*
X012967Y002567D01*
X012967Y002612D02*
X012227Y002612D01*
X012227Y002657D02*
X012967Y002657D01*
X012967Y002702D02*
X012227Y002702D01*
X014353Y002297D02*
X015093Y002297D01*
X014353Y002297D02*
X014353Y002723D01*
X015093Y002723D01*
X015093Y002297D01*
X015093Y002342D02*
X014353Y002342D01*
X014353Y002387D02*
X015093Y002387D01*
X015093Y002432D02*
X014353Y002432D01*
X014353Y002477D02*
X015093Y002477D01*
X015093Y002522D02*
X014353Y002522D01*
X014353Y002567D02*
X015093Y002567D01*
X015093Y002612D02*
X014353Y002612D01*
X014353Y002657D02*
X015093Y002657D01*
X015093Y002702D02*
X014353Y002702D01*
X014353Y003597D02*
X015093Y003597D01*
X014353Y003597D02*
X014353Y004023D01*
X015093Y004023D01*
X015093Y003597D01*
X015093Y003642D02*
X014353Y003642D01*
X014353Y003687D02*
X015093Y003687D01*
X015093Y003732D02*
X014353Y003732D01*
X014353Y003777D02*
X015093Y003777D01*
X015093Y003822D02*
X014353Y003822D01*
X014353Y003867D02*
X015093Y003867D01*
X015093Y003912D02*
X014353Y003912D01*
X014353Y003957D02*
X015093Y003957D01*
X015093Y004002D02*
X014353Y004002D01*
X020973Y006477D02*
X020973Y007217D01*
X020973Y006477D02*
X020547Y006477D01*
X020547Y007217D01*
X020973Y007217D01*
X020973Y006522D02*
X020547Y006522D01*
X020547Y006567D02*
X020973Y006567D01*
X020973Y006612D02*
X020547Y006612D01*
X020547Y006657D02*
X020973Y006657D01*
X020973Y006702D02*
X020547Y006702D01*
X020547Y006747D02*
X020973Y006747D01*
X020973Y006792D02*
X020547Y006792D01*
X020547Y006837D02*
X020973Y006837D01*
X020973Y006882D02*
X020547Y006882D01*
X020547Y006927D02*
X020973Y006927D01*
X020973Y006972D02*
X020547Y006972D01*
X020547Y007017D02*
X020973Y007017D01*
X020973Y007062D02*
X020547Y007062D01*
X020547Y007107D02*
X020973Y007107D01*
X020973Y007152D02*
X020547Y007152D01*
X020547Y007197D02*
X020973Y007197D01*
X022273Y007217D02*
X022273Y006477D01*
X021847Y006477D01*
X021847Y007217D01*
X022273Y007217D01*
X022273Y006522D02*
X021847Y006522D01*
X021847Y006567D02*
X022273Y006567D01*
X022273Y006612D02*
X021847Y006612D01*
X021847Y006657D02*
X022273Y006657D01*
X022273Y006702D02*
X021847Y006702D01*
X021847Y006747D02*
X022273Y006747D01*
X022273Y006792D02*
X021847Y006792D01*
X021847Y006837D02*
X022273Y006837D01*
X022273Y006882D02*
X021847Y006882D01*
X021847Y006927D02*
X022273Y006927D01*
X022273Y006972D02*
X021847Y006972D01*
X021847Y007017D02*
X022273Y007017D01*
X022273Y007062D02*
X021847Y007062D01*
X021847Y007107D02*
X022273Y007107D01*
X022273Y007152D02*
X021847Y007152D01*
X021847Y007197D02*
X022273Y007197D01*
X022273Y008603D02*
X022273Y009343D01*
X022273Y008603D02*
X021847Y008603D01*
X021847Y009343D01*
X022273Y009343D01*
X022273Y008648D02*
X021847Y008648D01*
X021847Y008693D02*
X022273Y008693D01*
X022273Y008738D02*
X021847Y008738D01*
X021847Y008783D02*
X022273Y008783D01*
X022273Y008828D02*
X021847Y008828D01*
X021847Y008873D02*
X022273Y008873D01*
X022273Y008918D02*
X021847Y008918D01*
X021847Y008963D02*
X022273Y008963D01*
X022273Y009008D02*
X021847Y009008D01*
X021847Y009053D02*
X022273Y009053D01*
X022273Y009098D02*
X021847Y009098D01*
X021847Y009143D02*
X022273Y009143D01*
X022273Y009188D02*
X021847Y009188D01*
X021847Y009233D02*
X022273Y009233D01*
X022273Y009278D02*
X021847Y009278D01*
X021847Y009323D02*
X022273Y009323D01*
X020973Y009343D02*
X020973Y008603D01*
X020547Y008603D01*
X020547Y009343D01*
X020973Y009343D01*
X020973Y008648D02*
X020547Y008648D01*
X020547Y008693D02*
X020973Y008693D01*
X020973Y008738D02*
X020547Y008738D01*
X020547Y008783D02*
X020973Y008783D01*
X020973Y008828D02*
X020547Y008828D01*
X020547Y008873D02*
X020973Y008873D01*
X020973Y008918D02*
X020547Y008918D01*
X020547Y008963D02*
X020973Y008963D01*
X020973Y009008D02*
X020547Y009008D01*
X020547Y009053D02*
X020973Y009053D01*
X020973Y009098D02*
X020547Y009098D01*
X020547Y009143D02*
X020973Y009143D01*
X020973Y009188D02*
X020547Y009188D01*
X020547Y009233D02*
X020973Y009233D01*
X020973Y009278D02*
X020547Y009278D01*
X020547Y009323D02*
X020973Y009323D01*
X020973Y013477D02*
X020973Y014217D01*
X020973Y013477D02*
X020547Y013477D01*
X020547Y014217D01*
X020973Y014217D01*
X020973Y013522D02*
X020547Y013522D01*
X020547Y013567D02*
X020973Y013567D01*
X020973Y013612D02*
X020547Y013612D01*
X020547Y013657D02*
X020973Y013657D01*
X020973Y013702D02*
X020547Y013702D01*
X020547Y013747D02*
X020973Y013747D01*
X020973Y013792D02*
X020547Y013792D01*
X020547Y013837D02*
X020973Y013837D01*
X020973Y013882D02*
X020547Y013882D01*
X020547Y013927D02*
X020973Y013927D01*
X020973Y013972D02*
X020547Y013972D01*
X020547Y014017D02*
X020973Y014017D01*
X020973Y014062D02*
X020547Y014062D01*
X020547Y014107D02*
X020973Y014107D01*
X020973Y014152D02*
X020547Y014152D01*
X020547Y014197D02*
X020973Y014197D01*
X022273Y014217D02*
X022273Y013477D01*
X021847Y013477D01*
X021847Y014217D01*
X022273Y014217D01*
X022273Y013522D02*
X021847Y013522D01*
X021847Y013567D02*
X022273Y013567D01*
X022273Y013612D02*
X021847Y013612D01*
X021847Y013657D02*
X022273Y013657D01*
X022273Y013702D02*
X021847Y013702D01*
X021847Y013747D02*
X022273Y013747D01*
X022273Y013792D02*
X021847Y013792D01*
X021847Y013837D02*
X022273Y013837D01*
X022273Y013882D02*
X021847Y013882D01*
X021847Y013927D02*
X022273Y013927D01*
X022273Y013972D02*
X021847Y013972D01*
X021847Y014017D02*
X022273Y014017D01*
X022273Y014062D02*
X021847Y014062D01*
X021847Y014107D02*
X022273Y014107D01*
X022273Y014152D02*
X021847Y014152D01*
X021847Y014197D02*
X022273Y014197D01*
X022273Y015603D02*
X022273Y016343D01*
X022273Y015603D02*
X021847Y015603D01*
X021847Y016343D01*
X022273Y016343D01*
X022273Y015648D02*
X021847Y015648D01*
X021847Y015693D02*
X022273Y015693D01*
X022273Y015738D02*
X021847Y015738D01*
X021847Y015783D02*
X022273Y015783D01*
X022273Y015828D02*
X021847Y015828D01*
X021847Y015873D02*
X022273Y015873D01*
X022273Y015918D02*
X021847Y015918D01*
X021847Y015963D02*
X022273Y015963D01*
X022273Y016008D02*
X021847Y016008D01*
X021847Y016053D02*
X022273Y016053D01*
X022273Y016098D02*
X021847Y016098D01*
X021847Y016143D02*
X022273Y016143D01*
X022273Y016188D02*
X021847Y016188D01*
X021847Y016233D02*
X022273Y016233D01*
X022273Y016278D02*
X021847Y016278D01*
X021847Y016323D02*
X022273Y016323D01*
X020973Y016343D02*
X020973Y015603D01*
X020547Y015603D01*
X020547Y016343D01*
X020973Y016343D01*
X020973Y015648D02*
X020547Y015648D01*
X020547Y015693D02*
X020973Y015693D01*
X020973Y015738D02*
X020547Y015738D01*
X020547Y015783D02*
X020973Y015783D01*
X020973Y015828D02*
X020547Y015828D01*
X020547Y015873D02*
X020973Y015873D01*
X020973Y015918D02*
X020547Y015918D01*
X020547Y015963D02*
X020973Y015963D01*
X020973Y016008D02*
X020547Y016008D01*
X020547Y016053D02*
X020973Y016053D01*
X020973Y016098D02*
X020547Y016098D01*
X020547Y016143D02*
X020973Y016143D01*
X020973Y016188D02*
X020547Y016188D01*
X020547Y016233D02*
X020973Y016233D01*
X020973Y016278D02*
X020547Y016278D01*
X020547Y016323D02*
X020973Y016323D01*
X019343Y019723D02*
X018603Y019723D01*
X019343Y019723D02*
X019343Y019297D01*
X018603Y019297D01*
X018603Y019723D01*
X018603Y019342D02*
X019343Y019342D01*
X019343Y019387D02*
X018603Y019387D01*
X018603Y019432D02*
X019343Y019432D01*
X019343Y019477D02*
X018603Y019477D01*
X018603Y019522D02*
X019343Y019522D01*
X019343Y019567D02*
X018603Y019567D01*
X018603Y019612D02*
X019343Y019612D01*
X019343Y019657D02*
X018603Y019657D01*
X018603Y019702D02*
X019343Y019702D01*
X019343Y021023D02*
X018603Y021023D01*
X019343Y021023D02*
X019343Y020597D01*
X018603Y020597D01*
X018603Y021023D01*
X018603Y020642D02*
X019343Y020642D01*
X019343Y020687D02*
X018603Y020687D01*
X018603Y020732D02*
X019343Y020732D01*
X019343Y020777D02*
X018603Y020777D01*
X018603Y020822D02*
X019343Y020822D01*
X019343Y020867D02*
X018603Y020867D01*
X018603Y020912D02*
X019343Y020912D01*
X019343Y020957D02*
X018603Y020957D01*
X018603Y021002D02*
X019343Y021002D01*
X017217Y021023D02*
X016477Y021023D01*
X017217Y021023D02*
X017217Y020597D01*
X016477Y020597D01*
X016477Y021023D01*
X016477Y020642D02*
X017217Y020642D01*
X017217Y020687D02*
X016477Y020687D01*
X016477Y020732D02*
X017217Y020732D01*
X017217Y020777D02*
X016477Y020777D01*
X016477Y020822D02*
X017217Y020822D01*
X017217Y020867D02*
X016477Y020867D01*
X016477Y020912D02*
X017217Y020912D01*
X017217Y020957D02*
X016477Y020957D01*
X016477Y021002D02*
X017217Y021002D01*
X017217Y019723D02*
X016477Y019723D01*
X017217Y019723D02*
X017217Y019297D01*
X016477Y019297D01*
X016477Y019723D01*
X016477Y019342D02*
X017217Y019342D01*
X017217Y019387D02*
X016477Y019387D01*
X016477Y019432D02*
X017217Y019432D01*
X017217Y019477D02*
X016477Y019477D01*
X016477Y019522D02*
X017217Y019522D01*
X017217Y019567D02*
X016477Y019567D01*
X016477Y019612D02*
X017217Y019612D01*
X017217Y019657D02*
X016477Y019657D01*
X016477Y019702D02*
X017217Y019702D01*
D17*
X000910Y024160D02*
X000910Y000660D01*
X024910Y000660D01*
X024910Y024160D01*
X000910Y024160D01*
X000910Y024153D02*
X024910Y024153D01*
X024910Y024094D02*
X000910Y024094D01*
X000910Y024036D02*
X024910Y024036D01*
X024910Y023977D02*
X000910Y023977D01*
X000910Y023919D02*
X024910Y023919D01*
X024910Y023860D02*
X000910Y023860D01*
X000910Y023802D02*
X024910Y023802D01*
X024910Y023743D02*
X000910Y023743D01*
X000910Y023685D02*
X024910Y023685D01*
X024910Y023626D02*
X000910Y023626D01*
X000910Y023568D02*
X024910Y023568D01*
X024910Y023509D02*
X000910Y023509D01*
X000910Y023451D02*
X024910Y023451D01*
X024910Y023392D02*
X000910Y023392D01*
X000910Y023334D02*
X024910Y023334D01*
X024910Y023275D02*
X000910Y023275D01*
X000910Y023217D02*
X024910Y023217D01*
X024910Y023158D02*
X000910Y023158D01*
X000910Y023100D02*
X024910Y023100D01*
X024910Y023041D02*
X000910Y023041D01*
X000910Y022983D02*
X024910Y022983D01*
X024910Y022924D02*
X000910Y022924D01*
X000910Y022866D02*
X024910Y022866D01*
X024910Y022807D02*
X000910Y022807D01*
X000910Y022749D02*
X024910Y022749D01*
X024910Y022690D02*
X000910Y022690D01*
X000910Y022632D02*
X024910Y022632D01*
X024910Y022573D02*
X000910Y022573D01*
X000910Y022515D02*
X024910Y022515D01*
X024910Y022456D02*
X000910Y022456D01*
X000910Y022398D02*
X024910Y022398D01*
X024910Y022339D02*
X014883Y022339D01*
X014802Y022373D02*
X015064Y022264D01*
X015264Y022064D01*
X015373Y021802D01*
X015373Y021518D01*
X015264Y021256D01*
X015064Y021056D01*
X014802Y020947D01*
X014777Y020947D01*
X015751Y019973D01*
X016209Y019973D01*
X016269Y020033D01*
X016404Y020089D01*
X017290Y020089D01*
X017425Y020033D01*
X017528Y019930D01*
X017583Y019796D01*
X017583Y019225D01*
X017541Y019123D01*
X017931Y019123D01*
X018237Y019428D01*
X018237Y019796D01*
X018292Y019930D01*
X018395Y020033D01*
X018530Y020089D01*
X019416Y020089D01*
X019551Y020033D01*
X019654Y019930D01*
X019709Y019796D01*
X019709Y019225D01*
X019654Y019090D01*
X019551Y018987D01*
X019416Y018932D01*
X019048Y018932D01*
X018623Y018506D01*
X018623Y016639D01*
X020678Y014583D01*
X021046Y014583D01*
X021180Y014528D01*
X021283Y014425D01*
X021339Y014290D01*
X021339Y013404D01*
X021283Y013269D01*
X021180Y013166D01*
X021046Y013111D01*
X020475Y013111D01*
X020340Y013166D01*
X020237Y013269D01*
X020182Y013404D01*
X020182Y013772D01*
X017898Y016055D01*
X017898Y016055D01*
X017768Y016185D01*
X017697Y016355D01*
X017697Y018197D01*
X013481Y018197D01*
X013311Y018268D01*
X013181Y018398D01*
X012531Y019048D01*
X011361Y019048D01*
X011301Y018987D01*
X011166Y018932D01*
X010798Y018932D01*
X010265Y018398D01*
X010135Y018268D01*
X009965Y018197D01*
X007852Y018197D01*
X007623Y017968D01*
X007623Y017617D01*
X007711Y017528D01*
X007810Y017289D01*
X007810Y017031D01*
X007711Y016792D01*
X007623Y016703D01*
X007623Y016623D01*
X008250Y016623D01*
X008260Y016649D01*
X008362Y016751D01*
X008447Y016786D01*
X008428Y016819D01*
X008418Y016857D01*
X008418Y017024D01*
X009423Y017024D01*
X009423Y017084D01*
X008418Y017084D01*
X008418Y017251D01*
X008428Y017289D01*
X008448Y017323D01*
X008476Y017351D01*
X008510Y017370D01*
X008548Y017381D01*
X009423Y017381D01*
X009423Y017084D01*
X009483Y017084D01*
X009483Y017381D01*
X010359Y017381D01*
X010397Y017370D01*
X010431Y017351D01*
X010459Y017323D01*
X010479Y017289D01*
X010489Y017251D01*
X010489Y017084D01*
X009483Y017084D01*
X009483Y017024D01*
X010489Y017024D01*
X010489Y016857D01*
X010479Y016819D01*
X010460Y016786D01*
X010544Y016751D01*
X010646Y016649D01*
X010701Y016516D01*
X010701Y016017D01*
X010664Y015928D01*
X010788Y015979D01*
X012213Y015979D01*
X012350Y015922D01*
X012455Y015817D01*
X012512Y015679D01*
X012512Y014964D01*
X012455Y014826D01*
X012350Y014721D01*
X012213Y014664D01*
X010788Y014664D01*
X010651Y014721D01*
X010546Y014826D01*
X010489Y014964D01*
X010489Y015679D01*
X010528Y015775D01*
X010411Y015727D01*
X008760Y015727D01*
X008689Y015697D01*
X007638Y015697D01*
X007638Y015030D01*
X007583Y014895D01*
X007480Y014792D01*
X007345Y014737D01*
X006774Y014737D01*
X006640Y014792D01*
X006537Y014895D01*
X006481Y015030D01*
X006481Y015916D01*
X006537Y016051D01*
X006557Y016071D01*
X006557Y016160D01*
X006634Y016344D01*
X006697Y016408D01*
X006697Y016703D01*
X006609Y016792D01*
X006510Y017031D01*
X006510Y017289D01*
X006609Y017528D01*
X006697Y017617D01*
X006697Y018252D01*
X006727Y018322D01*
X006223Y017819D01*
X006223Y016111D01*
X006283Y016051D01*
X006339Y015916D01*
X006339Y015030D01*
X006283Y014895D01*
X006180Y014792D01*
X006046Y014737D01*
X005475Y014737D01*
X005340Y014792D01*
X005237Y014895D01*
X005182Y015030D01*
X005182Y015916D01*
X005237Y016051D01*
X005298Y016111D01*
X005298Y018102D01*
X005368Y018272D01*
X006998Y019903D01*
X007168Y019973D01*
X007959Y019973D01*
X008019Y020033D01*
X008154Y020089D01*
X009040Y020089D01*
X009175Y020033D01*
X009278Y019930D01*
X009333Y019796D01*
X009333Y019225D01*
X009291Y019123D01*
X009681Y019123D01*
X009987Y019428D01*
X009987Y019796D01*
X010042Y019930D01*
X010145Y020033D01*
X010280Y020089D01*
X011166Y020089D01*
X011301Y020033D01*
X011361Y019973D01*
X012815Y019973D01*
X012985Y019903D01*
X013115Y019772D01*
X013765Y019123D01*
X015293Y019123D01*
X014069Y020347D01*
X011361Y020347D01*
X011301Y020287D01*
X011166Y020231D01*
X010280Y020231D01*
X010145Y020287D01*
X010042Y020390D01*
X009987Y020524D01*
X009987Y021095D01*
X010042Y021230D01*
X010145Y021333D01*
X010280Y021388D01*
X011166Y021388D01*
X011301Y021333D01*
X011361Y021272D01*
X012049Y021272D01*
X011947Y021518D01*
X011947Y021802D01*
X012056Y022064D01*
X012256Y022264D01*
X012518Y022373D01*
X012802Y022373D01*
X013064Y022264D01*
X013264Y022064D01*
X013291Y021998D01*
X013334Y022041D01*
X013398Y022088D01*
X013468Y022123D01*
X013543Y022148D01*
X013621Y022160D01*
X013630Y022160D01*
X013630Y021690D01*
X013690Y021690D01*
X013690Y022160D01*
X013699Y022160D01*
X013777Y022148D01*
X013852Y022123D01*
X013922Y022088D01*
X013986Y022041D01*
X014029Y021998D01*
X014056Y022064D01*
X014256Y022264D01*
X014518Y022373D01*
X014802Y022373D01*
X015024Y022281D02*
X024910Y022281D01*
X024910Y022222D02*
X015106Y022222D01*
X015164Y022164D02*
X024910Y022164D01*
X024910Y022105D02*
X015223Y022105D01*
X015271Y022047D02*
X024910Y022047D01*
X024910Y021988D02*
X015295Y021988D01*
X015320Y021930D02*
X024910Y021930D01*
X024910Y021871D02*
X015344Y021871D01*
X015368Y021813D02*
X024910Y021813D01*
X024910Y021754D02*
X015373Y021754D01*
X015373Y021696D02*
X024910Y021696D01*
X024910Y021637D02*
X015373Y021637D01*
X015373Y021579D02*
X024910Y021579D01*
X024910Y021520D02*
X015373Y021520D01*
X015349Y021462D02*
X024910Y021462D01*
X024910Y021403D02*
X015325Y021403D01*
X015301Y021345D02*
X018424Y021345D01*
X018395Y021333D02*
X018530Y021388D01*
X019416Y021388D01*
X019551Y021333D01*
X019617Y021266D01*
X019772Y021202D01*
X021153Y019822D01*
X021223Y019652D01*
X021223Y016611D01*
X021283Y016551D01*
X021339Y016416D01*
X021339Y015530D01*
X021283Y015395D01*
X021180Y015292D01*
X021046Y015237D01*
X020475Y015237D01*
X020340Y015292D01*
X020237Y015395D01*
X020182Y015530D01*
X020182Y016416D01*
X020237Y016551D01*
X020298Y016611D01*
X020298Y019368D01*
X019429Y020236D01*
X019416Y020231D01*
X018530Y020231D01*
X018395Y020287D01*
X018292Y020390D01*
X018237Y020524D01*
X018237Y021095D01*
X018292Y021230D01*
X018395Y021333D01*
X018349Y021286D02*
X015276Y021286D01*
X015235Y021228D02*
X018292Y021228D01*
X018267Y021169D02*
X017263Y021169D01*
X017276Y021165D02*
X017237Y021176D01*
X016877Y021176D01*
X016877Y020840D01*
X016817Y020840D01*
X016817Y021176D01*
X016457Y021176D01*
X016418Y021165D01*
X016383Y021145D01*
X016354Y021117D01*
X016334Y021081D01*
X016323Y021042D01*
X016323Y020840D01*
X016817Y020840D01*
X016817Y020780D01*
X016323Y020780D01*
X016323Y020577D01*
X016334Y020538D01*
X016354Y020503D01*
X016383Y020474D01*
X016418Y020454D01*
X016457Y020443D01*
X016817Y020443D01*
X016817Y020780D01*
X016877Y020780D01*
X016877Y020840D01*
X017371Y020840D01*
X017371Y021042D01*
X017360Y021081D01*
X017340Y021117D01*
X017311Y021145D01*
X017276Y021165D01*
X017343Y021111D02*
X018243Y021111D01*
X018237Y021052D02*
X017368Y021052D01*
X017371Y020994D02*
X018237Y020994D01*
X018237Y020935D02*
X017371Y020935D01*
X017371Y020877D02*
X018237Y020877D01*
X018237Y020818D02*
X016877Y020818D01*
X016877Y020780D02*
X017371Y020780D01*
X017371Y020577D01*
X017360Y020538D01*
X017340Y020503D01*
X017311Y020474D01*
X017276Y020454D01*
X017237Y020443D01*
X016877Y020443D01*
X016877Y020780D01*
X016877Y020760D02*
X016817Y020760D01*
X016817Y020818D02*
X014906Y020818D01*
X014848Y020877D02*
X016323Y020877D01*
X016323Y020935D02*
X014789Y020935D01*
X014913Y020994D02*
X016323Y020994D01*
X016326Y021052D02*
X015054Y021052D01*
X015118Y021111D02*
X016351Y021111D01*
X016431Y021169D02*
X015177Y021169D01*
X014965Y020760D02*
X016323Y020760D01*
X016323Y020701D02*
X015023Y020701D01*
X015082Y020643D02*
X016323Y020643D01*
X016323Y020584D02*
X015140Y020584D01*
X015199Y020526D02*
X016341Y020526D01*
X016395Y020467D02*
X015257Y020467D01*
X015316Y020409D02*
X018285Y020409D01*
X018260Y020467D02*
X017299Y020467D01*
X017353Y020526D02*
X018237Y020526D01*
X018237Y020584D02*
X017371Y020584D01*
X017371Y020643D02*
X018237Y020643D01*
X018237Y020701D02*
X017371Y020701D01*
X017371Y020760D02*
X018237Y020760D01*
X018332Y020350D02*
X015374Y020350D01*
X015433Y020292D02*
X018390Y020292D01*
X018525Y020233D02*
X015491Y020233D01*
X015550Y020175D02*
X019491Y020175D01*
X019433Y020233D02*
X019421Y020233D01*
X019550Y020116D02*
X015608Y020116D01*
X015667Y020058D02*
X016328Y020058D01*
X016235Y019999D02*
X015725Y019999D01*
X015060Y019356D02*
X013532Y019356D01*
X013474Y019414D02*
X015002Y019414D01*
X014943Y019473D02*
X013415Y019473D01*
X013357Y019531D02*
X014885Y019531D01*
X014826Y019590D02*
X013298Y019590D01*
X013240Y019648D02*
X014768Y019648D01*
X014709Y019707D02*
X013181Y019707D01*
X013123Y019765D02*
X014651Y019765D01*
X014592Y019824D02*
X013064Y019824D01*
X013006Y019882D02*
X014534Y019882D01*
X014475Y019941D02*
X012893Y019941D01*
X013591Y019297D02*
X015119Y019297D01*
X015177Y019239D02*
X013649Y019239D01*
X013708Y019180D02*
X015236Y019180D01*
X014417Y019999D02*
X011335Y019999D01*
X011242Y020058D02*
X014358Y020058D01*
X014300Y020116D02*
X000910Y020116D01*
X000910Y020058D02*
X008078Y020058D01*
X007985Y019999D02*
X000910Y019999D01*
X000910Y019941D02*
X007090Y019941D01*
X006978Y019882D02*
X000910Y019882D01*
X000910Y019824D02*
X006919Y019824D01*
X006861Y019765D02*
X000910Y019765D01*
X000910Y019707D02*
X006802Y019707D01*
X006744Y019648D02*
X000910Y019648D01*
X000910Y019590D02*
X006685Y019590D01*
X006627Y019531D02*
X000910Y019531D01*
X000910Y019473D02*
X006568Y019473D01*
X006510Y019414D02*
X000910Y019414D01*
X000910Y019356D02*
X006451Y019356D01*
X006393Y019297D02*
X000910Y019297D01*
X000910Y019239D02*
X006334Y019239D01*
X006276Y019180D02*
X000910Y019180D01*
X000910Y019122D02*
X006217Y019122D01*
X006159Y019063D02*
X000910Y019063D01*
X000910Y019005D02*
X006100Y019005D01*
X006042Y018946D02*
X000910Y018946D01*
X000910Y018888D02*
X005983Y018888D01*
X005925Y018829D02*
X000910Y018829D01*
X000910Y018771D02*
X005866Y018771D01*
X005808Y018712D02*
X000910Y018712D01*
X000910Y018654D02*
X005749Y018654D01*
X005691Y018595D02*
X000910Y018595D01*
X000910Y018537D02*
X005632Y018537D01*
X005574Y018478D02*
X000910Y018478D01*
X000910Y018420D02*
X005515Y018420D01*
X005457Y018361D02*
X000910Y018361D01*
X000910Y018303D02*
X005398Y018303D01*
X005356Y018244D02*
X000910Y018244D01*
X000910Y018186D02*
X005332Y018186D01*
X005308Y018127D02*
X000910Y018127D01*
X000910Y018069D02*
X005298Y018069D01*
X005298Y018010D02*
X000910Y018010D01*
X000910Y017952D02*
X005298Y017952D01*
X005298Y017893D02*
X000910Y017893D01*
X000910Y017835D02*
X005298Y017835D01*
X005298Y017776D02*
X000910Y017776D01*
X000910Y017718D02*
X005298Y017718D01*
X005298Y017659D02*
X000910Y017659D01*
X000910Y017601D02*
X005298Y017601D01*
X005298Y017542D02*
X000910Y017542D01*
X000910Y017484D02*
X005298Y017484D01*
X005298Y017425D02*
X000910Y017425D01*
X000910Y017367D02*
X005298Y017367D01*
X005298Y017308D02*
X000910Y017308D01*
X000910Y017250D02*
X005298Y017250D01*
X005298Y017191D02*
X000910Y017191D01*
X000910Y017133D02*
X005298Y017133D01*
X005298Y017074D02*
X000910Y017074D01*
X000910Y017016D02*
X005298Y017016D01*
X005298Y016957D02*
X000910Y016957D01*
X000910Y016899D02*
X005298Y016899D01*
X005298Y016840D02*
X000910Y016840D01*
X000910Y016782D02*
X005298Y016782D01*
X005298Y016723D02*
X000910Y016723D01*
X000910Y016665D02*
X005298Y016665D01*
X005298Y016606D02*
X000910Y016606D01*
X000910Y016548D02*
X005298Y016548D01*
X005298Y016489D02*
X000910Y016489D01*
X000910Y016431D02*
X005298Y016431D01*
X005298Y016372D02*
X000910Y016372D01*
X000910Y016314D02*
X005298Y016314D01*
X005298Y016255D02*
X000910Y016255D01*
X000910Y016197D02*
X005298Y016197D01*
X005298Y016138D02*
X000910Y016138D01*
X000910Y016080D02*
X005266Y016080D01*
X005225Y016021D02*
X000910Y016021D01*
X000910Y015963D02*
X005201Y015963D01*
X005182Y015904D02*
X000910Y015904D01*
X000910Y015846D02*
X005182Y015846D01*
X005182Y015787D02*
X000910Y015787D01*
X000910Y015729D02*
X005182Y015729D01*
X005182Y015670D02*
X000910Y015670D01*
X000910Y015612D02*
X005182Y015612D01*
X005182Y015553D02*
X000910Y015553D01*
X000910Y015495D02*
X005182Y015495D01*
X005182Y015436D02*
X000910Y015436D01*
X000910Y015378D02*
X005182Y015378D01*
X005182Y015319D02*
X000910Y015319D01*
X000910Y015261D02*
X005182Y015261D01*
X005182Y015202D02*
X000910Y015202D01*
X000910Y015144D02*
X005182Y015144D01*
X005182Y015085D02*
X000910Y015085D01*
X000910Y015027D02*
X005183Y015027D01*
X005207Y014968D02*
X000910Y014968D01*
X000910Y014910D02*
X005232Y014910D01*
X005282Y014851D02*
X000910Y014851D01*
X000910Y014793D02*
X005340Y014793D01*
X005528Y013871D02*
X005488Y013860D01*
X005453Y013840D01*
X005425Y013811D01*
X005405Y013776D01*
X005394Y013737D01*
X005394Y013377D01*
X005730Y013377D01*
X005730Y013317D01*
X005394Y013317D01*
X005394Y012957D01*
X005405Y012918D01*
X005425Y012883D01*
X005453Y012854D01*
X005488Y012834D01*
X005528Y012823D01*
X005730Y012823D01*
X005730Y013317D01*
X005790Y013317D01*
X005790Y012823D01*
X005993Y012823D01*
X006032Y012834D01*
X006067Y012854D01*
X006096Y012883D01*
X006116Y012918D01*
X006127Y012957D01*
X006127Y013317D01*
X005790Y013317D01*
X005790Y013377D01*
X005730Y013377D01*
X005730Y013871D01*
X005528Y013871D01*
X005482Y013857D02*
X000910Y013857D01*
X000910Y013915D02*
X006533Y013915D01*
X006537Y013925D02*
X006481Y013790D01*
X006481Y012904D01*
X006537Y012769D01*
X006557Y012749D01*
X006557Y012711D01*
X005968Y012123D01*
X005281Y012123D01*
X005111Y012052D01*
X004980Y011922D01*
X004268Y011209D01*
X004197Y011039D01*
X004197Y008318D01*
X004268Y008148D01*
X004768Y007648D01*
X004898Y007518D01*
X005068Y007447D01*
X005260Y007447D01*
X005237Y007425D01*
X005182Y007290D01*
X005182Y006404D01*
X005237Y006269D01*
X005298Y006209D01*
X005298Y005718D01*
X005368Y005548D01*
X005768Y005148D01*
X005898Y005018D01*
X006068Y004947D01*
X008252Y004947D01*
X008422Y005018D01*
X008852Y005447D01*
X010305Y005447D01*
X011861Y003892D01*
X011861Y003524D01*
X011916Y003390D01*
X012019Y003287D01*
X012154Y003231D01*
X013040Y003231D01*
X013175Y003287D01*
X013278Y003390D01*
X013333Y003524D01*
X013333Y004095D01*
X013278Y004230D01*
X013175Y004333D01*
X013040Y004388D01*
X012672Y004388D01*
X010889Y006172D01*
X010759Y006302D01*
X010589Y006373D01*
X009123Y006373D01*
X009123Y007203D01*
X009211Y007292D01*
X009310Y007531D01*
X009310Y007789D01*
X009211Y008028D01*
X009028Y008211D01*
X008979Y008232D01*
X008979Y008582D01*
X009059Y008662D01*
X009081Y008715D01*
X009274Y008715D01*
X009274Y009130D01*
X009334Y009130D01*
X009334Y009190D01*
X009690Y009190D01*
X009690Y009470D01*
X009679Y009509D01*
X009659Y009545D01*
X009630Y009574D01*
X009594Y009594D01*
X009554Y009605D01*
X009334Y009605D01*
X009334Y009190D01*
X009274Y009190D01*
X009274Y009605D01*
X009081Y009605D01*
X009059Y009658D01*
X008979Y009738D01*
X008979Y010082D01*
X009059Y010162D01*
X009081Y010215D01*
X009274Y010215D01*
X009274Y010630D01*
X009334Y010630D01*
X009334Y010690D01*
X009690Y010690D01*
X009690Y010970D01*
X009679Y011009D01*
X009659Y011045D01*
X009630Y011074D01*
X009594Y011094D01*
X009554Y011105D01*
X009334Y011105D01*
X009334Y010690D01*
X009274Y010690D01*
X009274Y011105D01*
X009081Y011105D01*
X009059Y011158D01*
X008955Y011262D01*
X008820Y011318D01*
X008213Y011318D01*
X008077Y011262D01*
X007974Y011158D01*
X007918Y011023D01*
X007918Y010297D01*
X007974Y010162D01*
X008054Y010082D01*
X008054Y009738D01*
X007974Y009658D01*
X007918Y009523D01*
X007918Y008797D01*
X007974Y008662D01*
X008054Y008582D01*
X008054Y008000D01*
X008014Y007904D01*
X008014Y007798D01*
X008010Y007789D01*
X008010Y007531D01*
X008109Y007292D01*
X008197Y007203D01*
X008197Y006102D01*
X007968Y005873D01*
X006352Y005873D01*
X006223Y006001D01*
X006223Y006209D01*
X006283Y006269D01*
X006339Y006404D01*
X006339Y007290D01*
X006313Y007352D01*
X006481Y007185D01*
X006481Y006404D01*
X006537Y006269D01*
X006640Y006166D01*
X006774Y006111D01*
X007345Y006111D01*
X007480Y006166D01*
X007583Y006269D01*
X007638Y006404D01*
X007638Y007002D01*
X007663Y007060D01*
X007663Y007260D01*
X007586Y007445D01*
X007445Y007586D01*
X007348Y007626D01*
X006672Y008302D01*
X006502Y008373D01*
X006261Y008373D01*
X006283Y008395D01*
X006339Y008530D01*
X006339Y009416D01*
X006283Y009551D01*
X006223Y009611D01*
X006223Y010319D01*
X006352Y010447D01*
X006752Y010447D01*
X006922Y010518D01*
X007052Y010648D01*
X008040Y011636D01*
X008097Y011578D01*
X008232Y011522D01*
X008840Y011522D01*
X008910Y011551D01*
X008980Y011522D01*
X009588Y011522D01*
X009723Y011578D01*
X009826Y011682D01*
X009883Y011817D01*
X009883Y012478D01*
X011102Y013697D01*
X011981Y013697D01*
X011790Y013618D01*
X011607Y013435D01*
X011543Y013282D01*
X011536Y013296D01*
X011496Y013352D01*
X011447Y013401D01*
X011391Y013441D01*
X011329Y013473D01*
X011263Y013494D01*
X011195Y013505D01*
X011190Y013505D01*
X011190Y012940D01*
X011130Y012940D01*
X011130Y013505D01*
X011125Y013505D01*
X011057Y013494D01*
X010991Y013473D01*
X010929Y013441D01*
X010873Y013401D01*
X010824Y013352D01*
X010784Y013296D01*
X010752Y013234D01*
X010731Y013168D01*
X010720Y013100D01*
X010720Y012940D01*
X011130Y012940D01*
X011130Y012880D01*
X011190Y012880D01*
X011190Y012315D01*
X011195Y012315D01*
X011263Y012326D01*
X011329Y012347D01*
X011391Y012379D01*
X011447Y012419D01*
X011496Y012468D01*
X011536Y012524D01*
X011543Y012538D01*
X011607Y012385D01*
X011790Y012202D01*
X012030Y012102D01*
X012290Y012102D01*
X012530Y012202D01*
X012660Y012332D01*
X012790Y012202D01*
X013030Y012102D01*
X013290Y012102D01*
X013530Y012202D01*
X013660Y012332D01*
X013790Y012202D01*
X014030Y012102D01*
X014290Y012102D01*
X014530Y012202D01*
X014660Y012332D01*
X014790Y012202D01*
X015030Y012102D01*
X015290Y012102D01*
X015530Y012202D01*
X015660Y012332D01*
X015790Y012202D01*
X016030Y012102D01*
X016290Y012102D01*
X016530Y012202D01*
X016660Y012332D01*
X016790Y012202D01*
X017030Y012102D01*
X017290Y012102D01*
X017530Y012202D01*
X017713Y012385D01*
X017813Y012625D01*
X017813Y013195D01*
X017713Y013435D01*
X017530Y013618D01*
X017290Y013718D01*
X017030Y013718D01*
X016790Y013618D01*
X016660Y013488D01*
X016530Y013618D01*
X016290Y013718D01*
X016030Y013718D01*
X015790Y013618D01*
X015660Y013488D01*
X015659Y013489D01*
X015711Y013542D01*
X015810Y013781D01*
X015810Y014039D01*
X015711Y014278D01*
X015528Y014461D01*
X015289Y014560D01*
X015153Y014560D01*
X015002Y014623D01*
X010818Y014623D01*
X010648Y014552D01*
X009096Y013000D01*
X008999Y012960D01*
X008858Y012819D01*
X008848Y012794D01*
X008840Y012798D01*
X008232Y012798D01*
X008097Y012742D01*
X008018Y012663D01*
X007810Y012663D01*
X007625Y012586D01*
X007562Y012523D01*
X007562Y012749D01*
X007583Y012769D01*
X007638Y012904D01*
X007638Y013790D01*
X007583Y013925D01*
X007480Y014028D01*
X007345Y014083D01*
X006774Y014083D01*
X006640Y014028D01*
X006537Y013925D01*
X006586Y013974D02*
X000910Y013974D01*
X000910Y014032D02*
X006650Y014032D01*
X006508Y013857D02*
X006039Y013857D01*
X006032Y013860D02*
X005993Y013871D01*
X005790Y013871D01*
X005790Y013377D01*
X006127Y013377D01*
X006127Y013737D01*
X006116Y013776D01*
X006096Y013811D01*
X006067Y013840D01*
X006032Y013860D01*
X006104Y013798D02*
X006484Y013798D01*
X006481Y013740D02*
X006126Y013740D01*
X006127Y013681D02*
X006481Y013681D01*
X006481Y013623D02*
X006127Y013623D01*
X006127Y013564D02*
X006481Y013564D01*
X006481Y013506D02*
X006127Y013506D01*
X006127Y013447D02*
X006481Y013447D01*
X006481Y013389D02*
X006127Y013389D01*
X006127Y013272D02*
X006481Y013272D01*
X006481Y013330D02*
X005790Y013330D01*
X005790Y013272D02*
X005730Y013272D01*
X005730Y013330D02*
X000910Y013330D01*
X000910Y013272D02*
X005394Y013272D01*
X005394Y013213D02*
X000910Y013213D01*
X000910Y013155D02*
X005394Y013155D01*
X005394Y013096D02*
X000910Y013096D01*
X000910Y013038D02*
X005394Y013038D01*
X005394Y012979D02*
X000910Y012979D01*
X000910Y012921D02*
X005404Y012921D01*
X005445Y012862D02*
X000910Y012862D01*
X000910Y012804D02*
X006522Y012804D01*
X006498Y012862D02*
X006075Y012862D01*
X006117Y012921D02*
X006481Y012921D01*
X006481Y012979D02*
X006127Y012979D01*
X006127Y013038D02*
X006481Y013038D01*
X006481Y013096D02*
X006127Y013096D01*
X006127Y013155D02*
X006481Y013155D01*
X006481Y013213D02*
X006127Y013213D01*
X005790Y013213D02*
X005730Y013213D01*
X005730Y013155D02*
X005790Y013155D01*
X005790Y013096D02*
X005730Y013096D01*
X005730Y013038D02*
X005790Y013038D01*
X005790Y012979D02*
X005730Y012979D01*
X005730Y012921D02*
X005790Y012921D01*
X005790Y012862D02*
X005730Y012862D01*
X006240Y012394D02*
X000910Y012394D01*
X000910Y012336D02*
X006181Y012336D01*
X006123Y012277D02*
X000910Y012277D01*
X000910Y012219D02*
X006064Y012219D01*
X006006Y012160D02*
X000910Y012160D01*
X000910Y012101D02*
X005230Y012101D01*
X005101Y012043D02*
X000910Y012043D01*
X000910Y011984D02*
X005043Y011984D01*
X004984Y011926D02*
X000910Y011926D01*
X000910Y011867D02*
X004926Y011867D01*
X004867Y011809D02*
X000910Y011809D01*
X000910Y011750D02*
X004809Y011750D01*
X004750Y011692D02*
X000910Y011692D01*
X000910Y011633D02*
X004692Y011633D01*
X004633Y011575D02*
X000910Y011575D01*
X000910Y011516D02*
X004575Y011516D01*
X004516Y011458D02*
X000910Y011458D01*
X000910Y011399D02*
X004458Y011399D01*
X004399Y011341D02*
X000910Y011341D01*
X000910Y011282D02*
X004341Y011282D01*
X004282Y011224D02*
X000910Y011224D01*
X000910Y011165D02*
X004250Y011165D01*
X004225Y011107D02*
X000910Y011107D01*
X000910Y011048D02*
X004201Y011048D01*
X004197Y010990D02*
X000910Y010990D01*
X000910Y010931D02*
X004197Y010931D01*
X004197Y010873D02*
X000910Y010873D01*
X000910Y010814D02*
X004197Y010814D01*
X004197Y010756D02*
X000910Y010756D01*
X000910Y010697D02*
X004197Y010697D01*
X004197Y010639D02*
X000910Y010639D01*
X000910Y010580D02*
X004197Y010580D01*
X004197Y010522D02*
X000910Y010522D01*
X000910Y010463D02*
X004197Y010463D01*
X004197Y010405D02*
X000910Y010405D01*
X000910Y010346D02*
X004197Y010346D01*
X004197Y010288D02*
X000910Y010288D01*
X000910Y010229D02*
X004197Y010229D01*
X004197Y010171D02*
X000910Y010171D01*
X000910Y010112D02*
X004197Y010112D01*
X004197Y010054D02*
X000910Y010054D01*
X000910Y009995D02*
X004197Y009995D01*
X004197Y009937D02*
X000910Y009937D01*
X000910Y009878D02*
X004197Y009878D01*
X004197Y009820D02*
X000910Y009820D01*
X000910Y009761D02*
X004197Y009761D01*
X004197Y009703D02*
X000910Y009703D01*
X000910Y009644D02*
X004197Y009644D01*
X004197Y009586D02*
X000910Y009586D01*
X000910Y009527D02*
X004197Y009527D01*
X004197Y009469D02*
X000910Y009469D01*
X000910Y009410D02*
X004197Y009410D01*
X004197Y009352D02*
X000910Y009352D01*
X000910Y009293D02*
X004197Y009293D01*
X004197Y009235D02*
X000910Y009235D01*
X000910Y009176D02*
X004197Y009176D01*
X004197Y009118D02*
X000910Y009118D01*
X000910Y009059D02*
X004197Y009059D01*
X004197Y009001D02*
X000910Y009001D01*
X000910Y008942D02*
X004197Y008942D01*
X004197Y008884D02*
X000910Y008884D01*
X000910Y008825D02*
X004197Y008825D01*
X004197Y008767D02*
X000910Y008767D01*
X000910Y008708D02*
X004197Y008708D01*
X004197Y008650D02*
X000910Y008650D01*
X000910Y008591D02*
X004197Y008591D01*
X004197Y008533D02*
X000910Y008533D01*
X000910Y008474D02*
X004197Y008474D01*
X004197Y008416D02*
X000910Y008416D01*
X000910Y008357D02*
X004197Y008357D01*
X004205Y008299D02*
X000910Y008299D01*
X000910Y008240D02*
X004230Y008240D01*
X004254Y008182D02*
X000910Y008182D01*
X000910Y008123D02*
X004292Y008123D01*
X004351Y008065D02*
X000910Y008065D01*
X000910Y008006D02*
X004409Y008006D01*
X004468Y007948D02*
X000910Y007948D01*
X000910Y007889D02*
X004526Y007889D01*
X004585Y007831D02*
X000910Y007831D01*
X000910Y007772D02*
X004643Y007772D01*
X004702Y007714D02*
X000910Y007714D01*
X000910Y007655D02*
X004760Y007655D01*
X004819Y007597D02*
X000910Y007597D01*
X000910Y007538D02*
X004877Y007538D01*
X004989Y007480D02*
X000910Y007480D01*
X000910Y007421D02*
X005236Y007421D01*
X005212Y007363D02*
X000910Y007363D01*
X000910Y007304D02*
X005188Y007304D01*
X005182Y007246D02*
X000910Y007246D01*
X000910Y007187D02*
X005182Y007187D01*
X005182Y007129D02*
X000910Y007129D01*
X000910Y007070D02*
X005182Y007070D01*
X005182Y007012D02*
X000910Y007012D01*
X000910Y006953D02*
X005182Y006953D01*
X005182Y006895D02*
X000910Y006895D01*
X000910Y006836D02*
X005182Y006836D01*
X005182Y006778D02*
X000910Y006778D01*
X000910Y006719D02*
X005182Y006719D01*
X005182Y006661D02*
X000910Y006661D01*
X000910Y006602D02*
X005182Y006602D01*
X005182Y006544D02*
X000910Y006544D01*
X000910Y006485D02*
X005182Y006485D01*
X005182Y006427D02*
X000910Y006427D01*
X000910Y006368D02*
X005196Y006368D01*
X005221Y006310D02*
X000910Y006310D01*
X000910Y006251D02*
X005255Y006251D01*
X005298Y006193D02*
X000910Y006193D01*
X000910Y006134D02*
X005298Y006134D01*
X005298Y006076D02*
X000910Y006076D01*
X000910Y006017D02*
X005298Y006017D01*
X005298Y005959D02*
X000910Y005959D01*
X000910Y005900D02*
X005298Y005900D01*
X005298Y005842D02*
X000910Y005842D01*
X000910Y005783D02*
X005298Y005783D01*
X005298Y005725D02*
X000910Y005725D01*
X000910Y005666D02*
X005319Y005666D01*
X005343Y005608D02*
X000910Y005608D01*
X000910Y005549D02*
X005367Y005549D01*
X005425Y005491D02*
X000910Y005491D01*
X000910Y005432D02*
X005483Y005432D01*
X005542Y005374D02*
X000910Y005374D01*
X000910Y005315D02*
X005600Y005315D01*
X005659Y005257D02*
X000910Y005257D01*
X000910Y005198D02*
X005717Y005198D01*
X005776Y005140D02*
X000910Y005140D01*
X000910Y005081D02*
X005834Y005081D01*
X005893Y005023D02*
X000910Y005023D01*
X000910Y004964D02*
X006027Y004964D01*
X006324Y005900D02*
X007996Y005900D01*
X008055Y005959D02*
X006265Y005959D01*
X006223Y006017D02*
X008113Y006017D01*
X008172Y006076D02*
X006223Y006076D01*
X006223Y006134D02*
X006717Y006134D01*
X006613Y006193D02*
X006223Y006193D01*
X006265Y006251D02*
X006555Y006251D01*
X006520Y006310D02*
X006300Y006310D01*
X006324Y006368D02*
X006496Y006368D01*
X006481Y006427D02*
X006339Y006427D01*
X006339Y006485D02*
X006481Y006485D01*
X006481Y006544D02*
X006339Y006544D01*
X006339Y006602D02*
X006481Y006602D01*
X006481Y006661D02*
X006339Y006661D01*
X006339Y006719D02*
X006481Y006719D01*
X006481Y006778D02*
X006339Y006778D01*
X006339Y006836D02*
X006481Y006836D01*
X006481Y006895D02*
X006339Y006895D01*
X006339Y006953D02*
X006481Y006953D01*
X006481Y007012D02*
X006339Y007012D01*
X006339Y007070D02*
X006481Y007070D01*
X006481Y007129D02*
X006339Y007129D01*
X006339Y007187D02*
X006478Y007187D01*
X006420Y007246D02*
X006339Y007246D01*
X006333Y007304D02*
X006361Y007304D01*
X007026Y007948D02*
X008032Y007948D01*
X008014Y007889D02*
X007085Y007889D01*
X007143Y007831D02*
X008014Y007831D01*
X008010Y007772D02*
X007202Y007772D01*
X007260Y007714D02*
X008010Y007714D01*
X008010Y007655D02*
X007319Y007655D01*
X007418Y007597D02*
X008010Y007597D01*
X008010Y007538D02*
X007492Y007538D01*
X007551Y007480D02*
X008031Y007480D01*
X008055Y007421D02*
X007596Y007421D01*
X007620Y007363D02*
X008079Y007363D01*
X008104Y007304D02*
X007644Y007304D01*
X007663Y007246D02*
X008155Y007246D01*
X008197Y007187D02*
X007663Y007187D01*
X007663Y007129D02*
X008197Y007129D01*
X008197Y007070D02*
X007663Y007070D01*
X007643Y007012D02*
X008197Y007012D01*
X008197Y006953D02*
X007638Y006953D01*
X007638Y006895D02*
X008197Y006895D01*
X008197Y006836D02*
X007638Y006836D01*
X007638Y006778D02*
X008197Y006778D01*
X008197Y006719D02*
X007638Y006719D01*
X007638Y006661D02*
X008197Y006661D01*
X008197Y006602D02*
X007638Y006602D01*
X007638Y006544D02*
X008197Y006544D01*
X008197Y006485D02*
X007638Y006485D01*
X007638Y006427D02*
X008197Y006427D01*
X008197Y006368D02*
X007624Y006368D01*
X007599Y006310D02*
X008197Y006310D01*
X008197Y006251D02*
X007565Y006251D01*
X007506Y006193D02*
X008197Y006193D01*
X008197Y006134D02*
X007402Y006134D01*
X008293Y004964D02*
X010788Y004964D01*
X010846Y004906D02*
X000910Y004906D01*
X000910Y004847D02*
X010905Y004847D01*
X010963Y004789D02*
X000910Y004789D01*
X000910Y004730D02*
X011022Y004730D01*
X011080Y004672D02*
X000910Y004672D01*
X000910Y004613D02*
X011139Y004613D01*
X011197Y004555D02*
X000910Y004555D01*
X000910Y004496D02*
X011256Y004496D01*
X011314Y004438D02*
X000910Y004438D01*
X000910Y004379D02*
X011373Y004379D01*
X011431Y004321D02*
X000910Y004321D01*
X000910Y004262D02*
X011490Y004262D01*
X011548Y004204D02*
X000910Y004204D01*
X000910Y004145D02*
X011607Y004145D01*
X011665Y004087D02*
X000910Y004087D01*
X000910Y004028D02*
X011724Y004028D01*
X011782Y003970D02*
X000910Y003970D01*
X000910Y003911D02*
X011841Y003911D01*
X011861Y003853D02*
X000910Y003853D01*
X000910Y003794D02*
X011861Y003794D01*
X011861Y003736D02*
X000910Y003736D01*
X000910Y003677D02*
X011861Y003677D01*
X011861Y003619D02*
X000910Y003619D01*
X000910Y003560D02*
X011861Y003560D01*
X011870Y003502D02*
X000910Y003502D01*
X000910Y003443D02*
X011894Y003443D01*
X011921Y003385D02*
X000910Y003385D01*
X000910Y003326D02*
X011980Y003326D01*
X012064Y003268D02*
X000910Y003268D01*
X000910Y003209D02*
X014669Y003209D01*
X014648Y003231D02*
X015002Y002877D01*
X014753Y002877D01*
X014753Y002540D01*
X015247Y002540D01*
X015247Y002632D01*
X015480Y002398D01*
X015611Y002268D01*
X015781Y002197D01*
X018502Y002197D01*
X018672Y002268D01*
X022322Y005917D01*
X022452Y006048D01*
X022516Y006203D01*
X022583Y006269D01*
X022638Y006404D01*
X022638Y007290D01*
X022583Y007425D01*
X022480Y007528D01*
X022345Y007583D01*
X021774Y007583D01*
X021640Y007528D01*
X021537Y007425D01*
X021481Y007290D01*
X021481Y006404D01*
X021486Y006391D01*
X021194Y006098D01*
X021223Y006168D01*
X021223Y006209D01*
X021283Y006269D01*
X021339Y006404D01*
X021339Y007290D01*
X021283Y007425D01*
X021180Y007528D01*
X021046Y007583D01*
X020475Y007583D01*
X020340Y007528D01*
X020237Y007425D01*
X020182Y007290D01*
X020182Y006404D01*
X020202Y006356D01*
X018008Y004163D01*
X017827Y004163D01*
X017778Y004211D01*
X017539Y004310D01*
X017281Y004310D01*
X017042Y004211D01*
X016859Y004028D01*
X016760Y003789D01*
X016760Y003531D01*
X016859Y003292D01*
X017028Y003123D01*
X016064Y003123D01*
X015459Y003728D01*
X015459Y004095D01*
X015404Y004230D01*
X015301Y004333D01*
X015166Y004388D01*
X014280Y004388D01*
X014145Y004333D01*
X014042Y004230D01*
X013987Y004095D01*
X013987Y003524D01*
X014042Y003390D01*
X014145Y003287D01*
X014280Y003231D01*
X014648Y003231D01*
X014727Y003151D02*
X000910Y003151D01*
X000910Y003092D02*
X014786Y003092D01*
X014844Y003034D02*
X013173Y003034D01*
X013175Y003033D02*
X013040Y003089D01*
X012154Y003089D01*
X012019Y003033D01*
X011916Y002930D01*
X011861Y002796D01*
X011861Y002225D01*
X011916Y002090D01*
X012019Y001987D01*
X012154Y001932D01*
X013040Y001932D01*
X013175Y001987D01*
X013278Y002090D01*
X013333Y002225D01*
X013333Y002796D01*
X013278Y002930D01*
X013175Y003033D01*
X013233Y002975D02*
X014903Y002975D01*
X014961Y002917D02*
X013283Y002917D01*
X013307Y002858D02*
X014280Y002858D01*
X014294Y002866D02*
X014259Y002846D01*
X014230Y002817D01*
X014210Y002782D01*
X014199Y002743D01*
X014199Y002540D01*
X014693Y002540D01*
X014693Y002480D01*
X014753Y002480D01*
X014753Y002144D01*
X015113Y002144D01*
X015152Y002155D01*
X015187Y002175D01*
X015216Y002203D01*
X015236Y002238D01*
X015247Y002278D01*
X015247Y002480D01*
X014753Y002480D01*
X014753Y002540D01*
X014693Y002540D01*
X014693Y002877D01*
X014333Y002877D01*
X014294Y002866D01*
X014220Y002800D02*
X013332Y002800D01*
X013333Y002741D02*
X014199Y002741D01*
X014199Y002683D02*
X013333Y002683D01*
X013333Y002624D02*
X014199Y002624D01*
X014199Y002566D02*
X013333Y002566D01*
X013333Y002507D02*
X014693Y002507D01*
X014693Y002480D02*
X014199Y002480D01*
X014199Y002278D01*
X014210Y002238D01*
X014230Y002203D01*
X014259Y002175D01*
X014294Y002155D01*
X014333Y002144D01*
X014693Y002144D01*
X014693Y002480D01*
X014693Y002449D02*
X014753Y002449D01*
X014753Y002507D02*
X015371Y002507D01*
X015429Y002449D02*
X015247Y002449D01*
X015247Y002390D02*
X015488Y002390D01*
X015546Y002332D02*
X015247Y002332D01*
X015246Y002273D02*
X015605Y002273D01*
X015738Y002215D02*
X015223Y002215D01*
X015156Y002156D02*
X024910Y002156D01*
X024910Y002098D02*
X013281Y002098D01*
X013305Y002156D02*
X014290Y002156D01*
X014223Y002215D02*
X013329Y002215D01*
X013333Y002273D02*
X014200Y002273D01*
X014199Y002332D02*
X013333Y002332D01*
X013333Y002390D02*
X014199Y002390D01*
X014199Y002449D02*
X013333Y002449D01*
X013227Y002039D02*
X024910Y002039D01*
X024910Y001981D02*
X013159Y001981D01*
X012035Y001981D02*
X000910Y001981D01*
X000910Y002039D02*
X011967Y002039D01*
X011913Y002098D02*
X000910Y002098D01*
X000910Y002156D02*
X011889Y002156D01*
X011865Y002215D02*
X000910Y002215D01*
X000910Y002273D02*
X011861Y002273D01*
X011861Y002332D02*
X000910Y002332D01*
X000910Y002390D02*
X011861Y002390D01*
X011861Y002449D02*
X000910Y002449D01*
X000910Y002507D02*
X011861Y002507D01*
X011861Y002566D02*
X000910Y002566D01*
X000910Y002624D02*
X011861Y002624D01*
X011861Y002683D02*
X000910Y002683D01*
X000910Y002741D02*
X011861Y002741D01*
X011862Y002800D02*
X000910Y002800D01*
X000910Y002858D02*
X011887Y002858D01*
X011911Y002917D02*
X000910Y002917D01*
X000910Y002975D02*
X011961Y002975D01*
X012021Y003034D02*
X000910Y003034D01*
X000910Y001922D02*
X024910Y001922D01*
X024910Y001864D02*
X000910Y001864D01*
X000910Y001805D02*
X024910Y001805D01*
X024910Y001747D02*
X000910Y001747D01*
X000910Y001688D02*
X024910Y001688D01*
X024910Y001630D02*
X000910Y001630D01*
X000910Y001571D02*
X024910Y001571D01*
X024910Y001513D02*
X000910Y001513D01*
X000910Y001454D02*
X024910Y001454D01*
X024910Y001396D02*
X000910Y001396D01*
X000910Y001337D02*
X024910Y001337D01*
X024910Y001279D02*
X000910Y001279D01*
X000910Y001220D02*
X024910Y001220D01*
X024910Y001162D02*
X000910Y001162D01*
X000910Y001103D02*
X024910Y001103D01*
X024910Y001045D02*
X000910Y001045D01*
X000910Y000986D02*
X024910Y000986D01*
X024910Y000928D02*
X000910Y000928D01*
X000910Y000869D02*
X024910Y000869D01*
X024910Y000811D02*
X000910Y000811D01*
X000910Y000752D02*
X024910Y000752D01*
X024910Y000694D02*
X000910Y000694D01*
X008427Y005023D02*
X010729Y005023D01*
X010671Y005081D02*
X008486Y005081D01*
X008544Y005140D02*
X010612Y005140D01*
X010554Y005198D02*
X008603Y005198D01*
X008661Y005257D02*
X010495Y005257D01*
X010437Y005315D02*
X008720Y005315D01*
X008778Y005374D02*
X010378Y005374D01*
X010320Y005432D02*
X008837Y005432D01*
X009123Y006427D02*
X014447Y006427D01*
X014447Y006485D02*
X009123Y006485D01*
X009123Y006544D02*
X014447Y006544D01*
X014447Y006602D02*
X009123Y006602D01*
X009123Y006661D02*
X014447Y006661D01*
X014447Y006719D02*
X009123Y006719D01*
X009123Y006778D02*
X014447Y006778D01*
X014447Y006836D02*
X009123Y006836D01*
X009123Y006895D02*
X014447Y006895D01*
X014447Y006953D02*
X009123Y006953D01*
X009123Y007012D02*
X014447Y007012D01*
X014447Y007070D02*
X009123Y007070D01*
X009123Y007129D02*
X014447Y007129D01*
X014447Y007187D02*
X009123Y007187D01*
X009165Y007246D02*
X014447Y007246D01*
X014447Y007304D02*
X009216Y007304D01*
X009241Y007363D02*
X014447Y007363D01*
X014447Y007421D02*
X009265Y007421D01*
X009289Y007480D02*
X014447Y007480D01*
X014447Y007538D02*
X009310Y007538D01*
X009310Y007597D02*
X014447Y007597D01*
X014447Y007655D02*
X009310Y007655D01*
X009310Y007714D02*
X014447Y007714D01*
X014447Y007772D02*
X009310Y007772D01*
X009293Y007831D02*
X014447Y007831D01*
X014447Y007889D02*
X009269Y007889D01*
X009244Y007948D02*
X014447Y007948D01*
X014447Y008002D02*
X014447Y005318D01*
X014518Y005148D01*
X014648Y005018D01*
X015510Y004156D01*
X015510Y004031D01*
X015609Y003792D01*
X015792Y003609D01*
X016031Y003510D01*
X016289Y003510D01*
X016528Y003609D01*
X016711Y003792D01*
X016810Y004031D01*
X016810Y004289D01*
X016711Y004528D01*
X016528Y004711D01*
X016289Y004810D01*
X016164Y004810D01*
X015373Y005602D01*
X015373Y007718D01*
X015852Y008197D01*
X016203Y008197D01*
X016292Y008109D01*
X016531Y008010D01*
X016789Y008010D01*
X017028Y008109D01*
X017211Y008292D01*
X017310Y008531D01*
X017310Y008789D01*
X017211Y009028D01*
X017137Y009102D01*
X017290Y009102D01*
X017530Y009202D01*
X017713Y009385D01*
X017813Y009625D01*
X017813Y010195D01*
X017713Y010435D01*
X017530Y010618D01*
X017290Y010718D01*
X017030Y010718D01*
X016790Y010618D01*
X016660Y010488D01*
X016530Y010618D01*
X016290Y010718D01*
X016030Y010718D01*
X015790Y010618D01*
X015660Y010488D01*
X015530Y010618D01*
X015290Y010718D01*
X015030Y010718D01*
X014790Y010618D01*
X014660Y010488D01*
X014530Y010618D01*
X014290Y010718D01*
X014030Y010718D01*
X013790Y010618D01*
X013660Y010488D01*
X013530Y010618D01*
X013290Y010718D01*
X013030Y010718D01*
X012790Y010618D01*
X012660Y010488D01*
X012530Y010618D01*
X012290Y010718D01*
X012030Y010718D01*
X011790Y010618D01*
X011660Y010488D01*
X011530Y010618D01*
X011290Y010718D01*
X011030Y010718D01*
X010790Y010618D01*
X010607Y010435D01*
X010507Y010195D01*
X010507Y009625D01*
X010607Y009385D01*
X010790Y009202D01*
X011030Y009102D01*
X011290Y009102D01*
X011530Y009202D01*
X011660Y009332D01*
X011790Y009202D01*
X012030Y009102D01*
X012290Y009102D01*
X012530Y009202D01*
X012660Y009332D01*
X012790Y009202D01*
X013030Y009102D01*
X013290Y009102D01*
X013530Y009202D01*
X013660Y009332D01*
X013790Y009202D01*
X014030Y009102D01*
X014290Y009102D01*
X014530Y009202D01*
X014660Y009332D01*
X014790Y009202D01*
X015030Y009102D01*
X015290Y009102D01*
X015530Y009202D01*
X015660Y009332D01*
X015790Y009202D01*
X015981Y009123D01*
X015568Y009123D01*
X015398Y009052D01*
X015268Y008922D01*
X014518Y008172D01*
X014447Y008002D01*
X014449Y008006D02*
X009220Y008006D01*
X009174Y008065D02*
X014473Y008065D01*
X014498Y008123D02*
X009116Y008123D01*
X009057Y008182D02*
X014528Y008182D01*
X014586Y008240D02*
X008979Y008240D01*
X008979Y008299D02*
X014645Y008299D01*
X014703Y008357D02*
X008979Y008357D01*
X008979Y008416D02*
X014762Y008416D01*
X014820Y008474D02*
X008979Y008474D01*
X008979Y008533D02*
X014879Y008533D01*
X014937Y008591D02*
X008988Y008591D01*
X009047Y008650D02*
X014996Y008650D01*
X015054Y008708D02*
X009078Y008708D01*
X009274Y008767D02*
X009334Y008767D01*
X009334Y008715D02*
X009554Y008715D01*
X009594Y008726D01*
X009630Y008746D01*
X009659Y008775D01*
X009679Y008811D01*
X009690Y008850D01*
X009690Y009130D01*
X009334Y009130D01*
X009334Y008715D01*
X009334Y008825D02*
X009274Y008825D01*
X009274Y008884D02*
X009334Y008884D01*
X009334Y008942D02*
X009274Y008942D01*
X009274Y009001D02*
X009334Y009001D01*
X009334Y009059D02*
X009274Y009059D01*
X009274Y009118D02*
X009334Y009118D01*
X009334Y009176D02*
X010851Y009176D01*
X010757Y009235D02*
X009690Y009235D01*
X009690Y009293D02*
X010699Y009293D01*
X010640Y009352D02*
X009690Y009352D01*
X009690Y009410D02*
X010596Y009410D01*
X010572Y009469D02*
X009690Y009469D01*
X009669Y009527D02*
X010548Y009527D01*
X010524Y009586D02*
X009609Y009586D01*
X009334Y009586D02*
X009274Y009586D01*
X009274Y009527D02*
X009334Y009527D01*
X009334Y009469D02*
X009274Y009469D01*
X009274Y009410D02*
X009334Y009410D01*
X009334Y009352D02*
X009274Y009352D01*
X009274Y009293D02*
X009334Y009293D01*
X009334Y009235D02*
X009274Y009235D01*
X009690Y009118D02*
X010993Y009118D01*
X011327Y009118D02*
X011993Y009118D01*
X011851Y009176D02*
X011469Y009176D01*
X011563Y009235D02*
X011757Y009235D01*
X011699Y009293D02*
X011621Y009293D01*
X012327Y009118D02*
X012993Y009118D01*
X012851Y009176D02*
X012469Y009176D01*
X012563Y009235D02*
X012757Y009235D01*
X012699Y009293D02*
X012621Y009293D01*
X013327Y009118D02*
X013993Y009118D01*
X013851Y009176D02*
X013469Y009176D01*
X013563Y009235D02*
X013757Y009235D01*
X013699Y009293D02*
X013621Y009293D01*
X014327Y009118D02*
X014993Y009118D01*
X014851Y009176D02*
X014469Y009176D01*
X014563Y009235D02*
X014757Y009235D01*
X014699Y009293D02*
X014621Y009293D01*
X015113Y008767D02*
X009650Y008767D01*
X009683Y008825D02*
X015171Y008825D01*
X015230Y008884D02*
X009690Y008884D01*
X009690Y008942D02*
X015288Y008942D01*
X015347Y009001D02*
X009690Y009001D01*
X009690Y009059D02*
X015416Y009059D01*
X015327Y009118D02*
X015557Y009118D01*
X015469Y009176D02*
X015851Y009176D01*
X015757Y009235D02*
X015563Y009235D01*
X015621Y009293D02*
X015699Y009293D01*
X015836Y008182D02*
X016219Y008182D01*
X016277Y008123D02*
X015778Y008123D01*
X015719Y008065D02*
X016398Y008065D01*
X016922Y008065D02*
X024910Y008065D01*
X024910Y008123D02*
X017043Y008123D01*
X017101Y008182D02*
X024910Y008182D01*
X024910Y008240D02*
X021055Y008240D01*
X021046Y008237D02*
X021180Y008292D01*
X021283Y008395D01*
X021339Y008530D01*
X021339Y009416D01*
X021283Y009551D01*
X021223Y009611D01*
X021223Y010819D01*
X022452Y012048D01*
X022522Y012218D01*
X022522Y013209D01*
X022583Y013269D01*
X022638Y013404D01*
X022638Y014290D01*
X022583Y014425D01*
X022480Y014528D01*
X022345Y014583D01*
X021774Y014583D01*
X021640Y014528D01*
X021537Y014425D01*
X021481Y014290D01*
X021481Y013404D01*
X021537Y013269D01*
X021597Y013209D01*
X021597Y012501D01*
X020368Y011272D01*
X020298Y011102D01*
X020298Y009611D01*
X020237Y009551D01*
X020182Y009416D01*
X020182Y008530D01*
X020237Y008395D01*
X020340Y008292D01*
X020475Y008237D01*
X021046Y008237D01*
X021187Y008299D02*
X024910Y008299D01*
X024910Y008357D02*
X021245Y008357D01*
X021292Y008416D02*
X024910Y008416D01*
X024910Y008474D02*
X022357Y008474D01*
X022367Y008480D02*
X022395Y008509D01*
X022415Y008544D01*
X022426Y008583D01*
X022426Y008943D01*
X022090Y008943D01*
X022090Y009003D01*
X022426Y009003D01*
X022426Y009363D01*
X022415Y009402D01*
X022395Y009437D01*
X022367Y009466D01*
X022331Y009486D01*
X022292Y009497D01*
X022090Y009497D01*
X022090Y009003D01*
X022030Y009003D01*
X022030Y009497D01*
X021827Y009497D01*
X021788Y009486D01*
X021753Y009466D01*
X021724Y009437D01*
X021704Y009402D01*
X021693Y009363D01*
X021693Y009003D01*
X022030Y009003D01*
X022030Y008943D01*
X022090Y008943D01*
X022090Y008449D01*
X022292Y008449D01*
X022331Y008460D01*
X022367Y008480D01*
X022409Y008533D02*
X024910Y008533D01*
X024910Y008591D02*
X022426Y008591D01*
X022426Y008650D02*
X024910Y008650D01*
X024910Y008708D02*
X022426Y008708D01*
X022426Y008767D02*
X024910Y008767D01*
X024910Y008825D02*
X022426Y008825D01*
X022426Y008884D02*
X024910Y008884D01*
X024910Y008942D02*
X022426Y008942D01*
X022426Y009059D02*
X024910Y009059D01*
X024910Y009001D02*
X022090Y009001D01*
X022090Y009059D02*
X022030Y009059D01*
X022030Y009001D02*
X021339Y009001D01*
X021339Y009059D02*
X021693Y009059D01*
X021693Y009118D02*
X021339Y009118D01*
X021339Y009176D02*
X021693Y009176D01*
X021693Y009235D02*
X021339Y009235D01*
X021339Y009293D02*
X021693Y009293D01*
X021693Y009352D02*
X021339Y009352D01*
X021339Y009410D02*
X021709Y009410D01*
X021758Y009469D02*
X021317Y009469D01*
X021293Y009527D02*
X024910Y009527D01*
X024910Y009469D02*
X022361Y009469D01*
X022411Y009410D02*
X024910Y009410D01*
X024910Y009352D02*
X022426Y009352D01*
X022426Y009293D02*
X024910Y009293D01*
X024910Y009235D02*
X022426Y009235D01*
X022426Y009176D02*
X024910Y009176D01*
X024910Y009118D02*
X022426Y009118D01*
X022090Y009118D02*
X022030Y009118D01*
X022030Y009176D02*
X022090Y009176D01*
X022090Y009235D02*
X022030Y009235D01*
X022030Y009293D02*
X022090Y009293D01*
X022090Y009352D02*
X022030Y009352D01*
X022030Y009410D02*
X022090Y009410D01*
X022090Y009469D02*
X022030Y009469D01*
X022030Y008943D02*
X021693Y008943D01*
X021693Y008583D01*
X021704Y008544D01*
X021724Y008509D01*
X021753Y008480D01*
X021788Y008460D01*
X021827Y008449D01*
X022030Y008449D01*
X022030Y008943D01*
X022030Y008942D02*
X022090Y008942D01*
X022090Y008884D02*
X022030Y008884D01*
X022030Y008825D02*
X022090Y008825D01*
X022090Y008767D02*
X022030Y008767D01*
X022030Y008708D02*
X022090Y008708D01*
X022090Y008650D02*
X022030Y008650D01*
X022030Y008591D02*
X022090Y008591D01*
X022090Y008533D02*
X022030Y008533D01*
X022030Y008474D02*
X022090Y008474D01*
X021762Y008474D02*
X021316Y008474D01*
X021339Y008533D02*
X021710Y008533D01*
X021693Y008591D02*
X021339Y008591D01*
X021339Y008650D02*
X021693Y008650D01*
X021693Y008708D02*
X021339Y008708D01*
X021339Y008767D02*
X021693Y008767D01*
X021693Y008825D02*
X021339Y008825D01*
X021339Y008884D02*
X021693Y008884D01*
X021693Y008942D02*
X021339Y008942D01*
X021248Y009586D02*
X024910Y009586D01*
X024910Y009644D02*
X021223Y009644D01*
X021223Y009703D02*
X024910Y009703D01*
X024910Y009761D02*
X021223Y009761D01*
X021223Y009820D02*
X024910Y009820D01*
X024910Y009878D02*
X021223Y009878D01*
X021223Y009937D02*
X024910Y009937D01*
X024910Y009995D02*
X021223Y009995D01*
X021223Y010054D02*
X024910Y010054D01*
X024910Y010112D02*
X021223Y010112D01*
X021223Y010171D02*
X024910Y010171D01*
X024910Y010229D02*
X021223Y010229D01*
X021223Y010288D02*
X024910Y010288D01*
X024910Y010346D02*
X021223Y010346D01*
X021223Y010405D02*
X024910Y010405D01*
X024910Y010463D02*
X021223Y010463D01*
X021223Y010522D02*
X024910Y010522D01*
X024910Y010580D02*
X021223Y010580D01*
X021223Y010639D02*
X024910Y010639D01*
X024910Y010697D02*
X021223Y010697D01*
X021223Y010756D02*
X024910Y010756D01*
X024910Y010814D02*
X021223Y010814D01*
X021277Y010873D02*
X024910Y010873D01*
X024910Y010931D02*
X021336Y010931D01*
X021394Y010990D02*
X024910Y010990D01*
X024910Y011048D02*
X021453Y011048D01*
X021511Y011107D02*
X024910Y011107D01*
X024910Y011165D02*
X021570Y011165D01*
X021628Y011224D02*
X024910Y011224D01*
X024910Y011282D02*
X021687Y011282D01*
X021745Y011341D02*
X024910Y011341D01*
X024910Y011399D02*
X021804Y011399D01*
X021862Y011458D02*
X024910Y011458D01*
X024910Y011516D02*
X021921Y011516D01*
X021979Y011575D02*
X024910Y011575D01*
X024910Y011633D02*
X022038Y011633D01*
X022096Y011692D02*
X024910Y011692D01*
X024910Y011750D02*
X022155Y011750D01*
X022213Y011809D02*
X024910Y011809D01*
X024910Y011867D02*
X022272Y011867D01*
X022330Y011926D02*
X024910Y011926D01*
X024910Y011984D02*
X022389Y011984D01*
X022447Y012043D02*
X024910Y012043D01*
X024910Y012101D02*
X022474Y012101D01*
X022498Y012160D02*
X024910Y012160D01*
X024910Y012219D02*
X022522Y012219D01*
X022522Y012277D02*
X024910Y012277D01*
X024910Y012336D02*
X022522Y012336D01*
X022522Y012394D02*
X024910Y012394D01*
X024910Y012453D02*
X022522Y012453D01*
X022522Y012511D02*
X024910Y012511D01*
X024910Y012570D02*
X022522Y012570D01*
X022522Y012628D02*
X024910Y012628D01*
X024910Y012687D02*
X022522Y012687D01*
X022522Y012745D02*
X024910Y012745D01*
X024910Y012804D02*
X022522Y012804D01*
X022522Y012862D02*
X024910Y012862D01*
X024910Y012921D02*
X022522Y012921D01*
X022522Y012979D02*
X024910Y012979D01*
X024910Y013038D02*
X022522Y013038D01*
X022522Y013096D02*
X024910Y013096D01*
X024910Y013155D02*
X022522Y013155D01*
X022526Y013213D02*
X024910Y013213D01*
X024910Y013272D02*
X022584Y013272D01*
X022608Y013330D02*
X024910Y013330D01*
X024910Y013389D02*
X022632Y013389D01*
X022638Y013447D02*
X024910Y013447D01*
X024910Y013506D02*
X022638Y013506D01*
X022638Y013564D02*
X024910Y013564D01*
X024910Y013623D02*
X022638Y013623D01*
X022638Y013681D02*
X024910Y013681D01*
X024910Y013740D02*
X022638Y013740D01*
X022638Y013798D02*
X024910Y013798D01*
X024910Y013857D02*
X022638Y013857D01*
X022638Y013915D02*
X024910Y013915D01*
X024910Y013974D02*
X022638Y013974D01*
X022638Y014032D02*
X024910Y014032D01*
X024910Y014091D02*
X022638Y014091D01*
X022638Y014149D02*
X024910Y014149D01*
X024910Y014208D02*
X022638Y014208D01*
X022638Y014266D02*
X024910Y014266D01*
X024910Y014325D02*
X022624Y014325D01*
X022600Y014383D02*
X024910Y014383D01*
X024910Y014442D02*
X022566Y014442D01*
X022507Y014500D02*
X024910Y014500D01*
X024910Y014559D02*
X022405Y014559D01*
X021714Y014559D02*
X021106Y014559D01*
X021208Y014500D02*
X021612Y014500D01*
X021554Y014442D02*
X021266Y014442D01*
X021301Y014383D02*
X021519Y014383D01*
X021495Y014325D02*
X021325Y014325D01*
X021339Y014266D02*
X021481Y014266D01*
X021481Y014208D02*
X021339Y014208D01*
X021339Y014149D02*
X021481Y014149D01*
X021481Y014091D02*
X021339Y014091D01*
X021339Y014032D02*
X021481Y014032D01*
X021481Y013974D02*
X021339Y013974D01*
X021339Y013915D02*
X021481Y013915D01*
X021481Y013857D02*
X021339Y013857D01*
X021339Y013798D02*
X021481Y013798D01*
X021481Y013740D02*
X021339Y013740D01*
X021339Y013681D02*
X021481Y013681D01*
X021481Y013623D02*
X021339Y013623D01*
X021339Y013564D02*
X021481Y013564D01*
X021481Y013506D02*
X021339Y013506D01*
X021339Y013447D02*
X021481Y013447D01*
X021487Y013389D02*
X021333Y013389D01*
X021309Y013330D02*
X021511Y013330D01*
X021536Y013272D02*
X021284Y013272D01*
X021227Y013213D02*
X021593Y013213D01*
X021597Y013155D02*
X021152Y013155D01*
X021597Y013096D02*
X017813Y013096D01*
X017813Y013038D02*
X021597Y013038D01*
X021597Y012979D02*
X017813Y012979D01*
X017813Y012921D02*
X021597Y012921D01*
X021597Y012862D02*
X017813Y012862D01*
X017813Y012804D02*
X021597Y012804D01*
X021597Y012745D02*
X017813Y012745D01*
X017813Y012687D02*
X021597Y012687D01*
X021597Y012628D02*
X017813Y012628D01*
X017790Y012570D02*
X021597Y012570D01*
X021597Y012511D02*
X017765Y012511D01*
X017741Y012453D02*
X021548Y012453D01*
X021490Y012394D02*
X017717Y012394D01*
X017663Y012336D02*
X021431Y012336D01*
X021373Y012277D02*
X017605Y012277D01*
X017546Y012219D02*
X021314Y012219D01*
X021256Y012160D02*
X017429Y012160D01*
X016891Y012160D02*
X016429Y012160D01*
X016546Y012219D02*
X016774Y012219D01*
X016715Y012277D02*
X016605Y012277D01*
X015891Y012160D02*
X015429Y012160D01*
X015546Y012219D02*
X015774Y012219D01*
X015715Y012277D02*
X015605Y012277D01*
X014891Y012160D02*
X014429Y012160D01*
X014546Y012219D02*
X014774Y012219D01*
X014715Y012277D02*
X014605Y012277D01*
X013891Y012160D02*
X013429Y012160D01*
X013546Y012219D02*
X013774Y012219D01*
X013715Y012277D02*
X013605Y012277D01*
X012891Y012160D02*
X012429Y012160D01*
X012546Y012219D02*
X012774Y012219D01*
X012715Y012277D02*
X012605Y012277D01*
X011891Y012160D02*
X009883Y012160D01*
X009883Y012219D02*
X011774Y012219D01*
X011715Y012277D02*
X009883Y012277D01*
X009883Y012336D02*
X011027Y012336D01*
X011057Y012326D02*
X011125Y012315D01*
X011130Y012315D01*
X011130Y012880D01*
X010720Y012880D01*
X010720Y012720D01*
X010731Y012652D01*
X010752Y012586D01*
X010784Y012524D01*
X010824Y012468D01*
X010873Y012419D01*
X010929Y012379D01*
X010991Y012347D01*
X011057Y012326D01*
X011130Y012336D02*
X011190Y012336D01*
X011190Y012394D02*
X011130Y012394D01*
X011130Y012453D02*
X011190Y012453D01*
X011190Y012511D02*
X011130Y012511D01*
X011130Y012570D02*
X011190Y012570D01*
X011190Y012628D02*
X011130Y012628D01*
X011130Y012687D02*
X011190Y012687D01*
X011190Y012745D02*
X011130Y012745D01*
X011130Y012804D02*
X011190Y012804D01*
X011190Y012862D02*
X011130Y012862D01*
X011130Y012921D02*
X010325Y012921D01*
X010383Y012979D02*
X010720Y012979D01*
X010720Y013038D02*
X010442Y013038D01*
X010500Y013096D02*
X010720Y013096D01*
X010729Y013155D02*
X010559Y013155D01*
X010617Y013213D02*
X010745Y013213D01*
X010771Y013272D02*
X010676Y013272D01*
X010734Y013330D02*
X010809Y013330D01*
X010793Y013389D02*
X010861Y013389D01*
X010851Y013447D02*
X010941Y013447D01*
X010910Y013506D02*
X011678Y013506D01*
X011736Y013564D02*
X010968Y013564D01*
X011027Y013623D02*
X011801Y013623D01*
X011942Y013681D02*
X011085Y013681D01*
X011130Y013447D02*
X011190Y013447D01*
X011190Y013389D02*
X011130Y013389D01*
X011130Y013330D02*
X011190Y013330D01*
X011190Y013272D02*
X011130Y013272D01*
X011130Y013213D02*
X011190Y013213D01*
X011190Y013155D02*
X011130Y013155D01*
X011130Y013096D02*
X011190Y013096D01*
X011190Y013038D02*
X011130Y013038D01*
X011130Y012979D02*
X011190Y012979D01*
X011511Y013330D02*
X011563Y013330D01*
X011588Y013389D02*
X011459Y013389D01*
X011379Y013447D02*
X011619Y013447D01*
X011555Y012511D02*
X011527Y012511D01*
X011480Y012453D02*
X011579Y012453D01*
X011603Y012394D02*
X011412Y012394D01*
X011293Y012336D02*
X011657Y012336D01*
X010908Y012394D02*
X009883Y012394D01*
X009883Y012453D02*
X010840Y012453D01*
X010793Y012511D02*
X009915Y012511D01*
X009974Y012570D02*
X010761Y012570D01*
X010739Y012628D02*
X010032Y012628D01*
X010091Y012687D02*
X010725Y012687D01*
X010720Y012745D02*
X010149Y012745D01*
X010208Y012804D02*
X010720Y012804D01*
X010720Y012862D02*
X010266Y012862D01*
X009883Y012101D02*
X021197Y012101D01*
X021139Y012043D02*
X009883Y012043D01*
X009883Y011984D02*
X021080Y011984D01*
X021022Y011926D02*
X009883Y011926D01*
X009883Y011867D02*
X020963Y011867D01*
X020905Y011809D02*
X009879Y011809D01*
X009855Y011750D02*
X020846Y011750D01*
X020788Y011692D02*
X009831Y011692D01*
X009778Y011633D02*
X020729Y011633D01*
X020671Y011575D02*
X009715Y011575D01*
X009655Y011048D02*
X020298Y011048D01*
X020298Y010990D02*
X009684Y010990D01*
X009690Y010931D02*
X020298Y010931D01*
X020298Y010873D02*
X009690Y010873D01*
X009690Y010814D02*
X020298Y010814D01*
X020298Y010756D02*
X009690Y010756D01*
X009690Y010697D02*
X010982Y010697D01*
X010840Y010639D02*
X009334Y010639D01*
X009334Y010630D02*
X009690Y010630D01*
X009690Y010350D01*
X009679Y010311D01*
X009659Y010275D01*
X009630Y010246D01*
X009594Y010226D01*
X009554Y010215D01*
X009334Y010215D01*
X009334Y010630D01*
X009334Y010580D02*
X009274Y010580D01*
X009274Y010522D02*
X009334Y010522D01*
X009334Y010463D02*
X009274Y010463D01*
X009274Y010405D02*
X009334Y010405D01*
X009334Y010346D02*
X009274Y010346D01*
X009274Y010288D02*
X009334Y010288D01*
X009334Y010229D02*
X009274Y010229D01*
X009062Y010171D02*
X010507Y010171D01*
X010507Y010112D02*
X009009Y010112D01*
X008979Y010054D02*
X010507Y010054D01*
X010507Y009995D02*
X008979Y009995D01*
X008979Y009937D02*
X010507Y009937D01*
X010507Y009878D02*
X008979Y009878D01*
X008979Y009820D02*
X010507Y009820D01*
X010507Y009761D02*
X008979Y009761D01*
X009014Y009703D02*
X010507Y009703D01*
X010507Y009644D02*
X009064Y009644D01*
X009601Y010229D02*
X010522Y010229D01*
X010546Y010288D02*
X009666Y010288D01*
X009689Y010346D02*
X010570Y010346D01*
X010594Y010405D02*
X009690Y010405D01*
X009690Y010463D02*
X010636Y010463D01*
X010694Y010522D02*
X009690Y010522D01*
X009690Y010580D02*
X010753Y010580D01*
X011338Y010697D02*
X011982Y010697D01*
X011840Y010639D02*
X011480Y010639D01*
X011567Y010580D02*
X011753Y010580D01*
X011694Y010522D02*
X011626Y010522D01*
X012338Y010697D02*
X012982Y010697D01*
X012840Y010639D02*
X012480Y010639D01*
X012567Y010580D02*
X012753Y010580D01*
X012694Y010522D02*
X012626Y010522D01*
X013338Y010697D02*
X013982Y010697D01*
X013840Y010639D02*
X013480Y010639D01*
X013567Y010580D02*
X013753Y010580D01*
X013694Y010522D02*
X013626Y010522D01*
X014338Y010697D02*
X014982Y010697D01*
X014840Y010639D02*
X014480Y010639D01*
X014567Y010580D02*
X014753Y010580D01*
X014694Y010522D02*
X014626Y010522D01*
X015338Y010697D02*
X015982Y010697D01*
X015840Y010639D02*
X015480Y010639D01*
X015567Y010580D02*
X015753Y010580D01*
X015694Y010522D02*
X015626Y010522D01*
X016338Y010697D02*
X016982Y010697D01*
X016840Y010639D02*
X016480Y010639D01*
X016567Y010580D02*
X016753Y010580D01*
X016694Y010522D02*
X016626Y010522D01*
X017338Y010697D02*
X020298Y010697D01*
X020298Y010639D02*
X017480Y010639D01*
X017567Y010580D02*
X020298Y010580D01*
X020298Y010522D02*
X017626Y010522D01*
X017684Y010463D02*
X020298Y010463D01*
X020298Y010405D02*
X017726Y010405D01*
X017750Y010346D02*
X020298Y010346D01*
X020298Y010288D02*
X017774Y010288D01*
X017798Y010229D02*
X020298Y010229D01*
X020298Y010171D02*
X017813Y010171D01*
X017813Y010112D02*
X020298Y010112D01*
X020298Y010054D02*
X017813Y010054D01*
X017813Y009995D02*
X020298Y009995D01*
X020298Y009937D02*
X017813Y009937D01*
X017813Y009878D02*
X020298Y009878D01*
X020298Y009820D02*
X017813Y009820D01*
X017813Y009761D02*
X020298Y009761D01*
X020298Y009703D02*
X017813Y009703D01*
X017813Y009644D02*
X020298Y009644D01*
X020273Y009586D02*
X017796Y009586D01*
X017772Y009527D02*
X020228Y009527D01*
X020204Y009469D02*
X017748Y009469D01*
X017724Y009410D02*
X020182Y009410D01*
X020182Y009352D02*
X017680Y009352D01*
X017621Y009293D02*
X020182Y009293D01*
X020182Y009235D02*
X017563Y009235D01*
X017469Y009176D02*
X020182Y009176D01*
X020182Y009118D02*
X017327Y009118D01*
X017222Y009001D02*
X020182Y009001D01*
X020182Y009059D02*
X017180Y009059D01*
X017247Y008942D02*
X020182Y008942D01*
X020182Y008884D02*
X017271Y008884D01*
X017295Y008825D02*
X020182Y008825D01*
X020182Y008767D02*
X017310Y008767D01*
X017310Y008708D02*
X020182Y008708D01*
X020182Y008650D02*
X017310Y008650D01*
X017310Y008591D02*
X020182Y008591D01*
X020182Y008533D02*
X017310Y008533D01*
X017287Y008474D02*
X020205Y008474D01*
X020229Y008416D02*
X017263Y008416D01*
X017238Y008357D02*
X020275Y008357D01*
X020334Y008299D02*
X017214Y008299D01*
X017160Y008240D02*
X020466Y008240D01*
X020367Y007538D02*
X015373Y007538D01*
X015373Y007480D02*
X020293Y007480D01*
X020236Y007421D02*
X015373Y007421D01*
X015373Y007363D02*
X020212Y007363D01*
X020188Y007304D02*
X018604Y007304D01*
X018543Y007330D02*
X018277Y007330D01*
X018031Y007228D01*
X017910Y007107D01*
X017789Y007228D01*
X017543Y007330D01*
X017277Y007330D01*
X017031Y007228D01*
X016910Y007107D01*
X016789Y007228D01*
X016543Y007330D01*
X016277Y007330D01*
X016031Y007228D01*
X015842Y007039D01*
X015740Y006793D01*
X015740Y006527D01*
X015842Y006281D01*
X016031Y006092D01*
X016156Y006040D01*
X016112Y006009D01*
X016061Y005958D01*
X016019Y005900D01*
X015986Y005835D01*
X015964Y005767D01*
X015953Y005696D01*
X015953Y005690D01*
X016380Y005690D01*
X016380Y005630D01*
X015953Y005630D01*
X015953Y005624D01*
X015964Y005553D01*
X015986Y005485D01*
X016019Y005420D01*
X016061Y005362D01*
X016112Y005311D01*
X016170Y005269D01*
X016235Y005236D01*
X016303Y005214D01*
X016374Y005203D01*
X016380Y005203D01*
X016380Y005630D01*
X016440Y005630D01*
X016440Y005203D01*
X016446Y005203D01*
X016517Y005214D01*
X016585Y005236D01*
X016650Y005269D01*
X016708Y005311D01*
X016759Y005362D01*
X016790Y005406D01*
X016842Y005281D01*
X017031Y005092D01*
X017277Y004990D01*
X017543Y004990D01*
X017789Y005092D01*
X017910Y005213D01*
X018031Y005092D01*
X018277Y004990D01*
X018543Y004990D01*
X018789Y005092D01*
X018978Y005281D01*
X019080Y005527D01*
X019080Y005793D01*
X018978Y006039D01*
X018857Y006160D01*
X018978Y006281D01*
X019080Y006527D01*
X019080Y006793D01*
X018978Y007039D01*
X018789Y007228D01*
X018543Y007330D01*
X018745Y007246D02*
X020182Y007246D01*
X020182Y007187D02*
X018830Y007187D01*
X018888Y007129D02*
X020182Y007129D01*
X020182Y007070D02*
X018947Y007070D01*
X018989Y007012D02*
X020182Y007012D01*
X020182Y006953D02*
X019013Y006953D01*
X019038Y006895D02*
X020182Y006895D01*
X020182Y006836D02*
X019062Y006836D01*
X019080Y006778D02*
X020182Y006778D01*
X020182Y006719D02*
X019080Y006719D01*
X019080Y006661D02*
X020182Y006661D01*
X020182Y006602D02*
X019080Y006602D01*
X019080Y006544D02*
X020182Y006544D01*
X020182Y006485D02*
X019063Y006485D01*
X019038Y006427D02*
X020182Y006427D01*
X020196Y006368D02*
X019014Y006368D01*
X018990Y006310D02*
X020156Y006310D01*
X020097Y006251D02*
X018949Y006251D01*
X018890Y006193D02*
X020039Y006193D01*
X019980Y006134D02*
X018883Y006134D01*
X018941Y006076D02*
X019922Y006076D01*
X019863Y006017D02*
X018987Y006017D01*
X019011Y005959D02*
X019805Y005959D01*
X019746Y005900D02*
X019035Y005900D01*
X019060Y005842D02*
X019688Y005842D01*
X019629Y005783D02*
X019080Y005783D01*
X019080Y005725D02*
X019571Y005725D01*
X019512Y005666D02*
X019080Y005666D01*
X019080Y005608D02*
X019454Y005608D01*
X019395Y005549D02*
X019080Y005549D01*
X019065Y005491D02*
X019337Y005491D01*
X019278Y005432D02*
X019041Y005432D01*
X019016Y005374D02*
X019220Y005374D01*
X019161Y005315D02*
X018992Y005315D01*
X018954Y005257D02*
X019103Y005257D01*
X019044Y005198D02*
X018896Y005198D01*
X018837Y005140D02*
X018986Y005140D01*
X018927Y005081D02*
X018763Y005081D01*
X018869Y005023D02*
X018622Y005023D01*
X018752Y004906D02*
X016068Y004906D01*
X016010Y004964D02*
X018810Y004964D01*
X018693Y004847D02*
X016127Y004847D01*
X016340Y004789D02*
X018635Y004789D01*
X018576Y004730D02*
X016482Y004730D01*
X016567Y004672D02*
X018518Y004672D01*
X018459Y004613D02*
X016626Y004613D01*
X016684Y004555D02*
X018401Y004555D01*
X018342Y004496D02*
X016724Y004496D01*
X016749Y004438D02*
X018284Y004438D01*
X018225Y004379D02*
X016773Y004379D01*
X016797Y004321D02*
X018167Y004321D01*
X018108Y004262D02*
X017654Y004262D01*
X017785Y004204D02*
X018050Y004204D01*
X018198Y005023D02*
X017622Y005023D01*
X017763Y005081D02*
X018057Y005081D01*
X017983Y005140D02*
X017837Y005140D01*
X017896Y005198D02*
X017924Y005198D01*
X017198Y005023D02*
X015951Y005023D01*
X015893Y005081D02*
X017057Y005081D01*
X016983Y005140D02*
X015834Y005140D01*
X015776Y005198D02*
X016924Y005198D01*
X016866Y005257D02*
X016626Y005257D01*
X016712Y005315D02*
X016828Y005315D01*
X016804Y005374D02*
X016767Y005374D01*
X016440Y005374D02*
X016380Y005374D01*
X016380Y005432D02*
X016440Y005432D01*
X016440Y005491D02*
X016380Y005491D01*
X016380Y005549D02*
X016440Y005549D01*
X016440Y005608D02*
X016380Y005608D01*
X016380Y005666D02*
X015373Y005666D01*
X015373Y005608D02*
X015955Y005608D01*
X015965Y005549D02*
X015425Y005549D01*
X015483Y005491D02*
X015984Y005491D01*
X016013Y005432D02*
X015542Y005432D01*
X015600Y005374D02*
X016053Y005374D01*
X016108Y005315D02*
X015659Y005315D01*
X015717Y005257D02*
X016194Y005257D01*
X016380Y005257D02*
X016440Y005257D01*
X016440Y005315D02*
X016380Y005315D01*
X015957Y005725D02*
X015373Y005725D01*
X015373Y005783D02*
X015969Y005783D01*
X015990Y005842D02*
X015373Y005842D01*
X015373Y005900D02*
X016020Y005900D01*
X016062Y005959D02*
X015373Y005959D01*
X015373Y006017D02*
X016124Y006017D01*
X016070Y006076D02*
X015373Y006076D01*
X015373Y006134D02*
X015988Y006134D01*
X015930Y006193D02*
X015373Y006193D01*
X015373Y006251D02*
X015871Y006251D01*
X015830Y006310D02*
X015373Y006310D01*
X015373Y006368D02*
X015806Y006368D01*
X015782Y006427D02*
X015373Y006427D01*
X015373Y006485D02*
X015757Y006485D01*
X015740Y006544D02*
X015373Y006544D01*
X015373Y006602D02*
X015740Y006602D01*
X015740Y006661D02*
X015373Y006661D01*
X015373Y006719D02*
X015740Y006719D01*
X015740Y006778D02*
X015373Y006778D01*
X015373Y006836D02*
X015758Y006836D01*
X015782Y006895D02*
X015373Y006895D01*
X015373Y006953D02*
X015807Y006953D01*
X015831Y007012D02*
X015373Y007012D01*
X015373Y007070D02*
X015873Y007070D01*
X015932Y007129D02*
X015373Y007129D01*
X015373Y007187D02*
X015990Y007187D01*
X016075Y007246D02*
X015373Y007246D01*
X015373Y007304D02*
X016216Y007304D01*
X016604Y007304D02*
X017216Y007304D01*
X017075Y007246D02*
X016745Y007246D01*
X016830Y007187D02*
X016990Y007187D01*
X016932Y007129D02*
X016888Y007129D01*
X017604Y007304D02*
X018216Y007304D01*
X018075Y007246D02*
X017745Y007246D01*
X017830Y007187D02*
X017990Y007187D01*
X017932Y007129D02*
X017888Y007129D01*
X015661Y008006D02*
X024910Y008006D01*
X024910Y007948D02*
X015602Y007948D01*
X015544Y007889D02*
X024910Y007889D01*
X024910Y007831D02*
X015485Y007831D01*
X015427Y007772D02*
X024910Y007772D01*
X024910Y007714D02*
X015373Y007714D01*
X015373Y007655D02*
X024910Y007655D01*
X024910Y007597D02*
X015373Y007597D01*
X014447Y006368D02*
X010599Y006368D01*
X010740Y006310D02*
X014447Y006310D01*
X014447Y006251D02*
X010809Y006251D01*
X010868Y006193D02*
X014447Y006193D01*
X014447Y006134D02*
X010926Y006134D01*
X010985Y006076D02*
X014447Y006076D01*
X014447Y006017D02*
X011043Y006017D01*
X011102Y005959D02*
X014447Y005959D01*
X014447Y005900D02*
X011160Y005900D01*
X011219Y005842D02*
X014447Y005842D01*
X014447Y005783D02*
X011277Y005783D01*
X011336Y005725D02*
X014447Y005725D01*
X014447Y005666D02*
X011394Y005666D01*
X011453Y005608D02*
X014447Y005608D01*
X014447Y005549D02*
X011511Y005549D01*
X011570Y005491D02*
X014447Y005491D01*
X014447Y005432D02*
X011628Y005432D01*
X011687Y005374D02*
X014447Y005374D01*
X014448Y005315D02*
X011745Y005315D01*
X011804Y005257D02*
X014473Y005257D01*
X014497Y005198D02*
X011862Y005198D01*
X011921Y005140D02*
X014526Y005140D01*
X014584Y005081D02*
X011979Y005081D01*
X012038Y005023D02*
X014643Y005023D01*
X014701Y004964D02*
X012096Y004964D01*
X012155Y004906D02*
X014760Y004906D01*
X014818Y004847D02*
X012213Y004847D01*
X012272Y004789D02*
X014877Y004789D01*
X014935Y004730D02*
X012330Y004730D01*
X012389Y004672D02*
X014994Y004672D01*
X015052Y004613D02*
X012447Y004613D01*
X012506Y004555D02*
X015111Y004555D01*
X015169Y004496D02*
X012564Y004496D01*
X012623Y004438D02*
X015228Y004438D01*
X015188Y004379D02*
X015286Y004379D01*
X015312Y004321D02*
X015345Y004321D01*
X015371Y004262D02*
X015403Y004262D01*
X015414Y004204D02*
X015462Y004204D01*
X015438Y004145D02*
X015510Y004145D01*
X015510Y004087D02*
X015459Y004087D01*
X015459Y004028D02*
X015511Y004028D01*
X015535Y003970D02*
X015459Y003970D01*
X015459Y003911D02*
X015559Y003911D01*
X015584Y003853D02*
X015459Y003853D01*
X015459Y003794D02*
X015608Y003794D01*
X015665Y003736D02*
X015459Y003736D01*
X015509Y003677D02*
X015723Y003677D01*
X015782Y003619D02*
X015568Y003619D01*
X015626Y003560D02*
X015909Y003560D01*
X015743Y003443D02*
X016796Y003443D01*
X016820Y003385D02*
X015802Y003385D01*
X015860Y003326D02*
X016845Y003326D01*
X016883Y003268D02*
X015919Y003268D01*
X015977Y003209D02*
X016941Y003209D01*
X017000Y003151D02*
X016036Y003151D01*
X015685Y003502D02*
X016772Y003502D01*
X016760Y003560D02*
X016411Y003560D01*
X016538Y003619D02*
X016760Y003619D01*
X016760Y003677D02*
X016597Y003677D01*
X016655Y003736D02*
X016760Y003736D01*
X016762Y003794D02*
X016712Y003794D01*
X016736Y003853D02*
X016786Y003853D01*
X016761Y003911D02*
X016811Y003911D01*
X016835Y003970D02*
X016785Y003970D01*
X016809Y004028D02*
X016859Y004028D01*
X016810Y004087D02*
X016918Y004087D01*
X016976Y004145D02*
X016810Y004145D01*
X016810Y004204D02*
X017035Y004204D01*
X017166Y004262D02*
X016810Y004262D01*
X015254Y002624D02*
X015247Y002624D01*
X015247Y002566D02*
X015312Y002566D01*
X014753Y002566D02*
X014693Y002566D01*
X014693Y002624D02*
X014753Y002624D01*
X014753Y002683D02*
X014693Y002683D01*
X014693Y002741D02*
X014753Y002741D01*
X014753Y002800D02*
X014693Y002800D01*
X014693Y002858D02*
X014753Y002858D01*
X014753Y002390D02*
X014693Y002390D01*
X014693Y002332D02*
X014753Y002332D01*
X014753Y002273D02*
X014693Y002273D01*
X014693Y002215D02*
X014753Y002215D01*
X014753Y002156D02*
X014693Y002156D01*
X014190Y003268D02*
X013130Y003268D01*
X013214Y003326D02*
X014106Y003326D01*
X014047Y003385D02*
X013273Y003385D01*
X013300Y003443D02*
X014020Y003443D01*
X013996Y003502D02*
X013324Y003502D01*
X013333Y003560D02*
X013987Y003560D01*
X013987Y003619D02*
X013333Y003619D01*
X013333Y003677D02*
X013987Y003677D01*
X013987Y003736D02*
X013333Y003736D01*
X013333Y003794D02*
X013987Y003794D01*
X013987Y003853D02*
X013333Y003853D01*
X013333Y003911D02*
X013987Y003911D01*
X013987Y003970D02*
X013333Y003970D01*
X013333Y004028D02*
X013987Y004028D01*
X013987Y004087D02*
X013333Y004087D01*
X013312Y004145D02*
X014008Y004145D01*
X014032Y004204D02*
X013288Y004204D01*
X013245Y004262D02*
X014075Y004262D01*
X014134Y004321D02*
X013186Y004321D01*
X013062Y004379D02*
X014258Y004379D01*
X018544Y002215D02*
X024910Y002215D01*
X024910Y002273D02*
X018678Y002273D01*
X018736Y002332D02*
X024910Y002332D01*
X024910Y002390D02*
X018795Y002390D01*
X018853Y002449D02*
X024910Y002449D01*
X024910Y002507D02*
X018912Y002507D01*
X018970Y002566D02*
X024910Y002566D01*
X024910Y002624D02*
X019029Y002624D01*
X019087Y002683D02*
X024910Y002683D01*
X024910Y002741D02*
X019146Y002741D01*
X019204Y002800D02*
X024910Y002800D01*
X024910Y002858D02*
X019263Y002858D01*
X019321Y002917D02*
X024910Y002917D01*
X024910Y002975D02*
X019380Y002975D01*
X019438Y003034D02*
X024910Y003034D01*
X024910Y003092D02*
X019497Y003092D01*
X019555Y003151D02*
X024910Y003151D01*
X024910Y003209D02*
X019614Y003209D01*
X019672Y003268D02*
X024910Y003268D01*
X024910Y003326D02*
X019731Y003326D01*
X019789Y003385D02*
X024910Y003385D01*
X024910Y003443D02*
X019848Y003443D01*
X019906Y003502D02*
X024910Y003502D01*
X024910Y003560D02*
X019965Y003560D01*
X020023Y003619D02*
X024910Y003619D01*
X024910Y003677D02*
X020082Y003677D01*
X020140Y003736D02*
X024910Y003736D01*
X024910Y003794D02*
X020199Y003794D01*
X020257Y003853D02*
X024910Y003853D01*
X024910Y003911D02*
X020316Y003911D01*
X020374Y003970D02*
X024910Y003970D01*
X024910Y004028D02*
X020433Y004028D01*
X020491Y004087D02*
X024910Y004087D01*
X024910Y004145D02*
X020550Y004145D01*
X020608Y004204D02*
X024910Y004204D01*
X024910Y004262D02*
X020667Y004262D01*
X020725Y004321D02*
X024910Y004321D01*
X024910Y004379D02*
X020784Y004379D01*
X020842Y004438D02*
X024910Y004438D01*
X024910Y004496D02*
X020901Y004496D01*
X020959Y004555D02*
X024910Y004555D01*
X024910Y004613D02*
X021018Y004613D01*
X021076Y004672D02*
X024910Y004672D01*
X024910Y004730D02*
X021135Y004730D01*
X021193Y004789D02*
X024910Y004789D01*
X024910Y004847D02*
X021252Y004847D01*
X021310Y004906D02*
X024910Y004906D01*
X024910Y004964D02*
X021369Y004964D01*
X021427Y005023D02*
X024910Y005023D01*
X024910Y005081D02*
X021486Y005081D01*
X021544Y005140D02*
X024910Y005140D01*
X024910Y005198D02*
X021603Y005198D01*
X021661Y005257D02*
X024910Y005257D01*
X024910Y005315D02*
X021720Y005315D01*
X021778Y005374D02*
X024910Y005374D01*
X024910Y005432D02*
X021837Y005432D01*
X021895Y005491D02*
X024910Y005491D01*
X024910Y005549D02*
X021954Y005549D01*
X022012Y005608D02*
X024910Y005608D01*
X024910Y005666D02*
X022071Y005666D01*
X022129Y005725D02*
X024910Y005725D01*
X024910Y005783D02*
X022188Y005783D01*
X022246Y005842D02*
X024910Y005842D01*
X024910Y005900D02*
X022305Y005900D01*
X022363Y005959D02*
X024910Y005959D01*
X024910Y006017D02*
X022422Y006017D01*
X022464Y006076D02*
X024910Y006076D01*
X024910Y006134D02*
X022488Y006134D01*
X022512Y006193D02*
X024910Y006193D01*
X024910Y006251D02*
X022565Y006251D01*
X022599Y006310D02*
X024910Y006310D01*
X024910Y006368D02*
X022624Y006368D01*
X022638Y006427D02*
X024910Y006427D01*
X024910Y006485D02*
X022638Y006485D01*
X022638Y006544D02*
X024910Y006544D01*
X024910Y006602D02*
X022638Y006602D01*
X022638Y006661D02*
X024910Y006661D01*
X024910Y006719D02*
X022638Y006719D01*
X022638Y006778D02*
X024910Y006778D01*
X024910Y006836D02*
X022638Y006836D01*
X022638Y006895D02*
X024910Y006895D01*
X024910Y006953D02*
X022638Y006953D01*
X022638Y007012D02*
X024910Y007012D01*
X024910Y007070D02*
X022638Y007070D01*
X022638Y007129D02*
X024910Y007129D01*
X024910Y007187D02*
X022638Y007187D01*
X022638Y007246D02*
X024910Y007246D01*
X024910Y007304D02*
X022632Y007304D01*
X022608Y007363D02*
X024910Y007363D01*
X024910Y007421D02*
X022584Y007421D01*
X022527Y007480D02*
X024910Y007480D01*
X024910Y007538D02*
X022453Y007538D01*
X021666Y007538D02*
X021154Y007538D01*
X021228Y007480D02*
X021592Y007480D01*
X021535Y007421D02*
X021285Y007421D01*
X021309Y007363D02*
X021511Y007363D01*
X021487Y007304D02*
X021333Y007304D01*
X021339Y007246D02*
X021481Y007246D01*
X021481Y007187D02*
X021339Y007187D01*
X021339Y007129D02*
X021481Y007129D01*
X021481Y007070D02*
X021339Y007070D01*
X021339Y007012D02*
X021481Y007012D01*
X021481Y006953D02*
X021339Y006953D01*
X021339Y006895D02*
X021481Y006895D01*
X021481Y006836D02*
X021339Y006836D01*
X021339Y006778D02*
X021481Y006778D01*
X021481Y006719D02*
X021339Y006719D01*
X021339Y006661D02*
X021481Y006661D01*
X021481Y006602D02*
X021339Y006602D01*
X021339Y006544D02*
X021481Y006544D01*
X021481Y006485D02*
X021339Y006485D01*
X021339Y006427D02*
X021481Y006427D01*
X021464Y006368D02*
X021324Y006368D01*
X021300Y006310D02*
X021406Y006310D01*
X021347Y006251D02*
X021265Y006251D01*
X021289Y006193D02*
X021223Y006193D01*
X021230Y006134D02*
X021209Y006134D01*
X020300Y011107D02*
X009080Y011107D01*
X009051Y011165D02*
X020324Y011165D01*
X020348Y011224D02*
X008993Y011224D01*
X008905Y011282D02*
X020378Y011282D01*
X020437Y011341D02*
X007745Y011341D01*
X007687Y011282D02*
X008128Y011282D01*
X008040Y011224D02*
X007628Y011224D01*
X007570Y011165D02*
X007981Y011165D01*
X007953Y011107D02*
X007511Y011107D01*
X007453Y011048D02*
X007929Y011048D01*
X007918Y010990D02*
X007394Y010990D01*
X007336Y010931D02*
X007918Y010931D01*
X007918Y010873D02*
X007277Y010873D01*
X007219Y010814D02*
X007918Y010814D01*
X007918Y010756D02*
X007160Y010756D01*
X007102Y010697D02*
X007918Y010697D01*
X007918Y010639D02*
X007043Y010639D01*
X007052Y010648D02*
X007052Y010648D01*
X006985Y010580D02*
X007918Y010580D01*
X007918Y010522D02*
X006926Y010522D01*
X006791Y010463D02*
X007918Y010463D01*
X007918Y010405D02*
X006309Y010405D01*
X006251Y010346D02*
X007918Y010346D01*
X007922Y010288D02*
X006223Y010288D01*
X006223Y010229D02*
X007946Y010229D01*
X007970Y010171D02*
X006223Y010171D01*
X006223Y010112D02*
X008023Y010112D01*
X008054Y010054D02*
X006223Y010054D01*
X006223Y009995D02*
X008054Y009995D01*
X008054Y009937D02*
X006223Y009937D01*
X006223Y009878D02*
X008054Y009878D01*
X008054Y009820D02*
X006223Y009820D01*
X006223Y009761D02*
X008054Y009761D01*
X008019Y009703D02*
X006223Y009703D01*
X006223Y009644D02*
X007968Y009644D01*
X007944Y009586D02*
X006248Y009586D01*
X006293Y009527D02*
X007920Y009527D01*
X007918Y009469D02*
X007361Y009469D01*
X007367Y009466D02*
X007331Y009486D01*
X007292Y009497D01*
X007090Y009497D01*
X007090Y009003D01*
X007426Y009003D01*
X007426Y009363D01*
X007415Y009402D01*
X007395Y009437D01*
X007367Y009466D01*
X007411Y009410D02*
X007918Y009410D01*
X007918Y009352D02*
X007426Y009352D01*
X007426Y009293D02*
X007918Y009293D01*
X007918Y009235D02*
X007426Y009235D01*
X007426Y009176D02*
X007918Y009176D01*
X007918Y009118D02*
X007426Y009118D01*
X007426Y009059D02*
X007918Y009059D01*
X007918Y009001D02*
X007090Y009001D01*
X007090Y009003D02*
X007090Y008943D01*
X007426Y008943D01*
X007426Y008583D01*
X007415Y008544D01*
X007395Y008509D01*
X007367Y008480D01*
X007331Y008460D01*
X007292Y008449D01*
X007090Y008449D01*
X007090Y008943D01*
X007030Y008943D01*
X007030Y008449D01*
X006827Y008449D01*
X006788Y008460D01*
X006753Y008480D01*
X006724Y008509D01*
X006704Y008544D01*
X006693Y008583D01*
X006693Y008943D01*
X007030Y008943D01*
X007030Y009003D01*
X007030Y009497D01*
X006827Y009497D01*
X006788Y009486D01*
X006753Y009466D01*
X006724Y009437D01*
X006704Y009402D01*
X006693Y009363D01*
X006693Y009003D01*
X007030Y009003D01*
X007090Y009003D01*
X007090Y009059D02*
X007030Y009059D01*
X007030Y009001D02*
X006339Y009001D01*
X006339Y009059D02*
X006693Y009059D01*
X006693Y009118D02*
X006339Y009118D01*
X006339Y009176D02*
X006693Y009176D01*
X006693Y009235D02*
X006339Y009235D01*
X006339Y009293D02*
X006693Y009293D01*
X006693Y009352D02*
X006339Y009352D01*
X006339Y009410D02*
X006709Y009410D01*
X006758Y009469D02*
X006317Y009469D01*
X006339Y008942D02*
X006693Y008942D01*
X006693Y008884D02*
X006339Y008884D01*
X006339Y008825D02*
X006693Y008825D01*
X006693Y008767D02*
X006339Y008767D01*
X006339Y008708D02*
X006693Y008708D01*
X006693Y008650D02*
X006339Y008650D01*
X006339Y008591D02*
X006693Y008591D01*
X006710Y008533D02*
X006339Y008533D01*
X006316Y008474D02*
X006762Y008474D01*
X006675Y008299D02*
X008054Y008299D01*
X008054Y008357D02*
X006539Y008357D01*
X006734Y008240D02*
X008054Y008240D01*
X008054Y008182D02*
X006792Y008182D01*
X006851Y008123D02*
X008054Y008123D01*
X008054Y008065D02*
X006909Y008065D01*
X006968Y008006D02*
X008054Y008006D01*
X008054Y008416D02*
X006292Y008416D01*
X007030Y008474D02*
X007090Y008474D01*
X007090Y008533D02*
X007030Y008533D01*
X007030Y008591D02*
X007090Y008591D01*
X007090Y008650D02*
X007030Y008650D01*
X007030Y008708D02*
X007090Y008708D01*
X007090Y008767D02*
X007030Y008767D01*
X007030Y008825D02*
X007090Y008825D01*
X007090Y008884D02*
X007030Y008884D01*
X007030Y008942D02*
X007090Y008942D01*
X007090Y009118D02*
X007030Y009118D01*
X007030Y009176D02*
X007090Y009176D01*
X007090Y009235D02*
X007030Y009235D01*
X007030Y009293D02*
X007090Y009293D01*
X007090Y009352D02*
X007030Y009352D01*
X007030Y009410D02*
X007090Y009410D01*
X007090Y009469D02*
X007030Y009469D01*
X007426Y008942D02*
X007918Y008942D01*
X007918Y008884D02*
X007426Y008884D01*
X007426Y008825D02*
X007918Y008825D01*
X007930Y008767D02*
X007426Y008767D01*
X007426Y008708D02*
X007955Y008708D01*
X007986Y008650D02*
X007426Y008650D01*
X007426Y008591D02*
X008044Y008591D01*
X008054Y008533D02*
X007409Y008533D01*
X007357Y008474D02*
X008054Y008474D01*
X009274Y010697D02*
X009334Y010697D01*
X009334Y010756D02*
X009274Y010756D01*
X009274Y010814D02*
X009334Y010814D01*
X009334Y010873D02*
X009274Y010873D01*
X009274Y010931D02*
X009334Y010931D01*
X009334Y010990D02*
X009274Y010990D01*
X009274Y011048D02*
X009334Y011048D01*
X008105Y011575D02*
X007979Y011575D01*
X007921Y011516D02*
X020612Y011516D01*
X020554Y011458D02*
X007862Y011458D01*
X007804Y011399D02*
X020495Y011399D01*
X020369Y013155D02*
X017813Y013155D01*
X017805Y013213D02*
X020294Y013213D01*
X020236Y013272D02*
X017781Y013272D01*
X017757Y013330D02*
X020212Y013330D01*
X020188Y013389D02*
X017732Y013389D01*
X017701Y013447D02*
X020182Y013447D01*
X020182Y013506D02*
X017642Y013506D01*
X017584Y013564D02*
X020182Y013564D01*
X020182Y013623D02*
X017519Y013623D01*
X017378Y013681D02*
X020182Y013681D01*
X020182Y013740D02*
X015793Y013740D01*
X015810Y013798D02*
X020155Y013798D01*
X020097Y013857D02*
X015810Y013857D01*
X015810Y013915D02*
X020038Y013915D01*
X019980Y013974D02*
X015810Y013974D01*
X015810Y014032D02*
X019921Y014032D01*
X019863Y014091D02*
X015789Y014091D01*
X015765Y014149D02*
X019804Y014149D01*
X019746Y014208D02*
X015740Y014208D01*
X015716Y014266D02*
X019687Y014266D01*
X019629Y014325D02*
X015665Y014325D01*
X015606Y014383D02*
X019570Y014383D01*
X019512Y014442D02*
X015548Y014442D01*
X015434Y014500D02*
X019453Y014500D01*
X019395Y014559D02*
X015293Y014559D01*
X015016Y014617D02*
X019336Y014617D01*
X019278Y014676D02*
X012241Y014676D01*
X012363Y014734D02*
X019219Y014734D01*
X019161Y014793D02*
X012422Y014793D01*
X012466Y014851D02*
X019102Y014851D01*
X019044Y014910D02*
X012490Y014910D01*
X012512Y014968D02*
X018985Y014968D01*
X018927Y015027D02*
X012512Y015027D01*
X012512Y015085D02*
X018868Y015085D01*
X018810Y015144D02*
X012512Y015144D01*
X012512Y015202D02*
X018751Y015202D01*
X018693Y015261D02*
X012512Y015261D01*
X012512Y015319D02*
X018634Y015319D01*
X018576Y015378D02*
X012512Y015378D01*
X012512Y015436D02*
X018517Y015436D01*
X018459Y015495D02*
X012512Y015495D01*
X012512Y015553D02*
X018400Y015553D01*
X018342Y015612D02*
X012512Y015612D01*
X012512Y015670D02*
X018283Y015670D01*
X018225Y015729D02*
X012492Y015729D01*
X012468Y015787D02*
X018166Y015787D01*
X018108Y015846D02*
X012427Y015846D01*
X012368Y015904D02*
X018049Y015904D01*
X017991Y015963D02*
X012252Y015963D01*
X010749Y015963D02*
X010679Y015963D01*
X010701Y016021D02*
X017932Y016021D01*
X017874Y016080D02*
X010701Y016080D01*
X010701Y016138D02*
X017815Y016138D01*
X017763Y016197D02*
X010701Y016197D01*
X010701Y016255D02*
X017739Y016255D01*
X017715Y016314D02*
X010701Y016314D01*
X010701Y016372D02*
X017697Y016372D01*
X017697Y016431D02*
X010701Y016431D01*
X010701Y016489D02*
X017697Y016489D01*
X017697Y016548D02*
X010688Y016548D01*
X010664Y016606D02*
X017697Y016606D01*
X017697Y016665D02*
X010630Y016665D01*
X010572Y016723D02*
X017697Y016723D01*
X017697Y016782D02*
X010470Y016782D01*
X010484Y016840D02*
X017697Y016840D01*
X017697Y016899D02*
X010489Y016899D01*
X010489Y016957D02*
X017697Y016957D01*
X017697Y017016D02*
X010489Y017016D01*
X010489Y017133D02*
X017697Y017133D01*
X017697Y017191D02*
X010489Y017191D01*
X010489Y017250D02*
X017697Y017250D01*
X017697Y017308D02*
X010467Y017308D01*
X010404Y017367D02*
X010727Y017367D01*
X010788Y017341D02*
X010651Y017398D01*
X010546Y017503D01*
X010489Y017641D01*
X010489Y018356D01*
X010546Y018494D01*
X010651Y018599D01*
X010788Y018656D01*
X012213Y018656D01*
X012350Y018599D01*
X012455Y018494D01*
X012512Y018356D01*
X012512Y017641D01*
X012455Y017503D01*
X012350Y017398D01*
X012213Y017341D01*
X010788Y017341D01*
X010624Y017425D02*
X007754Y017425D01*
X007778Y017367D02*
X008503Y017367D01*
X008439Y017308D02*
X007802Y017308D01*
X007810Y017250D02*
X008418Y017250D01*
X008418Y017191D02*
X007810Y017191D01*
X007810Y017133D02*
X008418Y017133D01*
X008418Y017016D02*
X007804Y017016D01*
X007810Y017074D02*
X009423Y017074D01*
X009423Y017133D02*
X009483Y017133D01*
X009483Y017191D02*
X009423Y017191D01*
X009423Y017250D02*
X009483Y017250D01*
X009483Y017308D02*
X009423Y017308D01*
X009423Y017367D02*
X009483Y017367D01*
X009483Y017074D02*
X017697Y017074D01*
X017697Y017367D02*
X012274Y017367D01*
X012377Y017425D02*
X017697Y017425D01*
X017697Y017484D02*
X012436Y017484D01*
X012472Y017542D02*
X017697Y017542D01*
X017697Y017601D02*
X012496Y017601D01*
X012512Y017659D02*
X017697Y017659D01*
X017697Y017718D02*
X012512Y017718D01*
X012512Y017776D02*
X017697Y017776D01*
X017697Y017835D02*
X012512Y017835D01*
X012512Y017893D02*
X017697Y017893D01*
X017697Y017952D02*
X012512Y017952D01*
X012512Y018010D02*
X017697Y018010D01*
X017697Y018069D02*
X012512Y018069D01*
X012512Y018127D02*
X017697Y018127D01*
X017697Y018186D02*
X012512Y018186D01*
X012512Y018244D02*
X013369Y018244D01*
X013277Y018303D02*
X012512Y018303D01*
X012511Y018361D02*
X013218Y018361D01*
X013160Y018420D02*
X012486Y018420D01*
X012462Y018478D02*
X013101Y018478D01*
X013043Y018537D02*
X012413Y018537D01*
X012354Y018595D02*
X012984Y018595D01*
X012926Y018654D02*
X012219Y018654D01*
X012575Y019005D02*
X011318Y019005D01*
X011201Y018946D02*
X012633Y018946D01*
X012692Y018888D02*
X010754Y018888D01*
X010696Y018829D02*
X012750Y018829D01*
X012809Y018771D02*
X010637Y018771D01*
X010579Y018712D02*
X012867Y018712D01*
X014241Y020175D02*
X000910Y020175D01*
X000910Y020233D02*
X010275Y020233D01*
X010140Y020292D02*
X000910Y020292D01*
X000910Y020350D02*
X010082Y020350D01*
X010035Y020409D02*
X000910Y020409D01*
X000910Y020467D02*
X008145Y020467D01*
X008133Y020474D02*
X008168Y020454D01*
X008207Y020443D01*
X008567Y020443D01*
X008567Y020780D01*
X008073Y020780D01*
X008073Y020577D01*
X008084Y020538D01*
X008104Y020503D01*
X008133Y020474D01*
X008091Y020526D02*
X000910Y020526D01*
X000910Y020584D02*
X008073Y020584D01*
X008073Y020643D02*
X000910Y020643D01*
X000910Y020701D02*
X008073Y020701D01*
X008073Y020760D02*
X000910Y020760D01*
X000910Y020818D02*
X008567Y020818D01*
X008567Y020840D02*
X008567Y020780D01*
X008627Y020780D01*
X008627Y020840D01*
X008567Y020840D01*
X008567Y021176D01*
X008207Y021176D01*
X008168Y021165D01*
X008133Y021145D01*
X008104Y021117D01*
X008084Y021081D01*
X008073Y021042D01*
X008073Y020840D01*
X008567Y020840D01*
X008567Y020877D02*
X008627Y020877D01*
X008627Y020840D02*
X008627Y021176D01*
X008987Y021176D01*
X009026Y021165D01*
X009061Y021145D01*
X009090Y021117D01*
X009110Y021081D01*
X009121Y021042D01*
X009121Y020840D01*
X008627Y020840D01*
X008627Y020818D02*
X009987Y020818D01*
X009987Y020760D02*
X009121Y020760D01*
X009121Y020780D02*
X008627Y020780D01*
X008627Y020443D01*
X008987Y020443D01*
X009026Y020454D01*
X009061Y020474D01*
X009090Y020503D01*
X009110Y020538D01*
X009121Y020577D01*
X009121Y020780D01*
X009121Y020701D02*
X009987Y020701D01*
X009987Y020643D02*
X009121Y020643D01*
X009121Y020584D02*
X009987Y020584D01*
X009987Y020526D02*
X009103Y020526D01*
X009049Y020467D02*
X010010Y020467D01*
X009987Y020877D02*
X009121Y020877D01*
X009121Y020935D02*
X009987Y020935D01*
X009987Y020994D02*
X009121Y020994D01*
X009118Y021052D02*
X009987Y021052D01*
X009993Y021111D02*
X009093Y021111D01*
X009013Y021169D02*
X010017Y021169D01*
X010042Y021228D02*
X000910Y021228D01*
X000910Y021286D02*
X010099Y021286D01*
X010174Y021345D02*
X000910Y021345D01*
X000910Y021403D02*
X011995Y021403D01*
X011971Y021462D02*
X000910Y021462D01*
X000910Y021520D02*
X011947Y021520D01*
X011947Y021579D02*
X000910Y021579D01*
X000910Y021637D02*
X011947Y021637D01*
X011947Y021696D02*
X000910Y021696D01*
X000910Y021754D02*
X011947Y021754D01*
X011952Y021813D02*
X000910Y021813D01*
X000910Y021871D02*
X011976Y021871D01*
X012000Y021930D02*
X000910Y021930D01*
X000910Y021988D02*
X012025Y021988D01*
X012049Y022047D02*
X000910Y022047D01*
X000910Y022105D02*
X012097Y022105D01*
X012156Y022164D02*
X000910Y022164D01*
X000910Y022222D02*
X012214Y022222D01*
X012296Y022281D02*
X000910Y022281D01*
X000910Y022339D02*
X012437Y022339D01*
X012883Y022339D02*
X014437Y022339D01*
X014296Y022281D02*
X013024Y022281D01*
X013106Y022222D02*
X014214Y022222D01*
X014156Y022164D02*
X013164Y022164D01*
X013223Y022105D02*
X013432Y022105D01*
X013341Y022047D02*
X013271Y022047D01*
X013630Y022047D02*
X013690Y022047D01*
X013690Y022105D02*
X013630Y022105D01*
X013630Y021988D02*
X013690Y021988D01*
X013690Y021930D02*
X013630Y021930D01*
X013630Y021871D02*
X013690Y021871D01*
X013690Y021813D02*
X013630Y021813D01*
X013630Y021754D02*
X013690Y021754D01*
X013690Y021696D02*
X013630Y021696D01*
X013979Y022047D02*
X014049Y022047D01*
X014097Y022105D02*
X013888Y022105D01*
X012019Y021345D02*
X011272Y021345D01*
X011347Y021286D02*
X012044Y021286D01*
X011306Y020292D02*
X014124Y020292D01*
X014183Y020233D02*
X011171Y020233D01*
X010204Y020058D02*
X009116Y020058D01*
X009209Y019999D02*
X010111Y019999D01*
X010053Y019941D02*
X009267Y019941D01*
X009298Y019882D02*
X010022Y019882D01*
X009998Y019824D02*
X009322Y019824D01*
X009333Y019765D02*
X009987Y019765D01*
X009987Y019707D02*
X009333Y019707D01*
X009333Y019648D02*
X009987Y019648D01*
X009987Y019590D02*
X009333Y019590D01*
X009333Y019531D02*
X009987Y019531D01*
X009987Y019473D02*
X009333Y019473D01*
X009333Y019414D02*
X009972Y019414D01*
X009914Y019356D02*
X009333Y019356D01*
X009333Y019297D02*
X009855Y019297D01*
X009797Y019239D02*
X009333Y019239D01*
X009315Y019180D02*
X009738Y019180D01*
X010403Y018537D02*
X010588Y018537D01*
X010539Y018478D02*
X010345Y018478D01*
X010286Y018420D02*
X010515Y018420D01*
X010491Y018361D02*
X010228Y018361D01*
X010169Y018303D02*
X010489Y018303D01*
X010489Y018244D02*
X010077Y018244D01*
X010462Y018595D02*
X010647Y018595D01*
X010520Y018654D02*
X010782Y018654D01*
X010489Y018186D02*
X007840Y018186D01*
X007781Y018127D02*
X010489Y018127D01*
X010489Y018069D02*
X007723Y018069D01*
X007664Y018010D02*
X010489Y018010D01*
X010489Y017952D02*
X007623Y017952D01*
X007623Y017893D02*
X010489Y017893D01*
X010489Y017835D02*
X007623Y017835D01*
X007623Y017776D02*
X010489Y017776D01*
X010489Y017718D02*
X007623Y017718D01*
X007623Y017659D02*
X010489Y017659D01*
X010505Y017601D02*
X007639Y017601D01*
X007697Y017542D02*
X010530Y017542D01*
X010565Y017484D02*
X007730Y017484D01*
X007780Y016957D02*
X008418Y016957D01*
X008418Y016899D02*
X007755Y016899D01*
X007731Y016840D02*
X008422Y016840D01*
X008437Y016782D02*
X007701Y016782D01*
X007642Y016723D02*
X008335Y016723D01*
X008276Y016665D02*
X007623Y016665D01*
X006697Y016665D02*
X006223Y016665D01*
X006223Y016723D02*
X006678Y016723D01*
X006619Y016782D02*
X006223Y016782D01*
X006223Y016840D02*
X006589Y016840D01*
X006565Y016899D02*
X006223Y016899D01*
X006223Y016957D02*
X006540Y016957D01*
X006516Y017016D02*
X006223Y017016D01*
X006223Y017074D02*
X006510Y017074D01*
X006510Y017133D02*
X006223Y017133D01*
X006223Y017191D02*
X006510Y017191D01*
X006510Y017250D02*
X006223Y017250D01*
X006223Y017308D02*
X006518Y017308D01*
X006542Y017367D02*
X006223Y017367D01*
X006223Y017425D02*
X006566Y017425D01*
X006590Y017484D02*
X006223Y017484D01*
X006223Y017542D02*
X006623Y017542D01*
X006681Y017601D02*
X006223Y017601D01*
X006223Y017659D02*
X006697Y017659D01*
X006697Y017718D02*
X006223Y017718D01*
X006223Y017776D02*
X006697Y017776D01*
X006697Y017835D02*
X006239Y017835D01*
X006297Y017893D02*
X006697Y017893D01*
X006697Y017952D02*
X006356Y017952D01*
X006414Y018010D02*
X006697Y018010D01*
X006697Y018069D02*
X006473Y018069D01*
X006531Y018127D02*
X006697Y018127D01*
X006697Y018186D02*
X006590Y018186D01*
X006648Y018244D02*
X006697Y018244D01*
X006707Y018303D02*
X006718Y018303D01*
X006697Y016606D02*
X006223Y016606D01*
X006223Y016548D02*
X006697Y016548D01*
X006697Y016489D02*
X006223Y016489D01*
X006223Y016431D02*
X006697Y016431D01*
X006661Y016372D02*
X006223Y016372D01*
X006223Y016314D02*
X006621Y016314D01*
X006597Y016255D02*
X006223Y016255D01*
X006223Y016197D02*
X006572Y016197D01*
X006557Y016138D02*
X006223Y016138D01*
X006254Y016080D02*
X006557Y016080D01*
X006524Y016021D02*
X006296Y016021D01*
X006320Y015963D02*
X006500Y015963D01*
X006481Y015904D02*
X006339Y015904D01*
X006339Y015846D02*
X006481Y015846D01*
X006481Y015787D02*
X006339Y015787D01*
X006339Y015729D02*
X006481Y015729D01*
X006481Y015670D02*
X006339Y015670D01*
X006339Y015612D02*
X006481Y015612D01*
X006481Y015553D02*
X006339Y015553D01*
X006339Y015495D02*
X006481Y015495D01*
X006481Y015436D02*
X006339Y015436D01*
X006339Y015378D02*
X006481Y015378D01*
X006481Y015319D02*
X006339Y015319D01*
X006339Y015261D02*
X006481Y015261D01*
X006481Y015202D02*
X006339Y015202D01*
X006339Y015144D02*
X006481Y015144D01*
X006481Y015085D02*
X006339Y015085D01*
X006338Y015027D02*
X006482Y015027D01*
X006506Y014968D02*
X006314Y014968D01*
X006289Y014910D02*
X006531Y014910D01*
X006581Y014851D02*
X006239Y014851D01*
X006181Y014793D02*
X006639Y014793D01*
X005790Y013857D02*
X005730Y013857D01*
X005730Y013798D02*
X005790Y013798D01*
X005790Y013740D02*
X005730Y013740D01*
X005730Y013681D02*
X005790Y013681D01*
X005790Y013623D02*
X005730Y013623D01*
X005730Y013564D02*
X005790Y013564D01*
X005790Y013506D02*
X005730Y013506D01*
X005730Y013447D02*
X005790Y013447D01*
X005790Y013389D02*
X005730Y013389D01*
X005394Y013389D02*
X000910Y013389D01*
X000910Y013447D02*
X005394Y013447D01*
X005394Y013506D02*
X000910Y013506D01*
X000910Y013564D02*
X005394Y013564D01*
X005394Y013623D02*
X000910Y013623D01*
X000910Y013681D02*
X005394Y013681D01*
X005395Y013740D02*
X000910Y013740D01*
X000910Y013798D02*
X005417Y013798D01*
X006557Y012745D02*
X000910Y012745D01*
X000910Y012687D02*
X006532Y012687D01*
X006474Y012628D02*
X000910Y012628D01*
X000910Y012570D02*
X006415Y012570D01*
X006357Y012511D02*
X000910Y012511D01*
X000910Y012453D02*
X006298Y012453D01*
X007562Y012570D02*
X007609Y012570D01*
X007562Y012628D02*
X007727Y012628D01*
X007562Y012687D02*
X008042Y012687D01*
X008105Y012745D02*
X007562Y012745D01*
X007597Y012804D02*
X008852Y012804D01*
X008901Y012862D02*
X007621Y012862D01*
X007638Y012921D02*
X008960Y012921D01*
X009045Y012979D02*
X007638Y012979D01*
X007638Y013038D02*
X009133Y013038D01*
X009192Y013096D02*
X007638Y013096D01*
X007638Y013155D02*
X009250Y013155D01*
X009309Y013213D02*
X007638Y013213D01*
X007638Y013272D02*
X009367Y013272D01*
X009426Y013330D02*
X007638Y013330D01*
X007638Y013389D02*
X009484Y013389D01*
X009543Y013447D02*
X007638Y013447D01*
X007638Y013506D02*
X009601Y013506D01*
X009660Y013564D02*
X007638Y013564D01*
X007638Y013623D02*
X009718Y013623D01*
X009777Y013681D02*
X007638Y013681D01*
X007638Y013740D02*
X009835Y013740D01*
X009894Y013798D02*
X007635Y013798D01*
X007611Y013857D02*
X009952Y013857D01*
X010011Y013915D02*
X007587Y013915D01*
X007534Y013974D02*
X010069Y013974D01*
X010128Y014032D02*
X007469Y014032D01*
X007480Y014793D02*
X010579Y014793D01*
X010535Y014851D02*
X007538Y014851D01*
X007588Y014910D02*
X010511Y014910D01*
X010489Y014968D02*
X007613Y014968D01*
X007637Y015027D02*
X010489Y015027D01*
X010489Y015085D02*
X007638Y015085D01*
X007638Y015144D02*
X010489Y015144D01*
X010489Y015202D02*
X007638Y015202D01*
X007638Y015261D02*
X010489Y015261D01*
X010489Y015319D02*
X007638Y015319D01*
X007638Y015378D02*
X010489Y015378D01*
X010489Y015436D02*
X007638Y015436D01*
X007638Y015495D02*
X010489Y015495D01*
X010489Y015553D02*
X007638Y015553D01*
X007638Y015612D02*
X010489Y015612D01*
X010489Y015670D02*
X007638Y015670D01*
X010186Y014091D02*
X000910Y014091D01*
X000910Y014149D02*
X010245Y014149D01*
X010303Y014208D02*
X000910Y014208D01*
X000910Y014266D02*
X010362Y014266D01*
X010420Y014325D02*
X000910Y014325D01*
X000910Y014383D02*
X010479Y014383D01*
X010537Y014442D02*
X000910Y014442D01*
X000910Y014500D02*
X010596Y014500D01*
X010663Y014559D02*
X000910Y014559D01*
X000910Y014617D02*
X010804Y014617D01*
X010760Y014676D02*
X000910Y014676D01*
X000910Y014734D02*
X010638Y014734D01*
X010509Y015729D02*
X010415Y015729D01*
X008042Y011633D02*
X008038Y011633D01*
X015675Y013506D02*
X015678Y013506D01*
X015720Y013564D02*
X015736Y013564D01*
X015745Y013623D02*
X015801Y013623D01*
X015769Y013681D02*
X015942Y013681D01*
X016378Y013681D02*
X016942Y013681D01*
X016801Y013623D02*
X016519Y013623D01*
X016584Y013564D02*
X016736Y013564D01*
X016678Y013506D02*
X016642Y013506D01*
X019241Y016021D02*
X020182Y016021D01*
X020182Y015963D02*
X019299Y015963D01*
X019358Y015904D02*
X020182Y015904D01*
X020182Y015846D02*
X019416Y015846D01*
X019475Y015787D02*
X020182Y015787D01*
X020182Y015729D02*
X019533Y015729D01*
X019592Y015670D02*
X020182Y015670D01*
X020182Y015612D02*
X019650Y015612D01*
X019709Y015553D02*
X020182Y015553D01*
X020196Y015495D02*
X019767Y015495D01*
X019826Y015436D02*
X020221Y015436D01*
X020255Y015378D02*
X019884Y015378D01*
X019943Y015319D02*
X020314Y015319D01*
X020417Y015261D02*
X020001Y015261D01*
X020060Y015202D02*
X024910Y015202D01*
X024910Y015144D02*
X020118Y015144D01*
X020177Y015085D02*
X024910Y015085D01*
X024910Y015027D02*
X020235Y015027D01*
X020294Y014968D02*
X024910Y014968D01*
X024910Y014910D02*
X020352Y014910D01*
X020411Y014851D02*
X024910Y014851D01*
X024910Y014793D02*
X020469Y014793D01*
X020528Y014734D02*
X024910Y014734D01*
X024910Y014676D02*
X020586Y014676D01*
X020645Y014617D02*
X024910Y014617D01*
X024910Y015261D02*
X021103Y015261D01*
X021207Y015319D02*
X024910Y015319D01*
X024910Y015378D02*
X021266Y015378D01*
X021300Y015436D02*
X024910Y015436D01*
X024910Y015495D02*
X022381Y015495D01*
X022395Y015509D02*
X022415Y015544D01*
X022426Y015583D01*
X022426Y015943D01*
X022090Y015943D01*
X022090Y016003D01*
X022426Y016003D01*
X022426Y016363D01*
X022415Y016402D01*
X022395Y016437D01*
X022367Y016466D01*
X022331Y016486D01*
X022292Y016497D01*
X022090Y016497D01*
X022090Y016003D01*
X022030Y016003D01*
X022030Y016497D01*
X021827Y016497D01*
X021788Y016486D01*
X021753Y016466D01*
X021724Y016437D01*
X021704Y016402D01*
X021693Y016363D01*
X021693Y016003D01*
X022030Y016003D01*
X022030Y015943D01*
X022090Y015943D01*
X022090Y015449D01*
X022292Y015449D01*
X022331Y015460D01*
X022367Y015480D01*
X022395Y015509D01*
X022418Y015553D02*
X024910Y015553D01*
X024910Y015612D02*
X022426Y015612D01*
X022426Y015670D02*
X024910Y015670D01*
X024910Y015729D02*
X022426Y015729D01*
X022426Y015787D02*
X024910Y015787D01*
X024910Y015846D02*
X022426Y015846D01*
X022426Y015904D02*
X024910Y015904D01*
X024910Y015963D02*
X022090Y015963D01*
X022090Y016021D02*
X022030Y016021D01*
X022030Y015963D02*
X021339Y015963D01*
X021339Y016021D02*
X021693Y016021D01*
X021693Y016080D02*
X021339Y016080D01*
X021339Y016138D02*
X021693Y016138D01*
X021693Y016197D02*
X021339Y016197D01*
X021339Y016255D02*
X021693Y016255D01*
X021693Y016314D02*
X021339Y016314D01*
X021339Y016372D02*
X021696Y016372D01*
X021720Y016431D02*
X021333Y016431D01*
X021309Y016489D02*
X021798Y016489D01*
X022030Y016489D02*
X022090Y016489D01*
X022090Y016431D02*
X022030Y016431D01*
X022030Y016372D02*
X022090Y016372D01*
X022090Y016314D02*
X022030Y016314D01*
X022030Y016255D02*
X022090Y016255D01*
X022090Y016197D02*
X022030Y016197D01*
X022030Y016138D02*
X022090Y016138D01*
X022090Y016080D02*
X022030Y016080D01*
X022030Y015943D02*
X021693Y015943D01*
X021693Y015583D01*
X021704Y015544D01*
X021724Y015509D01*
X021753Y015480D01*
X021788Y015460D01*
X021827Y015449D01*
X022030Y015449D01*
X022030Y015943D01*
X022030Y015904D02*
X022090Y015904D01*
X022090Y015846D02*
X022030Y015846D01*
X022030Y015787D02*
X022090Y015787D01*
X022090Y015729D02*
X022030Y015729D01*
X022030Y015670D02*
X022090Y015670D01*
X022090Y015612D02*
X022030Y015612D01*
X022030Y015553D02*
X022090Y015553D01*
X022090Y015495D02*
X022030Y015495D01*
X021738Y015495D02*
X021324Y015495D01*
X021339Y015553D02*
X021701Y015553D01*
X021693Y015612D02*
X021339Y015612D01*
X021339Y015670D02*
X021693Y015670D01*
X021693Y015729D02*
X021339Y015729D01*
X021339Y015787D02*
X021693Y015787D01*
X021693Y015846D02*
X021339Y015846D01*
X021339Y015904D02*
X021693Y015904D01*
X022426Y016021D02*
X024910Y016021D01*
X024910Y016080D02*
X022426Y016080D01*
X022426Y016138D02*
X024910Y016138D01*
X024910Y016197D02*
X022426Y016197D01*
X022426Y016255D02*
X024910Y016255D01*
X024910Y016314D02*
X022426Y016314D01*
X022423Y016372D02*
X024910Y016372D01*
X024910Y016431D02*
X022399Y016431D01*
X022321Y016489D02*
X024910Y016489D01*
X024910Y016548D02*
X021285Y016548D01*
X021228Y016606D02*
X024910Y016606D01*
X024910Y016665D02*
X021223Y016665D01*
X021223Y016723D02*
X024910Y016723D01*
X024910Y016782D02*
X021223Y016782D01*
X021223Y016840D02*
X024910Y016840D01*
X024910Y016899D02*
X021223Y016899D01*
X021223Y016957D02*
X024910Y016957D01*
X024910Y017016D02*
X021223Y017016D01*
X021223Y017074D02*
X024910Y017074D01*
X024910Y017133D02*
X021223Y017133D01*
X021223Y017191D02*
X024910Y017191D01*
X024910Y017250D02*
X021223Y017250D01*
X021223Y017308D02*
X024910Y017308D01*
X024910Y017367D02*
X021223Y017367D01*
X021223Y017425D02*
X024910Y017425D01*
X024910Y017484D02*
X021223Y017484D01*
X021223Y017542D02*
X024910Y017542D01*
X024910Y017601D02*
X021223Y017601D01*
X021223Y017659D02*
X024910Y017659D01*
X024910Y017718D02*
X021223Y017718D01*
X021223Y017776D02*
X024910Y017776D01*
X024910Y017835D02*
X021223Y017835D01*
X021223Y017893D02*
X024910Y017893D01*
X024910Y017952D02*
X021223Y017952D01*
X021223Y018010D02*
X024910Y018010D01*
X024910Y018069D02*
X021223Y018069D01*
X021223Y018127D02*
X024910Y018127D01*
X024910Y018186D02*
X021223Y018186D01*
X021223Y018244D02*
X024910Y018244D01*
X024910Y018303D02*
X021223Y018303D01*
X021223Y018361D02*
X024910Y018361D01*
X024910Y018420D02*
X021223Y018420D01*
X021223Y018478D02*
X024910Y018478D01*
X024910Y018537D02*
X021223Y018537D01*
X021223Y018595D02*
X024910Y018595D01*
X024910Y018654D02*
X021223Y018654D01*
X021223Y018712D02*
X024910Y018712D01*
X024910Y018771D02*
X021223Y018771D01*
X021223Y018829D02*
X024910Y018829D01*
X024910Y018888D02*
X021223Y018888D01*
X021223Y018946D02*
X024910Y018946D01*
X024910Y019005D02*
X021223Y019005D01*
X021223Y019063D02*
X024910Y019063D01*
X024910Y019122D02*
X021223Y019122D01*
X021223Y019180D02*
X024910Y019180D01*
X024910Y019239D02*
X021223Y019239D01*
X021223Y019297D02*
X024910Y019297D01*
X024910Y019356D02*
X021223Y019356D01*
X021223Y019414D02*
X024910Y019414D01*
X024910Y019473D02*
X021223Y019473D01*
X021223Y019531D02*
X024910Y019531D01*
X024910Y019590D02*
X021223Y019590D01*
X021223Y019648D02*
X024910Y019648D01*
X024910Y019707D02*
X021200Y019707D01*
X021176Y019765D02*
X024910Y019765D01*
X024910Y019824D02*
X021151Y019824D01*
X021092Y019882D02*
X024910Y019882D01*
X024910Y019941D02*
X021034Y019941D01*
X020975Y019999D02*
X024910Y019999D01*
X024910Y020058D02*
X020917Y020058D01*
X020858Y020116D02*
X024910Y020116D01*
X024910Y020175D02*
X020800Y020175D01*
X020741Y020233D02*
X024910Y020233D01*
X024910Y020292D02*
X020683Y020292D01*
X020624Y020350D02*
X024910Y020350D01*
X024910Y020409D02*
X020566Y020409D01*
X020507Y020467D02*
X024910Y020467D01*
X024910Y020526D02*
X020449Y020526D01*
X020390Y020584D02*
X024910Y020584D01*
X024910Y020643D02*
X020332Y020643D01*
X020273Y020701D02*
X024910Y020701D01*
X024910Y020760D02*
X020215Y020760D01*
X020156Y020818D02*
X024910Y020818D01*
X024910Y020877D02*
X020098Y020877D01*
X020039Y020935D02*
X024910Y020935D01*
X024910Y020994D02*
X019981Y020994D01*
X019922Y021052D02*
X024910Y021052D01*
X024910Y021111D02*
X019864Y021111D01*
X019805Y021169D02*
X024910Y021169D01*
X024910Y021228D02*
X019710Y021228D01*
X019597Y021286D02*
X024910Y021286D01*
X024910Y021345D02*
X019522Y021345D01*
X019492Y020058D02*
X019608Y020058D01*
X019585Y019999D02*
X019667Y019999D01*
X019643Y019941D02*
X019725Y019941D01*
X019674Y019882D02*
X019784Y019882D01*
X019842Y019824D02*
X019698Y019824D01*
X019709Y019765D02*
X019901Y019765D01*
X019959Y019707D02*
X019709Y019707D01*
X019709Y019648D02*
X020018Y019648D01*
X020076Y019590D02*
X019709Y019590D01*
X019709Y019531D02*
X020135Y019531D01*
X020193Y019473D02*
X019709Y019473D01*
X019709Y019414D02*
X020252Y019414D01*
X020298Y019356D02*
X019709Y019356D01*
X019709Y019297D02*
X020298Y019297D01*
X020298Y019239D02*
X019709Y019239D01*
X019691Y019180D02*
X020298Y019180D01*
X020298Y019122D02*
X019666Y019122D01*
X019626Y019063D02*
X020298Y019063D01*
X020298Y019005D02*
X019568Y019005D01*
X019451Y018946D02*
X020298Y018946D01*
X020298Y018888D02*
X019004Y018888D01*
X018946Y018829D02*
X020298Y018829D01*
X020298Y018771D02*
X018887Y018771D01*
X018829Y018712D02*
X020298Y018712D01*
X020298Y018654D02*
X018770Y018654D01*
X018712Y018595D02*
X020298Y018595D01*
X020298Y018537D02*
X018653Y018537D01*
X018623Y018478D02*
X020298Y018478D01*
X020298Y018420D02*
X018623Y018420D01*
X018623Y018361D02*
X020298Y018361D01*
X020298Y018303D02*
X018623Y018303D01*
X018623Y018244D02*
X020298Y018244D01*
X020298Y018186D02*
X018623Y018186D01*
X018623Y018127D02*
X020298Y018127D01*
X020298Y018069D02*
X018623Y018069D01*
X018623Y018010D02*
X020298Y018010D01*
X020298Y017952D02*
X018623Y017952D01*
X018623Y017893D02*
X020298Y017893D01*
X020298Y017835D02*
X018623Y017835D01*
X018623Y017776D02*
X020298Y017776D01*
X020298Y017718D02*
X018623Y017718D01*
X018623Y017659D02*
X020298Y017659D01*
X020298Y017601D02*
X018623Y017601D01*
X018623Y017542D02*
X020298Y017542D01*
X020298Y017484D02*
X018623Y017484D01*
X018623Y017425D02*
X020298Y017425D01*
X020298Y017367D02*
X018623Y017367D01*
X018623Y017308D02*
X020298Y017308D01*
X020298Y017250D02*
X018623Y017250D01*
X018623Y017191D02*
X020298Y017191D01*
X020298Y017133D02*
X018623Y017133D01*
X018623Y017074D02*
X020298Y017074D01*
X020298Y017016D02*
X018623Y017016D01*
X018623Y016957D02*
X020298Y016957D01*
X020298Y016899D02*
X018623Y016899D01*
X018623Y016840D02*
X020298Y016840D01*
X020298Y016782D02*
X018623Y016782D01*
X018623Y016723D02*
X020298Y016723D01*
X020298Y016665D02*
X018623Y016665D01*
X018656Y016606D02*
X020293Y016606D01*
X020236Y016548D02*
X018714Y016548D01*
X018773Y016489D02*
X020212Y016489D01*
X020188Y016431D02*
X018831Y016431D01*
X018890Y016372D02*
X020182Y016372D01*
X020182Y016314D02*
X018948Y016314D01*
X019007Y016255D02*
X020182Y016255D01*
X020182Y016197D02*
X019065Y016197D01*
X019124Y016138D02*
X020182Y016138D01*
X020182Y016080D02*
X019182Y016080D01*
X018160Y018660D02*
X018160Y018697D01*
X017988Y019180D02*
X017565Y019180D01*
X017583Y019239D02*
X018047Y019239D01*
X018105Y019297D02*
X017583Y019297D01*
X017583Y019356D02*
X018164Y019356D01*
X018222Y019414D02*
X017583Y019414D01*
X017583Y019473D02*
X018237Y019473D01*
X018237Y019531D02*
X017583Y019531D01*
X017583Y019590D02*
X018237Y019590D01*
X018237Y019648D02*
X017583Y019648D01*
X017583Y019707D02*
X018237Y019707D01*
X018237Y019765D02*
X017583Y019765D01*
X017572Y019824D02*
X018248Y019824D01*
X018272Y019882D02*
X017548Y019882D01*
X017517Y019941D02*
X018303Y019941D01*
X018361Y019999D02*
X017459Y019999D01*
X017366Y020058D02*
X018454Y020058D01*
X016877Y020467D02*
X016817Y020467D01*
X016817Y020526D02*
X016877Y020526D01*
X016877Y020584D02*
X016817Y020584D01*
X016817Y020643D02*
X016877Y020643D01*
X016877Y020701D02*
X016817Y020701D01*
X016817Y020877D02*
X016877Y020877D01*
X016877Y020935D02*
X016817Y020935D01*
X016817Y020994D02*
X016877Y020994D01*
X016877Y021052D02*
X016817Y021052D01*
X016817Y021111D02*
X016877Y021111D01*
X016877Y021169D02*
X016817Y021169D01*
X008627Y021169D02*
X008567Y021169D01*
X008567Y021111D02*
X008627Y021111D01*
X008627Y021052D02*
X008567Y021052D01*
X008567Y020994D02*
X008627Y020994D01*
X008627Y020935D02*
X008567Y020935D01*
X008567Y020760D02*
X008627Y020760D01*
X008627Y020701D02*
X008567Y020701D01*
X008567Y020643D02*
X008627Y020643D01*
X008627Y020584D02*
X008567Y020584D01*
X008567Y020526D02*
X008627Y020526D01*
X008627Y020467D02*
X008567Y020467D01*
X008073Y020877D02*
X000910Y020877D01*
X000910Y020935D02*
X008073Y020935D01*
X008073Y020994D02*
X000910Y020994D01*
X000910Y021052D02*
X008076Y021052D01*
X008101Y021111D02*
X000910Y021111D01*
X000910Y021169D02*
X008181Y021169D01*
D18*
X007160Y017160D03*
X013660Y022660D03*
X015160Y013910D03*
X016660Y008660D03*
X016160Y004160D03*
X017410Y003660D03*
X010160Y008410D03*
X008660Y007660D03*
D19*
X008516Y007804D01*
X007160Y007160D02*
X007060Y007060D01*
X007060Y006847D01*
X010137Y008433D02*
X010160Y008410D01*
X009284Y012160D02*
X009284Y012534D01*
X008536Y012160D02*
X007910Y012160D01*
X007060Y012560D02*
X007060Y013347D01*
X007060Y015473D02*
X007060Y016060D01*
X017410Y003660D02*
X018160Y003660D01*
D20*
X020760Y006260D01*
X020760Y006847D01*
X022060Y006847D02*
X022060Y006310D01*
X018410Y002660D01*
X015873Y002660D01*
X014723Y003810D01*
X016160Y004160D02*
X014910Y005410D01*
X014910Y007910D01*
X015660Y008660D01*
X016660Y008660D01*
X020760Y008973D02*
X020760Y011010D01*
X022060Y012310D01*
X022060Y013847D01*
X020760Y013847D02*
X018160Y016447D01*
X018160Y018660D01*
X013573Y018660D01*
X012723Y019510D01*
X010723Y019510D01*
X009873Y018660D01*
X007660Y018660D01*
X007160Y018160D01*
X007160Y017160D01*
X007160Y016160D01*
X008597Y016160D01*
X008703Y016266D02*
X009453Y016266D01*
X010910Y014160D02*
X009284Y012534D01*
X007910Y012160D02*
X006660Y010910D01*
X006160Y010910D01*
X005760Y010510D01*
X005760Y008973D01*
X005160Y007910D02*
X006410Y007910D01*
X007160Y007160D01*
X008516Y007804D02*
X008516Y009160D01*
X008516Y010660D01*
X007060Y012560D02*
X006160Y011660D01*
X005373Y011660D01*
X004660Y010947D01*
X004660Y008410D01*
X005160Y007910D01*
X005760Y006847D02*
X005760Y005810D01*
X006160Y005410D01*
X008160Y005410D01*
X008660Y005910D01*
X010497Y005910D01*
X012597Y003810D01*
X008660Y005910D02*
X008660Y007660D01*
X010910Y014160D02*
X014910Y014160D01*
X018160Y018697D02*
X018973Y019510D01*
X018973Y020810D02*
X019510Y020810D01*
X020760Y019560D01*
X020760Y015973D01*
X016847Y019510D02*
X015560Y019510D01*
X014260Y020810D01*
X010723Y020810D01*
X008597Y019510D02*
X007260Y019510D01*
X005760Y018010D01*
X005760Y015473D01*
D21*
X007060Y016060D02*
X007160Y016160D01*
X008597Y016160D02*
X008703Y016266D01*
X014910Y014160D02*
X015160Y013910D01*
M02*
